999
dxfrw 0.6.3
  0
SECTION
  2
HEADER
  9
$ACADVER
  1
AC1021
  9
$DWGCODEPAGE
  3
ANSI_1252
  9
$INSBASE
 10
0
 20
0
 30
0
  9
$EXTMIN
 10
-0.0632055383169413
 20
0
 30
0
  9
$EXTMAX
 10
451.202778
 20
266.7
 30
0
  9
$LIMMIN
 10
0
 20
0
  9
$LIMMAX
 10
420
 20
297
  9
$ORTHOMODE
 70
    0
  9
$REGENMODE
 70
    1
  9
$FILLMODE
 70
    1
  9
$QTEXTMODE
 70
    0
  9
$MIRRTEXT
 70
    0
  9
$LTSCALE
 40
1
  9
$ATTMODE
 70
    0
  9
$TEXTSIZE
 40
2.5
  9
$TRACEWID
 40
15.68
  9
$TEXTSTYLE
  7
STANDARD
  9
$CLAYER
  8
0
  9
$CELTYPE
  6
BYLAYER
  9
$CECOLOR
 62
  256
  9
$CELTSCALE
 40
1
  9
$DISPSILH
 70
    0
  9
$DIMSCALE
 40
1
  9
$DIMASZ
 40
2.5
  9
$DIMEXO
 40
0.625
  9
$DIMDLI
 40
3.75
  9
$DIMRND
 40
0
  9
$DIMDLE
 40
0
  9
$DIMEXE
 40
1.25
  9
$DIMTP
 40
0
  9
$DIMTM
 40
0
  9
$DIMTXT
 40
2.5
  9
$DIMCEN
 40
2.5
  9
$DIMTSZ
 40
0
  9
$DIMTOL
 70
    0
  9
$DIMLIM
 70
    0
  9
$DIMTIH
 70
    0
  9
$DIMTOH
 70
    0
  9
$DIMSE1
 70
    0
  9
$DIMSE2
 70
    0
  9
$DIMTAD
 70
    1
  9
$DIMZIN
 70
    8
  9
$DIMBLK
  1

  9
$DIMASO
 70
    1
  9
$DIMSHO
 70
    1
  9
$DIMPOST
  1

  9
$DIMAPOST
  1

  9
$DIMALT
 70
    0
  9
$DIMALTD
 70
    3
  9
$DIMALTF
 40
0.03937
  9
$DIMLFAC
 40
1
  9
$DIMTOFL
 70
    1
  9
$DIMTVP
 40
0
  9
$DIMTIX
 70
    0
  9
$DIMSOXD
 70
    0
  9
$DIMSAH
 70
    0
  9
$DIMBLK1
  1

  9
$DIMBLK2
  1

  9
$DIMSTYLE
  2
Standard
  9
$DIMCLRD
 70
    0
  9
$DIMCLRE
 70
    0
  9
$DIMCLRT
 70
    0
  9
$DIMTFAC
 40
1
  9
$DIMGAP
 40
0.625
  9
$DIMJUST
 70
    0
  9
$DIMSD1
 70
    0
  9
$DIMSD2
 70
    0
  9
$DIMTOLJ
 70
    0
  9
$DIMTZIN
 70
    8
  9
$DIMALTZ
 70
    0
  9
$DIMALTTZ
 70
    0
  9
$DIMUPT
 70
    0
  9
$DIMDEC
 70
    2
  9
$DIMTDEC
 70
    2
  9
$DIMALTU
 70
    2
  9
$DIMALTTD
 70
    3
  9
$DIMTXSTY
  7
STANDARD
  9
$DIMAUNIT
 70
    0
  9
$DIMADEC
 70
    0
  9
$DIMALTRND
 40
0
  9
$DIMAZIN
 70
    0
  9
$DIMDSEP
 70
   44
  9
$DIMATFIT
 70
    3
  9
$DIMFRAC
 70
    0
  9
$DIMLDRBLK
  1
STANDARD
  9
$DIMLUNIT
 70
    2
  9
$DIMLWD
 70
   -2
  9
$DIMLWE
 70
   -2
  9
$DIMTMOVE
 70
    0
  9
$DIMFXL
 40
1
  9
$DIMFXLON
 70
    0
  9
$DIMJOGANG
 40
0.7854
  9
$DIMTFILL
 70
    0
  9
$DIMTFILLCLR
 70
    0
  9
$DIMARCSYM
 70
    0
  9
$DIMLTYPE
  6

  9
$DIMLTEX1
  6

  9
$DIMLTEX2
  6

  9
$LUNITS
 70
    2
  9
$LUPREC
 70
    4
  9
$SKETCHINC
 40
1
  9
$FILLETRAD
 40
0
  9
$AUNITS
 70
    0
  9
$AUPREC
 70
    2
  9
$MENU
  1
.
  9
$ELEVATION
 40
0
  9
$PELEVATION
 40
0
  9
$THICKNESS
 40
0
  9
$LIMCHECK
 70
    0
  9
$CHAMFERA
 40
0
  9
$CHAMFERB
 40
0
  9
$CHAMFERC
 40
0
  9
$CHAMFERD
 40
0
  9
$SKPOLY
 70
    0
  9
$USRTIMER
 70
    1
  9
$ANGBASE
 50
0
  9
$ANGDIR
 70
    0
  9
$PDMODE
 70
   34
  9
$PDSIZE
 40
0
  9
$PLINEWID
 40
0
  9
$SPLFRAME
 70
    0
  9
$SPLINETYPE
 70
    2
  9
$SPLINESEGS
 70
    8
  9
$HANDSEED
  5
20000
  9
$SURFTAB1
 70
    6
  9
$SURFTAB2
 70
    6
  9
$SURFTYPE
 70
    6
  9
$SURFU
 70
    6
  9
$SURFV
 70
    6
  9
$UCSBASE
  2

  9
$UCSNAME
  2

  9
$UCSORG
 10
0
 20
0
 30
0
  9
$UCSXDIR
 10
1
 20
0
 30
0
  9
$UCSYDIR
 10
0
 20
1
 30
0
  9
$UCSORTHOREF
  2

  9
$UCSORTHOVIEW
 70
    0
  9
$UCSORGTOP
 10
0
 20
0
 30
0
  9
$UCSORGBOTTOM
 10
0
 20
0
 30
0
  9
$UCSORGLEFT
 10
0
 20
0
 30
0
  9
$UCSORGRIGHT
 10
0
 20
0
 30
0
  9
$UCSORGFRONT
 10
0
 20
0
 30
0
  9
$UCSORGBACK
 10
0
 20
0
 30
0
  9
$PUCSBASE
  2

  9
$PUCSNAME
  2

  9
$PUCSORG
 10
0
 20
0
 30
0
  9
$PUCSXDIR
 10
1
 20
0
 30
0
  9
$PUCSYDIR
 10
0
 20
1
 30
0
  9
$PUCSORTHOREF
  2

  9
$PUCSORTHOVIEW
 70
    0
  9
$PUCSORGTOP
 10
0
 20
0
 30
0
  9
$PUCSORGBOTTOM
 10
0
 20
0
 30
0
  9
$PUCSORGLEFT
 10
0
 20
0
 30
0
  9
$PUCSORGRIGHT
 10
0
 20
0
 30
0
  9
$PUCSORGFRONT
 10
0
 20
0
 30
0
  9
$PUCSORGBACK
 10
0
 20
0
 30
0
  9
$USERI1
 70
    0
  9
$USERI2
 70
    0
  9
$USERI3
 70
    0
  9
$USERI4
 70
    0
  9
$USERI5
 70
    0
  9
$USERR1
 40
0
  9
$USERR2
 40
0
  9
$USERR3
 40
0
  9
$USERR4
 40
0
  9
$USERR5
 40
0
  9
$WORLDVIEW
 70
    1
  9
$SHADEDGE
 70
    3
  9
$SHADEDIF
 70
   70
  9
$TILEMODE
 70
    1
  9
$MAXACTVP
 70
   64
  9
$PINSBASE
 10
0
 20
0
 30
0
  9
$PLIMCHECK
 70
    0
  9
$PEXTMIN
 10
0
 20
0
 30
0
  9
$PEXTMAX
 10
0
 20
0
 30
0
  9
$GRIDMODE
 70
    0
  9
$SNAPSTYLE
 70
    0
  9
$PLIMMIN
 10
0
 20
0
  9
$PLIMMAX
 10
210
 20
297
  9
$UNITMODE
 70
    0
  9
$VISRETAIN
 70
    1
  9
$PLINEGEN
 70
    0
  9
$PSLTSCALE
 70
    1
  9
$TREEDEPTH
 70
 3020
  9
$CMLSTYLE
  2
Standard
  9
$CMLJUST
 70
    0
  9
$CMLSCALE
 40
20
  9
$PROXYGRAPHICS
 70
    1
  9
$MEASUREMENT
 70
    1
  9
$CELWEIGHT
370
   -1
  9
$ENDCAPS
280
    0
  9
$JOINSTYLE
280
    0
  9
$LWDISPLAY
290
    0
  9
$INSUNITS
 70
    4
  9
$HYPERLINKBASE
  1

  9
$STYLESHEET
  1

  9
$XEDIT
290
    1
  9
$CEPSNTYPE
380
    0
  9
$PSTYLEMODE
290
    1
  9
$EXTNAMES
290
    1
  9
$PSVPSCALE
 40
1
  9
$OLESTARTUP
290
    0
  9
$SORTENTS
280
  127
  9
$INDEXCTL
280
    0
  9
$HIDETEXT
280
    1
  9
$XCLIPFRAME
290
    0
  9
$HALOGAP
280
    0
  9
$OBSCOLOR
 70
  257
  9
$OBSLTYPE
280
    0
  9
$INTERSECTIONDISPLAY
280
    0
  9
$INTERSECTIONCOLOR
 70
  257
  9
$DIMASSOC
280
    1
  9
$PROJECTNAME
  1

  9
$CAMERADISPLAY
290
    0
  9
$LENSLENGTH
 40
50
  9
$CAMERAHEIGHT
 40
0
  9
$STEPSPERSEC
 40
2
  9
$STEPSIZE
 40
50
  9
$3DDWFPREC
 40
2
  9
$PSOLWIDTH
 40
5
  9
$PSOLHEIGHT
 40
80
  9
$LOFTANG1
 40
1.570796326794897
  9
$LOFTANG2
 40
1.570796326794897
  9
$LOFTMAG1
 40
0
  9
$LOFTMAG2
 40
0
  9
$LOFTPARAM
 70
    7
  9
$LOFTNORMALS
280
    1
  9
$LATITUDE
 40
1
  9
$LONGITUDE
 40
1
  9
$NORTHDIRECTION
 40
0
  9
$TIMEZONE
 70
-8000
  9
$LIGHTGLYPHDISPLAY
280
    1
  9
$TILEMODELIGHTSYNCH
280
    1
  9
$SOLIDHIST
280
    1
  9
$SHOWHIST
280
    1
  9
$DWFFRAME
280
    2
  9
$DGNFRAME
280
    0
  9
$REALWORLDSCALE
290
    1
  9
$INTERFERECOLOR
 62
    1
  9
$CSHADOW
280
    0
  9
$SHADOWPLANELOCATION
 40
0
  0
ENDSEC
  0
SECTION
  2
CLASSES
  0
ENDSEC
  0
SECTION
  2
TABLES
  0
TABLE
  2
VPORT
  5
8
330
0
100
AcDbSymbolTable
 70
    1
  0
VPORT
  5
31
330
2
100
AcDbSymbolTableRecord
100
AcDbViewportTableRecord
  2
*ACTIVE
 70
    0
 10
0
 20
0
 11
1
 21
1
 12
44.76046514413621
 22
27.88793292995253
 13
0
 23
0
 14
10
 24
10
 15
10
 25
10
 16
0
 26
0
 36
1
 17
0
 27
0
 37
0
 40
32.74668974113757
 41
2.079268292682927
 42
50
 43
0
 44
0
 50
0
 51
0
 71
    0
 72
  100
 73
    1
 74
    3
 75
    0
 76
    0
 77
    0
 78
    0
281
    0
 65
    1
110
0
120
0
130
0
111
1
121
0
131
0
112
0
122
1
132
0
 79
    0
146
0
348
10020
 60
    7
 61
    5
292
1
282
    1
141
0
142
0
 63
  250
421
3358443
  0
ENDTAB
  0
TABLE
  2
LTYPE
  5
5
330
0
100
AcDbSymbolTable
 70
    4
  0
LTYPE
  5
14
330
5
100
AcDbSymbolTableRecord
100
AcDbLinetypeTableRecord
  2
ByBlock
 70
    0
  3

 72
   65
 73
    0
 40
0
  0
LTYPE
  5
15
330
5
100
AcDbSymbolTableRecord
100
AcDbLinetypeTableRecord
  2
ByLayer
 70
    0
  3

 72
   65
 73
    0
 40
0
  0
LTYPE
  5
16
330
5
100
AcDbSymbolTableRecord
100
AcDbLinetypeTableRecord
  2
Continuous
 70
    0
  3
Solid line
 72
   65
 73
    0
 40
0
  0
LTYPE
  5
32
330
5
100
AcDbSymbolTableRecord
100
AcDbLinetypeTableRecord
  2
DOT
 70
    0
  3
Dot . . . . . . . . . . . . . . . . . . . . . .
 72
   65
 73
    2
 40
6.35
 49
0
 74
    0
 49
-6.35
 74
    0
  0
LTYPE
  5
33
330
5
100
AcDbSymbolTableRecord
100
AcDbLinetypeTableRecord
  2
DOTTINY
 70
    0
  3
Dot (.15x) .....................................
 72
   65
 73
    2
 40
0.9525
 49
0
 74
    0
 49
-0.9525
 74
    0
  0
LTYPE
  5
34
330
5
100
AcDbSymbolTableRecord
100
AcDbLinetypeTableRecord
  2
DOT2
 70
    0
  3
Dot (.5x) .....................................
 72
   65
 73
    2
 40
3.175
 49
0
 74
    0
 49
-3.175
 74
    0
  0
LTYPE
  5
35
330
5
100
AcDbSymbolTableRecord
100
AcDbLinetypeTableRecord
  2
DOTX2
 70
    0
  3
Dot (2x) .  .  .  .  .  .  .  .  .  .  .  .  .
 72
   65
 73
    2
 40
12.7
 49
0
 74
    0
 49
-12.7
 74
    0
  0
LTYPE
  5
36
330
5
100
AcDbSymbolTableRecord
100
AcDbLinetypeTableRecord
  2
DASHED
 70
    0
  3
Dashed _ _ _ _ _ _ _ _ _ _ _ _ _ _ _ _ _
 72
   65
 73
    2
 40
19.05
 49
12.7
 74
    0
 49
-6.35
 74
    0
  0
LTYPE
  5
37
330
5
100
AcDbSymbolTableRecord
100
AcDbLinetypeTableRecord
  2
DASHEDTINY
 70
    0
  3
Dashed (.15x) _ _ _ _ _ _ _ _ _ _ _ _ _ _ _ _ _
 72
   65
 73
    2
 40
2.8575
 49
1.905
 74
    0
 49
-0.9525
 74
    0
  0
LTYPE
  5
38
330
5
100
AcDbSymbolTableRecord
100
AcDbLinetypeTableRecord
  2
DASHED2
 70
    0
  3
Dashed (.5x) _ _ _ _ _ _ _ _ _ _ _ _ _ _ _ _ _
 72
   65
 73
    2
 40
9.524999999999999
 49
6.35
 74
    0
 49
-3.175
 74
    0
  0
LTYPE
  5
39
330
5
100
AcDbSymbolTableRecord
100
AcDbLinetypeTableRecord
  2
DASHEDX2
 70
    0
  3
Dashed (2x) ____  ____  ____  ____  ____  ___
 72
   65
 73
    2
 40
38.09999999999999
 49
25.4
 74
    0
 49
-12.7
 74
    0
  0
LTYPE
  5
3A
330
5
100
AcDbSymbolTableRecord
100
AcDbLinetypeTableRecord
  2
DASHDOT
 70
    0
  3
Dash dot __ . __ . __ . __ . __ . __ . __ . __
 72
   65
 73
    4
 40
25.4
 49
12.7
 74
    0
 49
-6.35
 74
    0
 49
0
 74
    0
 49
-6.35
 74
    0
  0
LTYPE
  5
3B
330
5
100
AcDbSymbolTableRecord
100
AcDbLinetypeTableRecord
  2
DASHDOTTINY
 70
    0
  3
Dash dot (.15x) _._._._._._._._._._._._._._._.
 72
   65
 73
    4
 40
3.81
 49
1.905
 74
    0
 49
-0.9525
 74
    0
 49
0
 74
    0
 49
-0.9525
 74
    0
  0
LTYPE
  5
3C
330
5
100
AcDbSymbolTableRecord
100
AcDbLinetypeTableRecord
  2
DASHDOT2
 70
    0
  3
Dash dot (.5x) _._._._._._._._._._._._._._._.
 72
   65
 73
    4
 40
12.7
 49
6.35
 74
    0
 49
-3.175
 74
    0
 49
0
 74
    0
 49
-3.175
 74
    0
  0
LTYPE
  5
3D
330
5
100
AcDbSymbolTableRecord
100
AcDbLinetypeTableRecord
  2
DASHDOTX2
 70
    0
  3
Dash dot (2x) ____  .  ____  .  ____  .  ___
 72
   65
 73
    4
 40
50.8
 49
25.4
 74
    0
 49
-12.7
 74
    0
 49
0
 74
    0
 49
-12.7
 74
    0
  0
LTYPE
  5
3E
330
5
100
AcDbSymbolTableRecord
100
AcDbLinetypeTableRecord
  2
DIVIDE
 70
    0
  3
Divide ____ . . ____ . . ____ . . ____ . . ____
 72
   65
 73
    6
 40
31.75
 49
12.7
 74
    0
 49
-6.35
 74
    0
 49
0
 74
    0
 49
-6.35
 74
    0
 49
0
 74
    0
 49
-6.35
 74
    0
  0
LTYPE
  5
3F
330
5
100
AcDbSymbolTableRecord
100
AcDbLinetypeTableRecord
  2
DIVIDETINY
 70
    0
  3
Divide (.15x) __..__..__..__..__..__..__..__.._
 72
   65
 73
    6
 40
4.7625
 49
1.905
 74
    0
 49
-0.9525
 74
    0
 49
0
 74
    0
 49
-0.9525
 74
    0
 49
0
 74
    0
 49
-0.9525
 74
    0
  0
LTYPE
  5
40
330
5
100
AcDbSymbolTableRecord
100
AcDbLinetypeTableRecord
  2
DIVIDE2
 70
    0
  3
Divide (.5x) __..__..__..__..__..__..__..__.._
 72
   65
 73
    6
 40
15.875
 49
6.35
 74
    0
 49
-3.175
 74
    0
 49
0
 74
    0
 49
-3.175
 74
    0
 49
0
 74
    0
 49
-3.175
 74
    0
  0
LTYPE
  5
41
330
5
100
AcDbSymbolTableRecord
100
AcDbLinetypeTableRecord
  2
DIVIDEX2
 70
    0
  3
Divide (2x) ________  .  .  ________  .  .  _
 72
   65
 73
    6
 40
63.5
 49
25.4
 74
    0
 49
-12.7
 74
    0
 49
0
 74
    0
 49
-12.7
 74
    0
 49
0
 74
    0
 49
-12.7
 74
    0
  0
LTYPE
  5
42
330
5
100
AcDbSymbolTableRecord
100
AcDbLinetypeTableRecord
  2
BORDER
 70
    0
  3
Border __ __ . __ __ . __ __ . __ __ . __ __ .
 72
   65
 73
    6
 40
44.45
 49
12.7
 74
    0
 49
-6.35
 74
    0
 49
12.7
 74
    0
 49
-6.35
 74
    0
 49
0
 74
    0
 49
-6.35
 74
    0
  0
LTYPE
  5
43
330
5
100
AcDbSymbolTableRecord
100
AcDbLinetypeTableRecord
  2
BORDERTINY
 70
    0
  3
Border (.15x) __.__.__.__.__.__.__.__.__.__.__.
 72
   65
 73
    6
 40
6.6675
 49
1.905
 74
    0
 49
-0.9525
 74
    0
 49
1.905
 74
    0
 49
-0.9525
 74
    0
 49
0
 74
    0
 49
-0.9525
 74
    0
  0
LTYPE
  5
44
330
5
100
AcDbSymbolTableRecord
100
AcDbLinetypeTableRecord
  2
BORDER2
 70
    0
  3
Border (.5x) __.__.__.__.__.__.__.__.__.__.__.
 72
   65
 73
    6
 40
22.225
 49
6.35
 74
    0
 49
-3.175
 74
    0
 49
6.35
 74
    0
 49
-3.175
 74
    0
 49
0
 74
    0
 49
-3.175
 74
    0
  0
LTYPE
  5
45
330
5
100
AcDbSymbolTableRecord
100
AcDbLinetypeTableRecord
  2
BORDERX2
 70
    0
  3
Border (2x) ____  ____  .  ____  ____  .  ___
 72
   65
 73
    6
 40
88.89999999999999
 49
25.4
 74
    0
 49
-12.7
 74
    0
 49
25.4
 74
    0
 49
-12.7
 74
    0
 49
0
 74
    0
 49
-12.7
 74
    0
  0
LTYPE
  5
46
330
5
100
AcDbSymbolTableRecord
100
AcDbLinetypeTableRecord
  2
CENTER
 70
    0
  3
Center ____ _ ____ _ ____ _ ____ _ ____ _ ____
 72
   65
 73
    4
 40
50.8
 49
31.75
 74
    0
 49
-6.35
 74
    0
 49
6.35
 74
    0
 49
-6.35
 74
    0
  0
LTYPE
  5
47
330
5
100
AcDbSymbolTableRecord
100
AcDbLinetypeTableRecord
  2
CENTERTINY
 70
    0
  3
Center (.15x) ___ _ ___ _ ___ _ ___ _ ___ _ ___
 72
   65
 73
    4
 40
7.619999999999999
 49
4.7625
 74
    0
 49
-0.9525
 74
    0
 49
0.9525
 74
    0
 49
-0.9525
 74
    0
  0
LTYPE
  5
48
330
5
100
AcDbSymbolTableRecord
100
AcDbLinetypeTableRecord
  2
CENTER2
 70
    0
  3
Center (.5x) ___ _ ___ _ ___ _ ___ _ ___ _ ___
 72
   65
 73
    4
 40
28.575
 49
19.05
 74
    0
 49
-3.175
 74
    0
 49
3.175
 74
    0
 49
-3.175
 74
    0
  0
LTYPE
  5
49
330
5
100
AcDbSymbolTableRecord
100
AcDbLinetypeTableRecord
  2
CENTERX2
 70
    0
  3
Center (2x) ________  __  ________  __  _____
 72
   65
 73
    4
 40
101.6
 49
63.5
 74
    0
 49
-12.7
 74
    0
 49
12.7
 74
    0
 49
-12.7
 74
    0
  0
ENDTAB
  0
TABLE
  2
LAYER
  5
2
330
0
100
AcDbSymbolTable
 70
    1
  0
LAYER
  5
10
330
2
100
AcDbSymbolTableRecord
100
AcDbLayerTableRecord
  2
0
 70
    0
 62
    7
  6
CONTINUOUS
370
   -3
390
F
  0
ENDTAB
  0
TABLE
  2
STYLE
  5
3
330
0
100
AcDbSymbolTable
 70
    3
  0
STYLE
  5
4A
330
2
100
AcDbSymbolTableRecord
100
AcDbTextStyleTableRecord
  2
Standard
 70
    0
 40
0
 41
1
 50
0
 71
    0
 42
1
  3
txt
  4

  0
ENDTAB
  0
TABLE
  2
VIEW
  5
6
330
0
100
AcDbSymbolTable
 70
    0
  0
ENDTAB
  0
TABLE
  2
UCS
  5
7
330
0
100
AcDbSymbolTable
 70
    0
  0
ENDTAB
  0
TABLE
  2
APPID
  5
9
330
0
100
AcDbSymbolTable
 70
    1
  0
APPID
  5
12
330
9
100
AcDbSymbolTableRecord
100
AcDbRegAppTableRecord
  2
ACAD
 70
    0
  0
APPID
  5
4B
330
9
100
AcDbSymbolTableRecord
100
AcDbRegAppTableRecord
  2
LibreCad
 70
    0
  0
ENDTAB
  0
TABLE
  2
DIMSTYLE
  5
A
330
0
100
AcDbSymbolTable
 70
    1
100
AcDbDimStyleTable
 71
    1
  0
DIMSTYLE
105
4C
330
A
100
AcDbSymbolTableRecord
100
AcDbDimStyleTableRecord
  2
Standard
 70
    0
 40
1
 41
2.5
 42
0.625
 43
0.38
 44
1.25
 45
0
 46
0
 47
0
 48
0
 49
1
140
2.5
141
0.09
142
0
143
25.4
144
1
145
0
146
1
147
0.625
148
0
 71
    0
 72
    0
 73
    0
 74
    1
 75
    0
 76
    0
 77
    0
 78
    1
 79
    0
170
    0
171
    2
172
    0
173
    0
174
    0
175
    0
176
    0
177
    0
178
    0
179
    0
271
    2
272
    4
273
    2
274
    2
275
    0
276
    0
277
    2
278
    0
279
    0
280
    0
281
    0
282
    0
283
    1
284
    0
285
    0
286
    0
288
    0
289
    3
340
standard
341

371
   -2
372
   -2
  0
ENDTAB
  0
TABLE
  2
BLOCK_RECORD
  5
1
330
0
100
AcDbSymbolTable
 70
    2
  0
BLOCK_RECORD
  5
1F
330
1
100
AcDbSymbolTableRecord
100
AcDbBlockTableRecord
  2
*Model_Space
 70
    0
280
    1
281
    0
  0
BLOCK_RECORD
  5
1E
330
1
100
AcDbSymbolTableRecord
100
AcDbBlockTableRecord
  2
*Paper_Space
 70
    0
280
    1
281
    0
  0
ENDTAB
  0
ENDSEC
  0
SECTION
  2
BLOCKS
  0
BLOCK
  5
20
330
1F
100
AcDbEntity
  8
0
100
AcDbBlockBegin
  2
*Model_Space
 70
    0
 10
0
 20
0
 30
0
  3
*Model_Space
  1

  0
ENDBLK
  5
21
330
1F
100
AcDbEntity
  8
0
100
AcDbBlockEnd
  0
BLOCK
  5
1C
330
1B
100
AcDbEntity
  8
0
100
AcDbBlockBegin
  2
*Paper_Space
 70
    0
 10
0
 20
0
 30
0
  3
*Paper_Space
  1

  0
ENDBLK
  5
1D
330
1F
100
AcDbEntity
  8
0
100
AcDbBlockEnd
  0
ENDSEC
  0
SECTION
  2
ENTITIES
  0
SPLINE
  5
4D
100
AcDbEntity
  8
0
  6
ByLayer
 62
    7
370
   -1
100
AcDbSpline
210
0
220
0
230
0
 70
    8
 71
    3
 72
    8
 73
    4
 74
    0
 42
1e-07
 43
1e-07
 40
0
 40
0
 40
0
 40
0
 40
1
 40
1
 40
1
 40
1
 10
38.9172222
 20
53.51477779999999
 30
0
 10
38.86077779999999
 20
53.4265833
 30
0
 10
38.8113889
 20
53.33486110000001
 30
0
 10
38.8113889
 20
53.3066389
 30
0
  0
SPLINE
  5
4E
100
AcDbEntity
  8
0
  6
ByLayer
 62
    7
370
   -1
100
AcDbSpline
210
0
220
0
230
0
 70
    8
 71
    3
 72
    8
 73
    4
 74
    0
 42
1e-07
 43
1e-07
 40
0
 40
0
 40
0
 40
0
 40
1
 40
1
 40
1
 40
1
 10
38.8113889
 20
53.3066389
 30
0
 10
38.8113889
 20
53.28194439999999
 30
0
 10
38.8748889
 20
53.2078611
 30
0
 10
38.95249999999999
 20
53.1478889
 30
0
  0
SPLINE
  5
4F
100
AcDbEntity
  8
0
  6
ByLayer
 62
    7
370
   -1
100
AcDbSpline
210
0
220
0
230
0
 70
    8
 71
    3
 72
    8
 73
    4
 74
    0
 42
1e-07
 43
1e-07
 40
0
 40
0
 40
0
 40
0
 40
1
 40
1
 40
1
 40
1
 10
38.95249999999999
 20
53.1478889
 30
0
 10
39.15358330000001
 20
52.9820833
 30
0
 10
39.3723056
 20
52.6575278
 30
0
 10
39.66863889999999
 20
52.07897220000001
 30
0
  0
SPLINE
  5
50
100
AcDbEntity
  8
0
  6
ByLayer
 62
    7
370
   -1
100
AcDbSpline
210
0
220
0
230
0
 70
    8
 71
    3
 72
    8
 73
    4
 74
    0
 42
1e-07
 43
1e-07
 40
0
 40
0
 40
0
 40
0
 40
1
 40
1
 40
1
 40
1
 10
39.66863889999999
 20
52.07897220000001
 30
0
 10
40.35655560000001
 20
50.72783329999999
 30
0
 10
40.7798889
 20
49.41902780000001
 30
0
 10
41.17500000000001
 20
47.42230560000002
 30
0
  0
SPLINE
  5
51
100
AcDbEntity
  8
0
  6
ByLayer
 62
    7
370
   -1
100
AcDbSpline
210
0
220
0
230
0
 70
    8
 71
    3
 72
    8
 73
    4
 74
    0
 42
1e-07
 43
1e-07
 40
0
 40
0
 40
0
 40
0
 40
1
 40
1
 40
1
 40
1
 10
41.17500000000001
 20
47.42230560000002
 30
0
 10
41.2737778
 20
46.93547219999999
 30
0
 10
41.35138889999999
 20
46.53683330000001
 30
0
 10
41.35138889999999
 20
46.53330560000001
 30
0
  0
SPLINE
  5
52
100
AcDbEntity
  8
0
  6
ByLayer
 62
    7
370
   -1
100
AcDbSpline
210
0
220
0
230
0
 70
    8
 71
    3
 72
    8
 73
    4
 74
    0
 42
1e-07
 43
1e-07
 40
0
 40
0
 40
0
 40
0
 40
1
 40
1
 40
1
 40
1
 10
41.35138889999999
 20
46.53330560000001
 30
0
 10
41.35138889999999
 20
46.52977780000001
 30
0
 10
41.28083330000001
 20
46.52977780000001
 30
0
 10
41.19263889999999
 20
46.53683330000001
 30
0
  0
SPLINE
  5
53
100
AcDbEntity
  8
0
  6
ByLayer
 62
    7
370
   -1
100
AcDbSpline
210
0
220
0
230
0
 70
    8
 71
    3
 72
    8
 73
    4
 74
    0
 42
1e-07
 43
1e-07
 40
0
 40
0
 40
0
 40
0
 40
1
 40
1
 40
1
 40
1
 10
41.19263889999999
 20
46.53683330000001
 30
0
 10
41.0973889
 20
46.54741669999999
 30
0
 10
40.9351111
 20
46.5227222
 30
0
 10
40.79399999999998
 20
46.47686110000001
 30
0
  0
SPLINE
  5
54
100
AcDbEntity
  8
0
  6
ByLayer
 62
    7
370
   -1
100
AcDbSpline
210
0
220
0
230
0
 70
    8
 71
    3
 72
    8
 73
    4
 74
    0
 42
1e-07
 43
1e-07
 40
0
 40
0
 40
0
 40
0
 40
1
 40
1
 40
1
 40
1
 10
40.79399999999998
 20
46.47686110000001
 30
0
 10
39.6792222
 20
46.1381944
 30
0
 10
38.58208329999999
 20
44.38488889999999
 30
0
 10
38.19402780000001
 20
42.31055559999999
 30
0
  0
SPLINE
  5
55
100
AcDbEntity
  8
0
  6
ByLayer
 62
    7
370
   -1
100
AcDbSpline
210
0
220
0
230
0
 70
    8
 71
    3
 72
    8
 73
    4
 74
    0
 42
1e-07
 43
1e-07
 40
0
 40
0
 40
0
 40
0
 40
1
 40
1
 40
1
 40
1
 10
38.19402780000001
 20
42.31055559999999
 30
0
 10
38.0493889
 20
41.54149999999998
 30
0
 10
37.9365
 20
40.0527778
 30
0
 10
38.02469439999999
 20
40.0527778
 30
0
  0
SPLINE
  5
56
100
AcDbEntity
  8
0
  6
ByLayer
 62
    7
370
   -1
100
AcDbSpline
210
0
220
0
230
0
 70
    8
 71
    3
 72
    8
 73
    4
 74
    0
 42
1e-07
 43
1e-07
 40
0
 40
0
 40
0
 40
0
 40
1
 40
1
 40
1
 40
1
 10
38.02469439999999
 20
40.0527778
 30
0
 10
38.07761110000001
 20
40.0527778
 30
0
 10
38.44450000000001
 20
40.45141670000001
 30
0
 10
38.74436109999999
 20
40.82888890000001
 30
0
  0
SPLINE
  5
57
100
AcDbEntity
  8
0
  6
ByLayer
 62
    7
370
   -1
100
AcDbSpline
210
0
220
0
230
0
 70
    8
 71
    3
 72
    8
 73
    4
 74
    0
 42
1e-07
 43
1e-07
 40
0
 40
0
 40
0
 40
0
 40
1
 40
1
 40
1
 40
1
 10
38.74436109999999
 20
40.82888890000001
 30
0
 10
40.08844440000001
 20
42.53280559999999
 30
0
 10
41.2631944
 20
44.68122220000001
 30
0
 10
41.49250000000001
 20
45.8665556
 30
0
  0
SPLINE
  5
58
100
AcDbEntity
  8
0
  6
ByLayer
 62
    7
370
   -1
100
AcDbSpline
210
0
220
0
230
0
 70
    8
 71
    3
 72
    8
 73
    4
 74
    0
 42
1e-07
 43
1e-07
 40
0
 40
0
 40
0
 40
0
 40
1
 40
1
 40
1
 40
1
 10
41.49250000000001
 20
45.8665556
 30
0
 10
41.51719439999999
 20
45.98650000000001
 30
0
 10
41.5454167
 20
46.0852778
 30
0
 10
41.55952780000001
 20
46.08175
 30
0
  0
SPLINE
  5
59
100
AcDbEntity
  8
0
  6
ByLayer
 62
    7
370
   -1
100
AcDbSpline
210
0
220
0
230
0
 70
    8
 71
    3
 72
    8
 73
    4
 74
    0
 42
1e-07
 43
1e-07
 40
0
 40
0
 40
0
 40
0
 40
1
 40
1
 40
1
 40
1
 10
41.55952780000001
 20
46.08175
 30
0
 10
41.5806944
 20
46.08175
 30
0
 10
41.79941669999999
 20
45.7536667
 30
0
 10
42.04636110000001
 20
45.35149999999999
 30
0
  0
SPLINE
  5
5A
100
AcDbEntity
  8
0
  6
ByLayer
 62
    7
370
   -1
100
AcDbSpline
210
0
220
0
230
0
 70
    8
 71
    3
 72
    8
 73
    4
 74
    0
 42
1e-07
 43
1e-07
 40
0
 40
0
 40
0
 40
0
 40
1
 40
1
 40
1
 40
1
 10
42.04636110000001
 20
45.35149999999999
 30
0
 10
42.15219439999998
 20
45.18216670000001
 30
0
 10
42.44147219999999
 20
44.54363889999999
 30
0
 10
42.49438889999999
 20
44.37430560000001
 30
0
  0
SPLINE
  5
5B
100
AcDbEntity
  8
0
  6
ByLayer
 62
    7
370
   -1
100
AcDbSpline
210
0
220
0
230
0
 70
    8
 71
    3
 72
    8
 73
    4
 74
    0
 42
1e-07
 43
1e-07
 40
0
 40
0
 40
0
 40
0
 40
1
 40
1
 40
1
 40
1
 10
42.49438889999999
 20
44.37430560000001
 30
0
 10
42.5120278
 20
44.31080560000001
 30
0
 10
42.49791669999999
 20
44.30375000000001
 30
0
 10
42.2933056
 20
44.30375000000001
 30
0
  0
SPLINE
  5
5C
100
AcDbEntity
  8
0
  6
ByLayer
 62
    7
370
   -1
100
AcDbSpline
210
0
220
0
230
0
 70
    8
 71
    3
 72
    8
 73
    4
 74
    0
 42
1e-07
 43
1e-07
 40
0
 40
0
 40
0
 40
0
 40
1
 40
1
 40
1
 40
1
 10
42.2933056
 20
44.30375000000001
 30
0
 10
41.27730560000001
 20
44.29669440000001
 30
0
 10
40.1307778
 20
42.91027779999999
 30
0
 10
39.5698611
 20
41.01233329999999
 30
0
  0
SPLINE
  5
5D
100
AcDbEntity
  8
0
  6
ByLayer
 62
    7
370
   -1
100
AcDbSpline
210
0
220
0
230
0
 70
    8
 71
    3
 72
    8
 73
    4
 74
    0
 42
1e-07
 43
1e-07
 40
0
 40
0
 40
0
 40
0
 40
1
 40
1
 40
1
 40
1
 10
39.5698611
 20
41.01233329999999
 30
0
 10
39.4181667
 20
40.49022220000001
 30
0
 10
39.28763889999999
 20
39.84463890000001
 30
0
 10
39.21708330000001
 20
39.25902780000001
 30
0
  0
SPLINE
  5
5E
100
AcDbEntity
  8
0
  6
ByLayer
 62
    7
370
   -1
100
AcDbSpline
210
0
220
0
230
0
 70
    8
 71
    3
 72
    8
 73
    4
 74
    0
 42
1e-07
 43
1e-07
 40
0
 40
0
 40
0
 40
0
 40
1
 40
1
 40
1
 40
1
 10
39.21708330000001
 20
39.25902780000001
 30
0
 10
39.16063890000001
 20
38.77572219999999
 30
0
 10
39.143
 20
37.8302778
 30
0
 10
39.1923889
 20
37.8302778
 30
0
  0
SPLINE
  5
5F
100
AcDbEntity
  8
0
  6
ByLayer
 62
    7
370
   -1
100
AcDbSpline
210
0
220
0
230
0
 70
    8
 71
    3
 72
    8
 73
    4
 74
    0
 42
1e-07
 43
1e-07
 40
0
 40
0
 40
0
 40
0
 40
1
 40
1
 40
1
 40
1
 10
39.1923889
 20
37.8302778
 30
0
 10
39.23472219999999
 20
37.8302778
 30
0
 10
39.5169444
 20
38.13366669999999
 30
0
 10
39.7956389
 20
38.4758611
 30
0
  0
SPLINE
  5
60
100
AcDbEntity
  8
0
  6
ByLayer
 62
    7
370
   -1
100
AcDbSpline
210
0
220
0
230
0
 70
    8
 71
    3
 72
    8
 73
    4
 74
    0
 42
1e-07
 43
1e-07
 40
0
 40
0
 40
0
 40
0
 40
1
 40
1
 40
1
 40
1
 10
39.7956389
 20
38.4758611
 30
0
 10
39.93322219999999
 20
38.64872220000001
 30
0
 10
40.04611109999999
 20
38.77572219999999
 30
0
 10
40.04611109999999
 20
38.75808330000001
 30
0
  0
SPLINE
  5
61
100
AcDbEntity
  8
0
  6
ByLayer
 62
    7
370
   -1
100
AcDbSpline
210
0
220
0
230
0
 70
    8
 71
    3
 72
    8
 73
    4
 74
    0
 42
1e-07
 43
1e-07
 40
0
 40
0
 40
0
 40
0
 40
1
 40
1
 40
1
 40
1
 10
40.04611109999999
 20
38.75808330000001
 30
0
 10
40.04611109999999
 20
38.7439722
 30
0
 10
40.0143611
 20
38.56405559999999
 30
0
 10
39.97555560000001
 20
38.3594444
 30
0
  0
SPLINE
  5
62
100
AcDbEntity
  8
0
  6
ByLayer
 62
    7
370
   -1
100
AcDbSpline
210
0
220
0
230
0
 70
    8
 71
    3
 72
    8
 73
    4
 74
    0
 42
1e-07
 43
1e-07
 40
0
 40
0
 40
0
 40
0
 40
1
 40
1
 40
1
 40
1
 10
39.97555560000001
 20
38.3594444
 30
0
 10
39.93322219999999
 20
38.15836110000001
 30
0
 10
39.88030559999999
 20
37.78441669999999
 30
0
 10
39.8520833
 20
37.5304167
 30
0
  0
SPLINE
  5
63
100
AcDbEntity
  8
0
  6
ByLayer
 62
    7
370
   -1
100
AcDbSpline
210
0
220
0
230
0
 70
    8
 71
    3
 72
    8
 73
    4
 74
    0
 42
1e-07
 43
1e-07
 40
0
 40
0
 40
0
 40
0
 40
1
 40
1
 40
1
 40
1
 10
39.8520833
 20
37.5304167
 30
0
 10
39.7956389
 20
37.0400556
 30
0
 10
39.78152779999999
 20
36.1369444
 30
0
 10
39.82738889999999
 20
36.1369444
 30
0
  0
SPLINE
  5
64
100
AcDbEntity
  8
0
  6
ByLayer
 62
    7
370
   -1
100
AcDbSpline
210
0
220
0
230
0
 70
    8
 71
    3
 72
    8
 73
    4
 74
    0
 42
1e-07
 43
1e-07
 40
0
 40
0
 40
0
 40
0
 40
1
 40
1
 40
1
 40
1
 10
39.82738889999999
 20
36.1369444
 30
0
 10
39.8979444
 20
36.1369444
 30
0
 10
40.3883056
 20
36.7084444
 30
0
 10
40.85749999999999
 20
37.3363889
 30
0
  0
SPLINE
  5
65
100
AcDbEntity
  8
0
  6
ByLayer
 62
    7
370
   -1
100
AcDbSpline
210
0
220
0
230
0
 70
    8
 71
    3
 72
    8
 73
    4
 74
    0
 42
1e-07
 43
1e-07
 40
0
 40
0
 40
0
 40
0
 40
1
 40
1
 40
1
 40
1
 10
40.85749999999999
 20
37.3363889
 30
0
 10
41.6477222
 20
38.39824999999999
 30
0
 10
42.43441669999999
 20
39.70705559999999
 30
0
 10
42.83305559999999
 20
40.61369439999999
 30
0
  0
SPLINE
  5
66
100
AcDbEntity
  8
0
  6
ByLayer
 62
    7
370
   -1
100
AcDbSpline
210
0
220
0
230
0
 70
    8
 71
    3
 72
    8
 73
    4
 74
    0
 42
1e-07
 43
1e-07
 40
0
 40
0
 40
0
 40
0
 40
1
 40
1
 40
1
 40
1
 10
42.83305559999999
 20
40.61369439999999
 30
0
 10
43.00944440000001
 20
41.0193889
 30
0
 10
43.23875000000001
 20
41.6755556
 30
0
 10
43.2740278
 20
41.88016669999999
 30
0
  0
SPLINE
  5
67
100
AcDbEntity
  8
0
  6
ByLayer
 62
    7
370
   -1
100
AcDbSpline
210
0
220
0
230
0
 70
    8
 71
    3
 72
    8
 73
    4
 74
    0
 42
1e-07
 43
1e-07
 40
0
 40
0
 40
0
 40
0
 40
1
 40
1
 40
1
 40
1
 10
43.2740278
 20
41.88016669999999
 30
0
 10
43.28813890000001
 20
41.9613056
 30
0
 10
43.30930559999999
 20
42.02833329999999
 30
0
 10
43.3269444
 20
42.02833329999999
 30
0
  0
SPLINE
  5
68
100
AcDbEntity
  8
0
  6
ByLayer
 62
    7
370
   -1
100
AcDbSpline
210
0
220
0
230
0
 70
    8
 71
    3
 72
    8
 73
    4
 74
    0
 42
1e-07
 43
1e-07
 40
0
 40
0
 40
0
 40
0
 40
1
 40
1
 40
1
 40
1
 10
43.3269444
 20
42.02833329999999
 30
0
 10
43.3410556
 20
42.02833329999999
 30
0
 10
43.39750000000001
 20
41.92250000000001
 30
0
 10
43.45394440000001
 20
41.7955
 30
0
  0
SPLINE
  5
69
100
AcDbEntity
  8
0
  6
ByLayer
 62
    7
370
   -1
100
AcDbSpline
210
0
220
0
230
0
 70
    8
 71
    3
 72
    8
 73
    4
 74
    0
 42
1e-07
 43
1e-07
 40
0
 40
0
 40
0
 40
0
 40
1
 40
1
 40
1
 40
1
 10
43.45394440000001
 20
41.7955
 30
0
 10
43.50686110000001
 20
41.66849999999999
 30
0
 10
43.62680560000001
 20
41.45330559999999
 30
0
 10
43.7220556
 20
41.31925000000001
 30
0
  0
SPLINE
  5
6A
100
AcDbEntity
  8
0
  6
ByLayer
 62
    7
370
   -1
100
AcDbSpline
210
0
220
0
230
0
 70
    8
 71
    3
 72
    8
 73
    4
 74
    0
 42
1e-07
 43
1e-07
 40
0
 40
0
 40
0
 40
0
 40
1
 40
1
 40
1
 40
1
 10
43.7220556
 20
41.31925000000001
 30
0
 10
43.86316669999999
 20
41.11111109999999
 30
0
 10
43.8808056
 20
41.06877779999999
 30
0
 10
43.8278889
 20
41.05466670000001
 30
0
  0
SPLINE
  5
6B
100
AcDbEntity
  8
0
  6
ByLayer
 62
    7
370
   -1
100
AcDbSpline
210
0
220
0
230
0
 70
    8
 71
    3
 72
    8
 73
    4
 74
    0
 42
1e-07
 43
1e-07
 40
0
 40
0
 40
0
 40
0
 40
1
 40
1
 40
1
 40
1
 10
43.8278889
 20
41.05466670000001
 30
0
 10
43.4962778
 20
40.95588889999999
 30
0
 10
43.18230560000001
 20
40.6454444
 30
0
 10
42.97769439999999
 20
40.2150556
 30
0
  0
SPLINE
  5
6C
100
AcDbEntity
  8
0
  6
ByLayer
 62
    7
370
   -1
100
AcDbSpline
210
0
220
0
230
0
 70
    8
 71
    3
 72
    8
 73
    4
 74
    0
 42
1e-07
 43
1e-07
 40
0
 40
0
 40
0
 40
0
 40
1
 40
1
 40
1
 40
1
 10
42.97769439999999
 20
40.2150556
 30
0
 10
42.3074167
 20
38.80394440000001
 30
0
 10
42.61080559999999
 20
36.398
 30
0
 10
43.73969439999999
 20
34.14375
 30
0
  0
SPLINE
  5
6D
100
AcDbEntity
  8
0
  6
ByLayer
 62
    7
370
   -1
100
AcDbSpline
210
0
220
0
230
0
 70
    8
 71
    3
 72
    8
 73
    4
 74
    0
 42
1e-07
 43
1e-07
 40
0
 40
0
 40
0
 40
0
 40
1
 40
1
 40
1
 40
1
 10
43.73969439999999
 20
34.14375
 30
0
 10
43.85611109999999
 20
33.91797219999999
 30
0
 10
43.8666944
 20
33.9038611
 30
0
 10
43.91255559999999
 20
33.96736110000001
 30
0
  0
SPLINE
  5
6E
100
AcDbEntity
  8
0
  6
ByLayer
 62
    7
370
   -1
100
AcDbSpline
210
0
220
0
230
0
 70
    8
 71
    3
 72
    8
 73
    4
 74
    0
 42
1e-07
 43
1e-07
 40
0
 40
0
 40
0
 40
0
 40
1
 40
1
 40
1
 40
1
 10
43.91255559999999
 20
33.96736110000001
 30
0
 10
43.9831111
 20
34.0626111
 30
0
 10
44.0854167
 20
34.4189167
 30
0
 10
44.1877222
 20
34.9375
 30
0
  0
SPLINE
  5
6F
100
AcDbEntity
  8
0
  6
ByLayer
 62
    7
370
   -1
100
AcDbSpline
210
0
220
0
230
0
 70
    8
 71
    3
 72
    8
 73
    4
 74
    0
 42
1e-07
 43
1e-07
 40
0
 40
0
 40
0
 40
0
 40
1
 40
1
 40
1
 40
1
 10
44.1877222
 20
34.9375
 30
0
 10
44.29002779999999
 20
35.4313889
 30
0
 10
44.4205556
 20
36.2992222
 30
0
 10
44.4205556
 20
36.4579722
 30
0
  0
SPLINE
  5
70
100
AcDbEntity
  8
0
  6
ByLayer
 62
    7
370
   -1
100
AcDbSpline
210
0
220
0
230
0
 70
    8
 71
    3
 72
    8
 73
    4
 74
    0
 42
1e-07
 43
1e-07
 40
0
 40
0
 40
0
 40
0
 40
1
 40
1
 40
1
 40
1
 10
44.4205556
 20
36.4579722
 30
0
 10
44.4205556
 20
36.63083330000001
 30
0
 10
44.4699444
 20
36.5743889
 30
0
 10
44.53697220000001
 20
36.3239167
 30
0
  0
SPLINE
  5
71
100
AcDbEntity
  8
0
  6
ByLayer
 62
    7
370
   -1
100
AcDbSpline
210
0
220
0
230
0
 70
    8
 71
    3
 72
    8
 73
    4
 74
    0
 42
1e-07
 43
1e-07
 40
0
 40
0
 40
0
 40
0
 40
1
 40
1
 40
1
 40
1
 10
44.53697220000001
 20
36.3239167
 30
0
 10
44.7874444
 20
35.3714167
 30
0
 10
45.52122220000001
 20
34.0626111
 30
0
 10
46.41727779999999
 20
32.9795833
 30
0
  0
SPLINE
  5
72
100
AcDbEntity
  8
0
  6
ByLayer
 62
    7
370
   -1
100
AcDbSpline
210
0
220
0
230
0
 70
    8
 71
    3
 72
    8
 73
    4
 74
    0
 42
1e-07
 43
1e-07
 40
0
 40
0
 40
0
 40
0
 40
1
 40
1
 40
1
 40
1
 10
46.41727779999999
 20
32.9795833
 30
0
 10
46.9182222
 20
32.37280560000001
 30
0
 10
46.98877780000001
 20
32.30225
 30
0
 10
47.0311111
 20
32.36222220000001
 30
0
  0
SPLINE
  5
73
100
AcDbEntity
  8
0
  6
ByLayer
 62
    7
370
   -1
100
AcDbSpline
210
0
220
0
230
0
 70
    8
 71
    3
 72
    8
 73
    4
 74
    0
 42
1e-07
 43
1e-07
 40
0
 40
0
 40
0
 40
0
 40
1
 40
1
 40
1
 40
1
 10
47.0311111
 20
32.36222220000001
 30
0
 10
47.0805
 20
32.4398333
 30
0
 10
47.0734444
 20
33.0571944
 30
0
 10
47.0134722
 20
33.6286944
 30
0
  0
SPLINE
  5
74
100
AcDbEntity
  8
0
  6
ByLayer
 62
    7
370
   -1
100
AcDbSpline
210
0
220
0
230
0
 70
    8
 71
    3
 72
    8
 73
    4
 74
    0
 42
1e-07
 43
1e-07
 40
0
 40
0
 40
0
 40
0
 40
1
 40
1
 40
1
 40
1
 10
47.0134722
 20
33.6286944
 30
0
 10
46.8053333
 20
35.5901389
 30
0
 10
46.3220278
 20
37.4386944
 30
0
 10
45.70466669999999
 20
38.60638890000001
 30
0
  0
SPLINE
  5
75
100
AcDbEntity
  8
0
  6
ByLayer
 62
    7
370
   -1
100
AcDbSpline
210
0
220
0
230
0
 70
    8
 71
    3
 72
    8
 73
    4
 74
    0
 42
1e-07
 43
1e-07
 40
0
 40
0
 40
0
 40
0
 40
1
 40
1
 40
1
 40
1
 10
46.90763889999999
 20
37.29405560000001
 30
0
 10
46.60777780000001
 20
37.033
 30
0
 10
46.5478056
 20
36.56380559999999
 30
0
 10
46.7418333
 20
35.98877779999999
 30
0
  0
SPLINE
  5
76
100
AcDbEntity
  8
0
  6
ByLayer
 62
    7
370
   -1
100
AcDbSpline
210
0
220
0
230
0
 70
    8
 71
    3
 72
    8
 73
    4
 74
    0
 42
1e-07
 43
1e-07
 40
0
 40
0
 40
0
 40
0
 40
1
 40
1
 40
1
 40
1
 10
46.7418333
 20
35.98877779999999
 30
0
 10
47.18280559999999
 20
34.6729167
 30
0
 10
48.72444440000001
 20
33.24416669999999
 30
0
 10
50.84463890000001
 20
32.17877780000001
 30
0
  0
LWPOLYLINE
  5
77
100
AcDbEntity
  8
0
  6
ByLayer
 62
    7
370
   -1
100
AcDbPolyline
 90
    5
 70
    0
 43
0
 10
45.70466669999999
 20
38.60638890000001
 10
45.54591669999999
 20
38.90625
 10
46.29380560000001
 20
38.15836110000001
 10
47.04169440000001
 20
37.414
 10
46.90763889999999
 20
37.29405560000001
  0
SPLINE
  5
78
100
AcDbEntity
  8
0
  6
ByLayer
 62
    7
370
   -1
100
AcDbSpline
210
0
220
0
230
0
 70
    8
 71
    3
 72
    8
 73
    4
 74
    0
 42
1e-07
 43
1e-07
 40
0
 40
0
 40
0
 40
0
 40
1
 40
1
 40
1
 40
1
 10
51.45847219999999
 20
31.7378056
 30
0
 10
51.67013890000001
 20
31.17688889999999
 30
0
 10
52.10052780000001
 20
30.4572222
 30
0
 10
52.60499999999999
 20
29.8222222
 30
0
  0
SPLINE
  5
79
100
AcDbEntity
  8
0
  6
ByLayer
 62
    7
370
   -1
100
AcDbSpline
210
0
220
0
230
0
 70
    8
 71
    3
 72
    8
 73
    4
 74
    0
 42
1e-07
 43
1e-07
 40
0
 40
0
 40
0
 40
0
 40
1
 40
1
 40
1
 40
1
 10
52.60499999999999
 20
29.8222222
 30
0
 10
52.9471944
 20
29.3918333
 30
0
 10
53.75505559999999
 20
28.5733889
 30
0
 10
53.80444439999999
 20
28.6051389
 30
0
  0
SPLINE
  5
7A
100
AcDbEntity
  8
0
  6
ByLayer
 62
    7
370
   -1
100
AcDbSpline
210
0
220
0
230
0
 70
    8
 71
    3
 72
    8
 73
    4
 74
    0
 42
1e-07
 43
1e-07
 40
0
 40
0
 40
0
 40
0
 40
1
 40
1
 40
1
 40
1
 10
53.80444439999999
 20
28.6051389
 30
0
 10
53.86088889999999
 20
28.6404167
 30
0
 10
53.84677780000001
 20
28.8661944
 30
0
 10
53.75152779999999
 20
29.4094722
 30
0
  0
SPLINE
  5
7B
100
AcDbEntity
  8
0
  6
ByLayer
 62
    7
370
   -1
100
AcDbSpline
210
0
220
0
230
0
 70
    8
 71
    3
 72
    8
 73
    4
 74
    0
 42
1e-07
 43
1e-07
 40
0
 40
0
 40
0
 40
0
 40
1
 40
1
 40
1
 40
1
 10
53.75152779999999
 20
29.4094722
 30
0
 10
53.5010556
 20
30.87702779999999
 30
0
 10
52.92602779999999
 20
32.5456667
 30
0
 10
52.36511110000001
 20
33.4487778
 30
0
  0
SPLINE
  5
7C
100
AcDbEntity
  8
0
  6
ByLayer
 62
    7
370
   -1
100
AcDbSpline
210
0
220
0
230
0
 70
    8
 71
    3
 72
    8
 73
    4
 74
    0
 42
1e-07
 43
1e-07
 40
0
 40
0
 40
0
 40
0
 40
1
 40
1
 40
1
 40
1
 10
52.36511110000001
 20
33.4487778
 30
0
 10
52.26633329999999
 20
33.6075278
 30
0
 10
52.1957778
 20
33.7380556
 30
0
 10
52.20636110000001
 20
33.7380556
 30
0
  0
SPLINE
  5
7D
100
AcDbEntity
  8
0
  6
ByLayer
 62
    7
370
   -1
100
AcDbSpline
210
0
220
0
230
0
 70
    8
 71
    3
 72
    8
 73
    4
 74
    0
 42
1e-07
 43
1e-07
 40
0
 40
0
 40
0
 40
0
 40
1
 40
1
 40
1
 40
1
 10
52.20636110000001
 20
33.7380556
 30
0
 10
52.21694439999999
 20
33.7380556
 30
0
 10
52.5132778
 20
33.61811109999999
 30
0
 10
52.86605560000001
 20
33.4699444
 30
0
  0
SPLINE
  5
7E
100
AcDbEntity
  8
0
  6
ByLayer
 62
    7
370
   -1
100
AcDbSpline
210
0
220
0
230
0
 70
    8
 71
    3
 72
    8
 73
    4
 74
    0
 42
1e-07
 43
1e-07
 40
0
 40
0
 40
0
 40
0
 40
1
 40
1
 40
1
 40
1
 10
52.86605560000001
 20
33.4699444
 30
0
 10
53.21530559999999
 20
33.32177780000001
 30
0
 10
53.5398611
 20
33.1877222
 30
0
 10
53.57866669999999
 20
33.1736111
 30
0
  0
SPLINE
  5
7F
100
AcDbEntity
  8
0
  6
ByLayer
 62
    7
370
   -1
100
AcDbSpline
210
0
220
0
230
0
 70
    8
 71
    3
 72
    8
 73
    4
 74
    0
 42
1e-07
 43
1e-07
 40
0
 40
0
 40
0
 40
0
 40
1
 40
1
 40
1
 40
1
 10
53.57866669999999
 20
33.1736111
 30
0
 10
53.65275
 20
33.1418611
 30
0
 10
53.65275
 20
33.1418611
 30
0
 10
53.58924999999999
 20
32.9548889
 30
0
  0
SPLINE
  5
80
100
AcDbEntity
  8
0
  6
ByLayer
 62
    7
370
   -1
100
AcDbSpline
210
0
220
0
230
0
 70
    8
 71
    3
 72
    8
 73
    4
 74
    0
 42
1e-07
 43
1e-07
 40
0
 40
0
 40
0
 40
0
 40
1
 40
1
 40
1
 40
1
 10
53.58924999999999
 20
32.9548889
 30
0
 10
53.20119439999999
 20
31.83305559999999
 30
0
 10
54.5699722
 20
30.0197778
 30
0
 10
56.82775000000001
 20
28.6651111
 30
0
  0
SPLINE
  5
81
100
AcDbEntity
  8
0
  6
ByLayer
 62
    7
370
   -1
100
AcDbSpline
210
0
220
0
230
0
 70
    8
 71
    3
 72
    8
 73
    4
 74
    0
 42
1e-07
 43
1e-07
 40
0
 40
0
 40
0
 40
0
 40
1
 40
1
 40
1
 40
1
 10
56.82775000000001
 20
28.6651111
 30
0
 10
57.43100000000001
 20
28.30175
 30
0
 10
58.57752779999998
 20
27.74083329999999
 30
0
 10
58.7151111
 20
27.74083329999999
 30
0
  0
SPLINE
  5
82
100
AcDbEntity
  8
0
  6
ByLayer
 62
    7
370
   -1
100
AcDbSpline
210
0
220
0
230
0
 70
    8
 71
    3
 72
    8
 73
    4
 74
    0
 42
1e-07
 43
1e-07
 40
0
 40
0
 40
0
 40
0
 40
1
 40
1
 40
1
 40
1
 10
58.7151111
 20
27.74083329999999
 30
0
 10
58.8174167
 20
27.74083329999999
 30
0
 10
58.77861110000001
 20
27.86430559999999
 30
0
 10
58.5457778
 20
28.2876389
 30
0
  0
SPLINE
  5
83
100
AcDbEntity
  8
0
  6
ByLayer
 62
    7
370
   -1
100
AcDbSpline
210
0
220
0
230
0
 70
    8
 71
    3
 72
    8
 73
    4
 74
    0
 42
1e-07
 43
1e-07
 40
0
 40
0
 40
0
 40
0
 40
1
 40
1
 40
1
 40
1
 10
58.5457778
 20
28.2876389
 30
0
 10
57.86844439999999
 20
29.5047222
 30
0
 10
56.3726667
 20
31.4344167
 30
0
 10
55.47661110000001
 20
32.2458056
 30
0
  0
SPLINE
  5
84
100
AcDbEntity
  8
0
  6
ByLayer
 62
    7
370
   -1
100
AcDbSpline
210
0
220
0
230
0
 70
    8
 71
    3
 72
    8
 73
    4
 74
    0
 42
1e-07
 43
1e-07
 40
0
 40
0
 40
0
 40
0
 40
1
 40
1
 40
1
 40
1
 10
55.47661110000001
 20
32.2458056
 30
0
 10
55.3355
 20
32.3763333
 30
0
 10
55.22261109999999
 20
32.4856944
 30
0
 10
55.2261389
 20
32.49275
 30
0
  0
SPLINE
  5
85
100
AcDbEntity
  8
0
  6
ByLayer
 62
    7
370
   -1
100
AcDbSpline
210
0
220
0
230
0
 70
    8
 71
    3
 72
    8
 73
    4
 74
    0
 42
1e-07
 43
1e-07
 40
0
 40
0
 40
0
 40
0
 40
1
 40
1
 40
1
 40
1
 10
55.2261389
 20
32.49275
 30
0
 10
55.2331944
 20
32.4962778
 30
0
 10
55.42016670000001
 20
32.42925
 30
0
 10
55.64241670000001
 20
32.3410556
 30
0
  0
SPLINE
  5
86
100
AcDbEntity
  8
0
  6
ByLayer
 62
    7
370
   -1
100
AcDbSpline
210
0
220
0
230
0
 70
    8
 71
    3
 72
    8
 73
    4
 74
    0
 42
1e-07
 43
1e-07
 40
0
 40
0
 40
0
 40
0
 40
1
 40
1
 40
1
 40
1
 10
55.64241670000001
 20
32.3410556
 30
0
 10
56.24566670000002
 20
32.1046944
 30
0
 10
57.66736109999999
 20
31.6496111
 30
0
 10
58.2776667
 20
31.4979167
 30
0
  0
SPLINE
  5
87
100
AcDbEntity
  8
0
  6
ByLayer
 62
    7
370
   -1
100
AcDbSpline
210
0
220
0
230
0
 70
    8
 71
    3
 72
    8
 73
    4
 74
    0
 42
1e-07
 43
1e-07
 40
0
 40
0
 40
0
 40
0
 40
1
 40
1
 40
1
 40
1
 10
58.2776667
 20
31.4979167
 30
0
 10
58.78566670000001
 20
31.3709167
 30
0
 10
58.81388889999999
 20
31.36033329999999
 30
0
 10
58.78919439999999
 20
31.2897778
 30
0
  0
SPLINE
  5
88
100
AcDbEntity
  8
0
  6
ByLayer
 62
    7
370
   -1
100
AcDbSpline
210
0
220
0
230
0
 70
    8
 71
    3
 72
    8
 73
    4
 74
    0
 42
1e-07
 43
1e-07
 40
0
 40
0
 40
0
 40
0
 40
1
 40
1
 40
1
 40
1
 10
58.78919439999999
 20
31.2897778
 30
0
 10
58.7715556
 20
31.25097220000001
 30
0
 10
58.7609722
 20
31.0816389
 30
0
 10
58.7609722
 20
30.9158333
 30
0
  0
SPLINE
  5
89
100
AcDbEntity
  8
0
  6
ByLayer
 62
    7
370
   -1
100
AcDbSpline
210
0
220
0
230
0
 70
    8
 71
    3
 72
    8
 73
    4
 74
    0
 42
1e-07
 43
1e-07
 40
0
 40
0
 40
0
 40
0
 40
1
 40
1
 40
1
 40
1
 10
58.7609722
 20
30.9158333
 30
0
 10
58.7609722
 20
30.5418889
 30
0
 10
58.86327779999999
 20
30.2596667
 30
0
 10
59.15961110000001
 20
29.8045833
 30
0
  0
SPLINE
  5
8A
100
AcDbEntity
  8
0
  6
ByLayer
 62
    7
370
   -1
100
AcDbSpline
210
0
220
0
230
0
 70
    8
 71
    3
 72
    8
 73
    4
 74
    0
 42
1e-07
 43
1e-07
 40
0
 40
0
 40
0
 40
0
 40
1
 40
1
 40
1
 40
1
 10
59.15961110000001
 20
29.8045833
 30
0
 10
59.6781944
 20
29.0073056
 30
0
 10
60.56719440000001
 20
28.24177779999999
 30
0
 10
61.749
 20
27.5785556
 30
0
  0
SPLINE
  5
8B
100
AcDbEntity
  8
0
  6
ByLayer
 62
    7
370
   -1
100
AcDbSpline
210
0
220
0
230
0
 70
    8
 71
    3
 72
    8
 73
    4
 74
    0
 42
1e-07
 43
1e-07
 40
0
 40
0
 40
0
 40
0
 40
1
 40
1
 40
1
 40
1
 10
61.749
 20
27.5785556
 30
0
 10
62.05591670000001
 20
27.4056944
 30
0
 10
62.9061111
 20
27
 30
0
 10
62.9590278
 20
27
 30
0
  0
SPLINE
  5
8C
100
AcDbEntity
  8
0
  6
ByLayer
 62
    7
370
   -1
100
AcDbSpline
210
0
220
0
230
0
 70
    8
 71
    3
 72
    8
 73
    4
 74
    0
 42
1e-07
 43
1e-07
 40
0
 40
0
 40
0
 40
0
 40
1
 40
1
 40
1
 40
1
 10
62.9590278
 20
27
 30
0
 10
62.96961110000001
 20
27
 30
0
 10
62.97666670000001
 20
27.0352778
 30
0
 10
62.97666670000001
 20
27.0776111
 30
0
  0
SPLINE
  5
8D
100
AcDbEntity
  8
0
  6
ByLayer
 62
    7
370
   -1
100
AcDbSpline
210
0
220
0
230
0
 70
    8
 71
    3
 72
    8
 73
    4
 74
    0
 42
1e-07
 43
1e-07
 40
0
 40
0
 40
0
 40
0
 40
1
 40
1
 40
1
 40
1
 10
62.97666670000001
 20
27.0776111
 30
0
 10
62.97666670000001
 20
27.3351389
 30
0
 10
61.90069439999999
 20
28.9226389
 30
0
 10
61.0928333
 20
29.8575
 30
0
  0
SPLINE
  5
8E
100
AcDbEntity
  8
0
  6
ByLayer
 62
    7
370
   -1
100
AcDbSpline
210
0
220
0
230
0
 70
    8
 71
    3
 72
    8
 73
    4
 74
    0
 42
1e-07
 43
1e-07
 40
0
 40
0
 40
0
 40
0
 40
1
 40
1
 40
1
 40
1
 10
61.0928333
 20
29.8575
 30
0
 10
60.79650000000001
 20
30.1996944
 30
0
 10
60.14386110000001
 20
30.84880560000001
 30
0
 10
59.9004444
 20
31.0463611
 30
0
  0
SPLINE
  5
8F
100
AcDbEntity
  8
0
  6
ByLayer
 62
    7
370
   -1
100
AcDbSpline
210
0
220
0
230
0
 70
    8
 71
    3
 72
    8
 73
    4
 74
    0
 42
1e-07
 43
1e-07
 40
0
 40
0
 40
0
 40
0
 40
1
 40
1
 40
1
 40
1
 10
59.9004444
 20
31.0463611
 30
0
 10
59.80872220000001
 20
31.1169167
 30
0
 10
59.73816669999999
 20
31.18041669999999
 30
0
 10
59.7416944
 20
31.1839444
 30
0
  0
SPLINE
  5
90
100
AcDbEntity
  8
0
  6
ByLayer
 62
    7
370
   -1
100
AcDbSpline
210
0
220
0
230
0
 70
    8
 71
    3
 72
    8
 73
    4
 74
    0
 42
1e-07
 43
1e-07
 40
0
 40
0
 40
0
 40
0
 40
1
 40
1
 40
1
 40
1
 10
59.7416944
 20
31.1839444
 30
0
 10
59.7452222
 20
31.1874722
 30
0
 10
59.92513890000001
 20
31.16983329999999
 30
0
 10
60.1368056
 20
31.14161110000001
 30
0
  0
SPLINE
  5
91
100
AcDbEntity
  8
0
  6
ByLayer
 62
    7
370
   -1
100
AcDbSpline
210
0
220
0
230
0
 70
    8
 71
    3
 72
    8
 73
    4
 74
    0
 42
1e-07
 43
1e-07
 40
0
 40
0
 40
0
 40
0
 40
1
 40
1
 40
1
 40
1
 10
60.1368056
 20
31.14161110000001
 30
0
 10
60.352
 20
31.1133889
 30
0
 10
60.86705560000001
 20
31.0816389
 30
0
 10
61.28686110000001
 20
31.06752779999999
 30
0
  0
LWPOLYLINE
  5
92
100
AcDbEntity
  8
0
  6
ByLayer
 62
    7
370
   -1
100
AcDbPolyline
 90
    3
 70
    0
 43
0
 10
50.84463890000001
 20
32.17877780000001
 10
51.39497220000001
 20
31.90361110000001
 10
51.45847219999999
 20
31.7378056
  0
SPLINE
  5
93
100
AcDbEntity
  8
0
  6
ByLayer
 62
    7
370
   -1
100
AcDbSpline
210
0
220
0
230
0
 70
    8
 71
    3
 72
    8
 73
    4
 74
    0
 42
1e-07
 43
1e-07
 40
0
 40
0
 40
0
 40
0
 40
1
 40
1
 40
1
 40
1
 10
62.07002779999999
 20
30.87350000000001
 30
0
 10
62.10177780000001
 20
30.6124444
 30
0
 10
62.28874999999999
 20
30.29847219999999
 30
0
 10
62.58861110000001
 20
29.99861110000001
 30
0
  0
SPLINE
  5
94
100
AcDbEntity
  8
0
  6
ByLayer
 62
    7
370
   -1
100
AcDbSpline
210
0
220
0
230
0
 70
    8
 71
    3
 72
    8
 73
    4
 74
    0
 42
1e-07
 43
1e-07
 40
0
 40
0
 40
0
 40
0
 40
1
 40
1
 40
1
 40
1
 10
62.58861110000001
 20
29.99861110000001
 30
0
 10
63.42469439999999
 20
29.15899999999999
 30
0
 10
65.04041670000001
 20
28.524
 30
0
 10
66.94894439999999
 20
28.2876389
 30
0
  0
SPLINE
  5
95
100
AcDbEntity
  8
0
  6
ByLayer
 62
    7
370
   -1
100
AcDbSpline
210
0
220
0
230
0
 70
    8
 71
    3
 72
    8
 73
    4
 74
    0
 42
1e-07
 43
1e-07
 40
0
 40
0
 40
0
 40
0
 40
1
 40
1
 40
1
 40
1
 10
66.94894439999999
 20
28.2876389
 30
0
 10
67.20294440000001
 20
28.2558889
 30
0
 10
67.464
 20
28.23472219999999
 30
0
 10
67.5275
 20
28.24177779999999
 30
0
  0
LWPOLYLINE
  5
96
100
AcDbEntity
  8
0
  6
ByLayer
 62
    7
370
   -1
100
AcDbPolyline
 90
    3
 70
    0
 43
0
 10
61.28686110000001
 20
31.06752779999999
 10
62.05238890000001
 20
31.0463611
 10
62.07002779999999
 20
30.87350000000001
  0
SPLINE
  5
97
100
AcDbEntity
  8
0
  6
ByLayer
 62
    7
370
   -1
100
AcDbSpline
210
0
220
0
230
0
 70
    8
 71
    3
 72
    8
 73
    4
 74
    0
 42
1e-07
 43
1e-07
 40
0
 40
0
 40
0
 40
0
 40
1
 40
1
 40
1
 40
1
 10
67.5310278
 20
28.3828889
 30
0
 10
67.1535556
 20
28.81327779999999
 30
0
 10
65.64719439999999
 20
29.8539722
 30
0
 10
64.49008330000001
 20
30.4819167
 30
0
  0
LWPOLYLINE
  5
98
100
AcDbEntity
  8
0
  6
ByLayer
 62
    7
370
   -1
100
AcDbPolyline
 90
    3
 70
    0
 43
0
 10
67.5275
 20
28.24177779999999
 10
67.64744440000001
 20
28.2523611
 10
67.5310278
 20
28.3828889
  0
SPLINE
  5
99
100
AcDbEntity
  8
0
  6
ByLayer
 62
    7
370
   -1
100
AcDbSpline
210
0
220
0
230
0
 70
    8
 71
    3
 72
    8
 73
    4
 74
    0
 42
1e-07
 43
1e-07
 40
0
 40
0
 40
0
 40
0
 40
1
 40
1
 40
1
 40
1
 10
64.2043333
 20
30.7817778
 30
0
 10
64.45480559999999
 20
30.81
 30
0
 10
64.72997219999999
 20
30.88055559999999
 30
0
 10
65.04041670000001
 20
31.0005
 30
0
  0
SPLINE
  5
9A
100
AcDbEntity
  8
0
  6
ByLayer
 62
    7
370
   -1
100
AcDbSpline
210
0
220
0
230
0
 70
    8
 71
    3
 72
    8
 73
    4
 74
    0
 42
1e-07
 43
1e-07
 40
0
 40
0
 40
0
 40
0
 40
1
 40
1
 40
1
 40
1
 10
65.04041670000001
 20
31.0005
 30
0
 10
65.2344444
 20
31.0745833
 30
0
 10
65.32616669999999
 20
31.0851667
 30
0
 10
66.17988890000001
 20
31.1063333
 30
0
  0
LWPOLYLINE
  5
9B
100
AcDbEntity
  8
0
  6
ByLayer
 62
    7
370
   -1
100
AcDbPolyline
 90
    3
 70
    0
 43
0
 10
64.49008330000001
 20
30.4819167
 10
63.9856111
 20
30.75708330000001
 10
64.2043333
 20
30.7817778
  0
SPLINE
  5
9C
100
AcDbEntity
  8
0
  6
ByLayer
 62
    7
370
   -1
100
AcDbSpline
210
0
220
0
230
0
 70
    8
 71
    3
 72
    8
 73
    4
 74
    0
 42
1e-07
 43
1e-07
 40
0
 40
0
 40
0
 40
0
 40
1
 40
1
 40
1
 40
1
 10
67.10416670000001
 20
31.0498889
 30
0
 10
67.10416670000001
 20
30.78883329999999
 30
0
 10
67.58747220000001
 20
30.2314444
 30
0
 10
68.12722220000001
 20
29.8716111
 30
0
  0
SPLINE
  5
9D
100
AcDbEntity
  8
0
  6
ByLayer
 62
    7
370
   -1
100
AcDbSpline
210
0
220
0
230
0
 70
    8
 71
    3
 72
    8
 73
    4
 74
    0
 42
1e-07
 43
1e-07
 40
0
 40
0
 40
0
 40
0
 40
1
 40
1
 40
1
 40
1
 10
68.12722220000001
 20
29.8716111
 30
0
 10
69.07619439999999
 20
29.24013890000001
 30
0
 10
70.4485
 20
28.80974999999999
 30
0
 10
72.2018056
 20
28.58750000000001
 30
0
  0
SPLINE
  5
9E
100
AcDbEntity
  8
0
  6
ByLayer
 62
    7
370
   -1
100
AcDbSpline
210
0
220
0
230
0
 70
    8
 71
    3
 72
    8
 73
    4
 74
    0
 42
1e-07
 43
1e-07
 40
0
 40
0
 40
0
 40
0
 40
1
 40
1
 40
1
 40
1
 10
72.2018056
 20
28.58750000000001
 30
0
 10
72.77330559999999
 20
28.5169444
 30
0
 10
73.0661111
 20
28.4993056
 30
0
 10
73.0661111
 20
28.53811109999999
 30
0
  0
SPLINE
  5
9F
100
AcDbEntity
  8
0
  6
ByLayer
 62
    7
370
   -1
100
AcDbSpline
210
0
220
0
230
0
 70
    8
 71
    3
 72
    8
 73
    4
 74
    0
 42
1e-07
 43
1e-07
 40
0
 40
0
 40
0
 40
0
 40
1
 40
1
 40
1
 40
1
 10
73.0661111
 20
28.53811109999999
 30
0
 10
73.0661111
 20
28.5522222
 30
0
 10
73.0096667
 20
28.6368889
 30
0
 10
72.94263889999999
 20
28.72861109999999
 30
0
  0
SPLINE
  5
A0
100
AcDbEntity
  8
0
  6
ByLayer
 62
    7
370
   -1
100
AcDbSpline
210
0
220
0
230
0
 70
    8
 71
    3
 72
    8
 73
    4
 74
    0
 42
1e-07
 43
1e-07
 40
0
 40
0
 40
0
 40
0
 40
1
 40
1
 40
1
 40
1
 10
72.94263889999999
 20
28.72861109999999
 30
0
 10
72.65688890000001
 20
29.1166667
 30
0
 10
71.95486109999999
 20
29.6846389
 30
0
 10
71.19638889999999
 20
30.13972219999999
 30
0
  0
SPLINE
  5
A1
100
AcDbEntity
  8
0
  6
ByLayer
 62
    7
370
   -1
100
AcDbSpline
210
0
220
0
230
0
 70
    8
 71
    3
 72
    8
 73
    4
 74
    0
 42
1e-07
 43
1e-07
 40
0
 40
0
 40
0
 40
0
 40
1
 40
1
 40
1
 40
1
 10
71.19638889999999
 20
30.13972219999999
 30
0
 10
70.71661109999999
 20
30.429
 30
0
 10
69.5877222
 20
30.97933329999999
 30
0
 10
69.11500000000001
 20
31.15925
 30
0
  0
SPLINE
  5
A2
100
AcDbEntity
  8
0
  6
ByLayer
 62
    7
370
   -1
100
AcDbSpline
210
0
220
0
230
0
 70
    8
 71
    3
 72
    8
 73
    4
 74
    0
 42
1e-07
 43
1e-07
 40
0
 40
0
 40
0
 40
0
 40
1
 40
1
 40
1
 40
1
 10
69.11500000000001
 20
31.15925
 30
0
 10
68.91038889999999
 20
31.2368611
 30
0
 10
68.7692778
 20
31.3074167
 30
0
 10
68.79750000000001
 20
31.3144722
 30
0
  0
SPLINE
  5
A3
100
AcDbEntity
  8
0
  6
ByLayer
 62
    7
370
   -1
100
AcDbSpline
210
0
220
0
230
0
 70
    8
 71
    3
 72
    8
 73
    4
 74
    0
 42
1e-07
 43
1e-07
 40
0
 40
0
 40
0
 40
0
 40
1
 40
1
 40
1
 40
1
 10
68.79750000000001
 20
31.3144722
 30
0
 10
68.8257222
 20
31.3250556
 30
0
 10
69.13616669999999
 20
31.3991389
 30
0
 10
69.4854167
 20
31.4802778
 30
0
  0
SPLINE
  5
A4
100
AcDbEntity
  8
0
  6
ByLayer
 62
    7
370
   -1
100
AcDbSpline
210
0
220
0
230
0
 70
    8
 71
    3
 72
    8
 73
    4
 74
    0
 42
1e-07
 43
1e-07
 40
0
 40
0
 40
0
 40
0
 40
1
 40
1
 40
1
 40
1
 10
69.4854167
 20
31.4802778
 30
0
 10
69.83466670000001
 20
31.5614167
 30
0
 10
70.2826944
 20
31.6707778
 30
0
 10
70.48377780000001
 20
31.7236944
 30
0
  0
LWPOLYLINE
  5
A5
100
AcDbEntity
  8
0
  6
ByLayer
 62
    7
370
   -1
100
AcDbPolyline
 90
    3
 70
    0
 43
0
 10
66.17988890000001
 20
31.1063333
 10
67.10416670000001
 20
31.1275
 10
67.10416670000001
 20
31.0498889
  0
SPLINE
  5
A6
100
AcDbEntity
  8
0
  6
ByLayer
 62
    7
370
   -1
100
AcDbSpline
210
0
220
0
230
0
 70
    8
 71
    3
 72
    8
 73
    4
 74
    0
 42
1e-07
 43
1e-07
 40
0
 40
0
 40
0
 40
0
 40
1
 40
1
 40
1
 40
1
 10
70.88241669999999
 20
31.73075
 30
0
 10
70.9494444
 20
31.5437778
 30
0
 10
71.0058889
 20
31.4591111
 30
0
 10
71.17875000000001
 20
31.28272219999999
 30
0
  0
SPLINE
  5
A7
100
AcDbEntity
  8
0
  6
ByLayer
 62
    7
370
   -1
100
AcDbSpline
210
0
220
0
230
0
 70
    8
 71
    3
 72
    8
 73
    4
 74
    0
 42
1e-07
 43
1e-07
 40
0
 40
0
 40
0
 40
0
 40
1
 40
1
 40
1
 40
1
 10
71.17875000000001
 20
31.28272219999999
 30
0
 10
71.89841670000001
 20
30.556
 30
0
 10
73.61644440000001
 20
30.1503056
 30
0
 10
75.5637778
 20
30.2490833
 30
0
  0
SPLINE
  5
A8
100
AcDbEntity
  8
0
  6
ByLayer
 62
    7
370
   -1
100
AcDbSpline
210
0
220
0
230
0
 70
    8
 71
    3
 72
    8
 73
    4
 74
    0
 42
1e-07
 43
1e-07
 40
0
 40
0
 40
0
 40
0
 40
1
 40
1
 40
1
 40
1
 10
75.5637778
 20
30.2490833
 30
0
 10
76.1705556
 20
30.2808333
 30
0
 10
76.8761111
 20
30.3619722
 30
0
 10
76.9678333
 20
30.41488889999999
 30
0
  0
SPLINE
  5
A9
100
AcDbEntity
  8
0
  6
ByLayer
 62
    7
370
   -1
100
AcDbSpline
210
0
220
0
230
0
 70
    8
 71
    3
 72
    8
 73
    4
 74
    0
 42
1e-07
 43
1e-07
 40
0
 40
0
 40
0
 40
0
 40
1
 40
1
 40
1
 40
1
 10
76.9678333
 20
30.41488889999999
 30
0
 10
77.04544440000001
 20
30.4572222
 30
0
 10
76.95372219999999
 20
30.5277778
 30
0
 10
76.57624999999999
 20
30.71475
 30
0
  0
SPLINE
  5
AA
100
AcDbEntity
  8
0
  6
ByLayer
 62
    7
370
   -1
100
AcDbSpline
210
0
220
0
230
0
 70
    8
 71
    3
 72
    8
 73
    4
 74
    0
 42
1e-07
 43
1e-07
 40
0
 40
0
 40
0
 40
0
 40
1
 40
1
 40
1
 40
1
 10
76.57624999999999
 20
30.71475
 30
0
 10
75.66255559999999
 20
31.1663056
 30
0
 10
73.9339444
 20
31.7554444
 30
0
 10
72.88972219999999
 20
31.9706389
 30
0
  0
SPLINE
  5
AB
100
AcDbEntity
  8
0
  6
ByLayer
 62
    7
370
   -1
100
AcDbSpline
210
0
220
0
230
0
 70
    8
 71
    3
 72
    8
 73
    4
 74
    0
 42
1e-07
 43
1e-07
 40
0
 40
0
 40
0
 40
0
 40
1
 40
1
 40
1
 40
1
 10
72.88972219999999
 20
31.9706389
 30
0
 10
72.6851111
 20
32.01297220000001
 30
0
 10
72.48050000000001
 20
32.0553056
 30
0
 10
72.43463890000001
 20
32.0658889
 30
0
  0
SPLINE
  5
AC
100
AcDbEntity
  8
0
  6
ByLayer
 62
    7
370
   -1
100
AcDbSpline
210
0
220
0
230
0
 70
    8
 71
    3
 72
    8
 73
    4
 74
    0
 42
1e-07
 43
1e-07
 40
0
 40
0
 40
0
 40
0
 40
1
 40
1
 40
1
 40
1
 10
72.43463890000001
 20
32.0658889
 30
0
 10
72.37113890000001
 20
32.08
 30
0
 10
72.43463890000001
 20
32.11175
 30
0
 10
72.6921667
 20
32.20347219999999
 30
0
  0
SPLINE
  5
AD
100
AcDbEntity
  8
0
  6
ByLayer
 62
    7
370
   -1
100
AcDbSpline
210
0
220
0
230
0
 70
    8
 71
    3
 72
    8
 73
    4
 74
    0
 42
1e-07
 43
1e-07
 40
0
 40
0
 40
0
 40
0
 40
1
 40
1
 40
1
 40
1
 10
72.6921667
 20
32.20347219999999
 30
0
 10
72.88266669999999
 20
32.2669722
 30
0
 10
73.15783329999999
 20
32.39397220000001
 30
0
 10
73.30600000000001
 20
32.4856944
 30
0
  0
SPLINE
  5
AE
100
AcDbEntity
  8
0
  6
ByLayer
 62
    7
370
   -1
100
AcDbSpline
210
0
220
0
230
0
 70
    8
 71
    3
 72
    8
 73
    4
 74
    0
 42
1e-07
 43
1e-07
 40
0
 40
0
 40
0
 40
0
 40
1
 40
1
 40
1
 40
1
 10
73.30600000000001
 20
32.4856944
 30
0
 10
73.46475000000001
 20
32.58094439999999
 30
0
 10
73.84927780000001
 20
32.75380559999999
 30
0
 10
74.22675000000001
 20
32.8949167
 30
0
  0
SPLINE
  5
AF
100
AcDbEntity
  8
0
  6
ByLayer
 62
    7
370
   -1
100
AcDbSpline
210
0
220
0
230
0
 70
    8
 71
    3
 72
    8
 73
    4
 74
    0
 42
1e-07
 43
1e-07
 40
0
 40
0
 40
0
 40
0
 40
1
 40
1
 40
1
 40
1
 10
74.22675000000001
 20
32.8949167
 30
0
 10
74.58305559999999
 20
33.0289722
 30
0
 10
74.89702779999999
 20
33.15244440000001
 30
0
 10
74.92525000000001
 20
33.1700833
 30
0
  0
SPLINE
  5
B0
100
AcDbEntity
  8
0
  6
ByLayer
 62
    7
370
   -1
100
AcDbSpline
210
0
220
0
230
0
 70
    8
 71
    3
 72
    8
 73
    4
 74
    0
 42
1e-07
 43
1e-07
 40
0
 40
0
 40
0
 40
0
 40
1
 40
1
 40
1
 40
1
 10
74.92525000000001
 20
33.1700833
 30
0
 10
74.9675833
 20
33.19125
 30
0
 10
75.00286109999999
 20
33.15949999999999
 30
0
 10
75.0734167
 20
33.02191670000001
 30
0
  0
SPLINE
  5
B1
100
AcDbEntity
  8
0
  6
ByLayer
 62
    7
370
   -1
100
AcDbSpline
210
0
220
0
230
0
 70
    8
 71
    3
 72
    8
 73
    4
 74
    0
 42
1e-07
 43
1e-07
 40
0
 40
0
 40
0
 40
0
 40
1
 40
1
 40
1
 40
1
 10
75.0734167
 20
33.02191670000001
 30
0
 10
75.2392222
 20
32.7008889
 30
0
 10
75.69077780000001
 20
32.461
 30
0
 10
76.30461109999999
 20
32.3586944
 30
0
  0
SPLINE
  5
B2
100
AcDbEntity
  8
0
  6
ByLayer
 62
    7
370
   -1
100
AcDbSpline
210
0
220
0
230
0
 70
    8
 71
    3
 72
    8
 73
    4
 74
    0
 42
1e-07
 43
1e-07
 40
0
 40
0
 40
0
 40
0
 40
1
 40
1
 40
1
 40
1
 10
76.30461109999999
 20
32.3586944
 30
0
 10
76.6538611
 20
32.30225
 30
0
 10
77.50758329999999
 20
32.31283329999999
 30
0
 10
77.9520833
 20
32.3798611
 30
0
  0
SPLINE
  5
B3
100
AcDbEntity
  8
0
  6
ByLayer
 62
    7
370
   -1
100
AcDbSpline
210
0
220
0
230
0
 70
    8
 71
    3
 72
    8
 73
    4
 74
    0
 42
1e-07
 43
1e-07
 40
0
 40
0
 40
0
 40
0
 40
1
 40
1
 40
1
 40
1
 10
77.9520833
 20
32.3798611
 30
0
 10
78.9363333
 20
32.5245
 30
0
 10
80.02994440000001
 20
32.8808056
 30
0
 10
81.02125000000001
 20
33.3746944
 30
0
  0
SPLINE
  5
B4
100
AcDbEntity
  8
0
  6
ByLayer
 62
    7
370
   -1
100
AcDbSpline
210
0
220
0
230
0
 70
    8
 71
    3
 72
    8
 73
    4
 74
    0
 42
1e-07
 43
1e-07
 40
0
 40
0
 40
0
 40
0
 40
1
 40
1
 40
1
 40
1
 10
81.02125000000001
 20
33.3746944
 30
0
 10
81.19763890000002
 20
33.4628889
 30
0
 10
81.34933330000001
 20
33.5546111
 30
0
 10
81.36344439999999
 20
33.5757778
 30
0
  0
SPLINE
  5
B5
100
AcDbEntity
  8
0
  6
ByLayer
 62
    7
370
   -1
100
AcDbSpline
210
0
220
0
230
0
 70
    8
 71
    3
 72
    8
 73
    4
 74
    0
 42
1e-07
 43
1e-07
 40
0
 40
0
 40
0
 40
0
 40
1
 40
1
 40
1
 40
1
 10
81.36344439999999
 20
33.5757778
 30
0
 10
81.39872220000001
 20
33.6286944
 30
0
 10
81.20116669999999
 20
33.6851389
 30
0
 10
80.76372220000002
 20
33.7380556
 30
0
  0
SPLINE
  5
B6
100
AcDbEntity
  8
0
  6
ByLayer
 62
    7
370
   -1
100
AcDbSpline
210
0
220
0
230
0
 70
    8
 71
    3
 72
    8
 73
    4
 74
    0
 42
1e-07
 43
1e-07
 40
0
 40
0
 40
0
 40
0
 40
1
 40
1
 40
1
 40
1
 10
80.76372220000002
 20
33.7380556
 30
0
 10
80.5626389
 20
33.76275
 30
0
 10
80.4038889
 20
33.7874444
 30
0
 10
80.41094440000001
 20
33.7909722
 30
0
  0
SPLINE
  5
B7
100
AcDbEntity
  8
0
  6
ByLayer
 62
    7
370
   -1
100
AcDbSpline
210
0
220
0
230
0
 70
    8
 71
    3
 72
    8
 73
    4
 74
    0
 42
1e-07
 43
1e-07
 40
0
 40
0
 40
0
 40
0
 40
1
 40
1
 40
1
 40
1
 10
80.41094440000001
 20
33.7909722
 30
0
 10
80.41800000000001
 20
33.7945
 30
0
 10
80.5732222
 20
33.8438889
 30
0
 10
80.75666670000001
 20
33.89680559999999
 30
0
  0
SPLINE
  5
B8
100
AcDbEntity
  8
0
  6
ByLayer
 62
    7
370
   -1
100
AcDbSpline
210
0
220
0
230
0
 70
    8
 71
    3
 72
    8
 73
    4
 74
    0
 42
1e-07
 43
1e-07
 40
0
 40
0
 40
0
 40
0
 40
1
 40
1
 40
1
 40
1
 10
80.75666670000001
 20
33.89680559999999
 30
0
 10
81.3846111
 20
34.07319440000001
 30
0
 10
82.5699444
 20
34.5847222
 30
0
 10
82.56288890000002
 20
34.6729167
 30
0
  0
SPLINE
  5
B9
100
AcDbEntity
  8
0
  6
ByLayer
 62
    7
370
   -1
100
AcDbSpline
210
0
220
0
230
0
 70
    8
 71
    3
 72
    8
 73
    4
 74
    0
 42
1e-07
 43
1e-07
 40
0
 40
0
 40
0
 40
0
 40
1
 40
1
 40
1
 40
1
 10
82.56288890000002
 20
34.6729167
 30
0
 10
82.55230560000001
 20
34.8775278
 30
0
 10
79.9699722
 20
34.9445556
 30
0
 10
78.58708329999999
 20
34.7716944
 30
0
  0
LWPOLYLINE
  5
BA
100
AcDbEntity
  8
0
  6
ByLayer
 62
    7
370
   -1
100
AcDbPolyline
 90
    3
 70
    0
 43
0
 10
70.48377780000001
 20
31.7236944
 10
70.8471389
 20
31.82599999999999
 10
70.88241669999999
 20
31.73075
  0
SPLINE
  5
BB
100
AcDbEntity
  8
0
  6
ByLayer
 62
    7
370
   -1
100
AcDbSpline
210
0
220
0
230
0
 70
    8
 71
    3
 72
    8
 73
    4
 74
    0
 42
1e-07
 43
1e-07
 40
0
 40
0
 40
0
 40
0
 40
1
 40
1
 40
1
 40
1
 10
78.63999999999999
 20
35.001
 30
0
 10
78.86577779999999
 20
35.2444167
 30
0
 10
78.8728333
 20
35.24794439999999
 30
0
 10
79.01041670000001
 20
35.22677780000001
 30
0
  0
SPLINE
  5
BC
100
AcDbEntity
  8
0
  6
ByLayer
 62
    7
370
   -1
100
AcDbSpline
210
0
220
0
230
0
 70
    8
 71
    3
 72
    8
 73
    4
 74
    0
 42
1e-07
 43
1e-07
 40
0
 40
0
 40
0
 40
0
 40
1
 40
1
 40
1
 40
1
 10
79.01041670000001
 20
35.22677780000001
 30
0
 10
79.9135278
 20
35.0750833
 30
0
 10
81.18705560000001
 20
35.68538889999999
 30
0
 10
82.3124167
 20
36.8072222
 30
0
  0
SPLINE
  5
BD
100
AcDbEntity
  8
0
  6
ByLayer
 62
    7
370
   -1
100
AcDbSpline
210
0
220
0
230
0
 70
    8
 71
    3
 72
    8
 73
    4
 74
    0
 42
1e-07
 43
1e-07
 40
0
 40
0
 40
0
 40
0
 40
1
 40
1
 40
1
 40
1
 10
82.3124167
 20
36.8072222
 30
0
 10
82.72516669999999
 20
37.2199722
 30
0
 10
83.1202778
 20
37.6821111
 30
0
 10
83.1202778
 20
37.7561944
 30
0
  0
SPLINE
  5
BE
100
AcDbEntity
  8
0
  6
ByLayer
 62
    7
370
   -1
100
AcDbSpline
210
0
220
0
230
0
 70
    8
 71
    3
 72
    8
 73
    4
 74
    0
 42
1e-07
 43
1e-07
 40
0
 40
0
 40
0
 40
0
 40
1
 40
1
 40
1
 40
1
 10
83.1202778
 20
37.7561944
 30
0
 10
83.1202778
 20
37.8091111
 30
0
 10
83.08852780000001
 20
37.8055833
 30
0
 10
82.77102780000001
 20
37.7244444
 30
0
  0
SPLINE
  5
BF
100
AcDbEntity
  8
0
  6
ByLayer
 62
    7
370
   -1
100
AcDbSpline
210
0
220
0
230
0
 70
    8
 71
    3
 72
    8
 73
    4
 74
    0
 42
1e-07
 43
1e-07
 40
0
 40
0
 40
0
 40
0
 40
1
 40
1
 40
1
 40
1
 10
82.77102780000001
 20
37.7244444
 30
0
 10
82.10427780000001
 20
37.5551111
 30
0
 10
81.0494722
 20
37.1458889
 30
0
 10
80.25572220000001
 20
36.75077779999999
 30
0
  0
LWPOLYLINE
  5
C0
100
AcDbEntity
  8
0
  6
ByLayer
 62
    7
370
   -1
100
AcDbPolyline
 90
    3
 70
    0
 43
0
 10
78.58708329999999
 20
34.7716944
 10
78.41069440000001
 20
34.7505278
 10
78.63999999999999
 20
35.001
  0
SPLINE
  5
C1
100
AcDbEntity
  8
0
  6
ByLayer
 62
    7
370
   -1
100
AcDbSpline
210
0
220
0
230
0
 70
    8
 71
    3
 72
    8
 73
    4
 74
    0
 42
1e-07
 43
1e-07
 40
0
 40
0
 40
0
 40
0
 40
1
 40
1
 40
1
 40
1
 10
79.89236110000002
 20
36.7825278
 30
0
 10
80.2028056
 20
37.3646111
 30
0
 10
80.7284444
 20
38.7510278
 30
0
 10
80.65083329999999
 20
38.77572219999999
 30
0
  0
SPLINE
  5
C2
100
AcDbEntity
  8
0
  6
ByLayer
 62
    7
370
   -1
100
AcDbSpline
210
0
220
0
230
0
 70
    8
 71
    3
 72
    8
 73
    4
 74
    0
 42
1e-07
 43
1e-07
 40
0
 40
0
 40
0
 40
0
 40
1
 40
1
 40
1
 40
1
 10
80.65083329999999
 20
38.77572219999999
 30
0
 10
80.5167778
 20
38.82158329999999
 30
0
 10
79.4266944
 20
38.00313890000001
 30
0
 10
78.42833329999999
 20
37.10355559999999
 30
0
  0
SPLINE
  5
C3
100
AcDbEntity
  8
0
  6
ByLayer
 62
    7
370
   -1
100
AcDbSpline
210
0
220
0
230
0
 70
    8
 71
    3
 72
    8
 73
    4
 74
    0
 42
1e-07
 43
1e-07
 40
0
 40
0
 40
0
 40
0
 40
1
 40
1
 40
1
 40
1
 10
78.42833329999999
 20
37.10355559999999
 30
0
 10
77.64869440000001
 20
36.4050556
 30
0
 10
76.96077779999999
 20
35.6606944
 30
0
 10
76.50922220000001
 20
35.02922219999999
 30
0
  0
SPLINE
  5
C4
100
AcDbEntity
  8
0
  6
ByLayer
 62
    7
370
   -1
100
AcDbSpline
210
0
220
0
230
0
 70
    8
 71
    3
 72
    8
 73
    4
 74
    0
 42
1e-07
 43
1e-07
 40
0
 40
0
 40
0
 40
0
 40
1
 40
1
 40
1
 40
1
 10
76.50922220000001
 20
35.02922219999999
 30
0
 10
76.28697220000001
 20
34.7223056
 30
0
 10
75.9518333
 20
34.07672220000001
 30
0
 10
75.97652780000001
 20
34.0096944
 30
0
  0
SPLINE
  5
C5
100
AcDbEntity
  8
0
  6
ByLayer
 62
    7
370
   -1
100
AcDbSpline
210
0
220
0
230
0
 70
    8
 71
    3
 72
    8
 73
    4
 74
    0
 42
1e-07
 43
1e-07
 40
0
 40
0
 40
0
 40
0
 40
1
 40
1
 40
1
 40
1
 10
75.97652780000001
 20
34.0096944
 30
0
 10
75.99416669999999
 20
33.9638333
 30
0
 10
75.7895556
 20
33.8685833
 30
0
 10
74.98875000000001
 20
33.54402779999999
 30
0
  0
SPLINE
  5
C6
100
AcDbEntity
  8
0
  6
ByLayer
 62
    7
370
   -1
100
AcDbSpline
210
0
220
0
230
0
 70
    8
 71
    3
 72
    8
 73
    4
 74
    0
 42
1e-07
 43
1e-07
 40
0
 40
0
 40
0
 40
0
 40
1
 40
1
 40
1
 40
1
 10
74.98875000000001
 20
33.54402779999999
 30
0
 10
74.30083329999999
 20
33.2688611
 30
0
 10
74.3149444
 20
33.26533329999999
 30
0
 10
74.6359722
 20
33.6004722
 30
0
  0
SPLINE
  5
C7
100
AcDbEntity
  8
0
  6
ByLayer
 62
    7
370
   -1
100
AcDbSpline
210
0
220
0
230
0
 70
    8
 71
    3
 72
    8
 73
    4
 74
    0
 42
1e-07
 43
1e-07
 40
0
 40
0
 40
0
 40
0
 40
1
 40
1
 40
1
 40
1
 10
74.6359722
 20
33.6004722
 30
0
 10
75.15808329999999
 20
34.1472778
 30
0
 10
75.6766667
 20
34.90575
 30
0
 10
76.08588889999999
 20
35.7206667
 30
0
  0
SPLINE
  5
C8
100
AcDbEntity
  8
0
  6
ByLayer
 62
    7
370
   -1
100
AcDbSpline
210
0
220
0
230
0
 70
    8
 71
    3
 72
    8
 73
    4
 74
    0
 42
1e-07
 43
1e-07
 40
0
 40
0
 40
0
 40
0
 40
1
 40
1
 40
1
 40
1
 10
76.08588889999999
 20
35.7206667
 30
0
 10
76.2799167
 20
36.11225
 30
0
 10
76.52333329999999
 20
36.6555278
 30
0
 10
76.52333329999999
 20
36.7084444
 30
0
  0
SPLINE
  5
C9
100
AcDbEntity
  8
0
  6
ByLayer
 62
    7
370
   -1
100
AcDbSpline
210
0
220
0
230
0
 70
    8
 71
    3
 72
    8
 73
    4
 74
    0
 42
1e-07
 43
1e-07
 40
0
 40
0
 40
0
 40
0
 40
1
 40
1
 40
1
 40
1
 10
76.52333329999999
 20
36.7084444
 30
0
 10
76.52333329999999
 20
36.7578333
 30
0
 10
76.2340556
 20
36.63083330000001
 30
0
 10
75.8953889
 20
36.4332778
 30
0
  0
SPLINE
  5
CA
100
AcDbEntity
  8
0
  6
ByLayer
 62
    7
370
   -1
100
AcDbSpline
210
0
220
0
230
0
 70
    8
 71
    3
 72
    8
 73
    4
 74
    0
 42
1e-07
 43
1e-07
 40
0
 40
0
 40
0
 40
0
 40
1
 40
1
 40
1
 40
1
 10
75.8953889
 20
36.4332778
 30
0
 10
74.8652778
 20
35.8300278
 30
0
 10
73.53530559999999
 20
34.8210833
 30
0
 10
72.65336110000001
 20
33.97441670000001
 30
0
  0
SPLINE
  5
CB
100
AcDbEntity
  8
0
  6
ByLayer
 62
    7
370
   -1
100
AcDbSpline
210
0
220
0
230
0
 70
    8
 71
    3
 72
    8
 73
    4
 74
    0
 42
1e-07
 43
1e-07
 40
0
 40
0
 40
0
 40
0
 40
1
 40
1
 40
1
 40
1
 10
72.65336110000001
 20
33.97441670000001
 30
0
 10
72.40641669999999
 20
33.7380556
 30
0
 10
72.23002779999999
 20
33.5828333
 30
0
 10
72.25825
 20
33.6322222
 30
0
  0
SPLINE
  5
CC
100
AcDbEntity
  8
0
  6
ByLayer
 62
    7
370
   -1
100
AcDbSpline
210
0
220
0
230
0
 70
    8
 71
    3
 72
    8
 73
    4
 74
    0
 42
1e-07
 43
1e-07
 40
0
 40
0
 40
0
 40
0
 40
1
 40
1
 40
1
 40
1
 10
72.25825
 20
33.6322222
 30
0
 10
72.5193056
 20
34.0485
 30
0
 10
72.81916670000001
 20
34.7046667
 30
0
 10
73.03436110000001
 20
35.3220278
 30
0
  0
SPLINE
  5
CD
100
AcDbEntity
  8
0
  6
ByLayer
 62
    7
370
   -1
100
AcDbSpline
210
0
220
0
230
0
 70
    8
 71
    3
 72
    8
 73
    4
 74
    0
 42
1e-07
 43
1e-07
 40
0
 40
0
 40
0
 40
0
 40
1
 40
1
 40
1
 40
1
 10
73.03436110000001
 20
35.3220278
 30
0
 10
73.1825278
 20
35.7524167
 30
0
 10
73.41888890000001
 20
36.6555278
 30
0
 10
73.41888890000001
 20
36.80016670000001
 30
0
  0
LWPOLYLINE
  5
CE
100
AcDbEntity
  8
0
  6
ByLayer
 62
    7
370
   -1
100
AcDbPolyline
 90
    3
 70
    0
 43
0
 10
80.25572220000001
 20
36.75077779999999
 10
79.74066670000002
 20
36.49325
 10
79.89236110000002
 20
36.7825278
  0
SPLINE
  5
CF
100
AcDbEntity
  8
0
  6
ByLayer
 62
    7
370
   -1
100
AcDbSpline
210
0
220
0
230
0
 70
    8
 71
    3
 72
    8
 73
    4
 74
    0
 42
1e-07
 43
1e-07
 40
0
 40
0
 40
0
 40
0
 40
1
 40
1
 40
1
 40
1
 10
73.30952780000001
 20
36.8178056
 30
0
 10
72.80858330000001
 20
36.52852780000001
 30
0
 10
71.34808330000001
 20
35.0786111
 30
0
 10
70.54022219999999
 20
34.07319440000001
 30
0
  0
SPLINE
  5
D0
100
AcDbEntity
  8
0
  6
ByLayer
 62
    7
370
   -1
100
AcDbSpline
210
0
220
0
230
0
 70
    8
 71
    3
 72
    8
 73
    4
 74
    0
 42
1e-07
 43
1e-07
 40
0
 40
0
 40
0
 40
0
 40
1
 40
1
 40
1
 40
1
 10
70.54022219999999
 20
34.07319440000001
 30
0
 10
69.92638890000001
 20
33.3041389
 30
0
 10
69.39722219999999
 20
32.42925
 30
0
 10
69.2525833
 20
31.9459444
 30
0
  0
SPLINE
  5
D1
100
AcDbEntity
  8
0
  6
ByLayer
 62
    7
370
   -1
100
AcDbSpline
210
0
220
0
230
0
 70
    8
 71
    3
 72
    8
 73
    4
 74
    0
 42
1e-07
 43
1e-07
 40
0
 40
0
 40
0
 40
0
 40
1
 40
1
 40
1
 40
1
 10
69.2525833
 20
31.9459444
 30
0
 10
69.2031944
 20
31.7801389
 30
0
 10
69.22788890000001
 20
31.7907222
 30
0
 10
68.74811109999999
 20
31.70958330000001
 30
0
  0
SPLINE
  5
D2
100
AcDbEntity
  8
0
  6
ByLayer
 62
    7
370
   -1
100
AcDbSpline
210
0
220
0
230
0
 70
    8
 71
    3
 72
    8
 73
    4
 74
    0
 42
1e-07
 43
1e-07
 40
0
 40
0
 40
0
 40
0
 40
1
 40
1
 40
1
 40
1
 10
68.74811109999999
 20
31.70958330000001
 30
0
 10
68.31772219999999
 20
31.63549999999999
 30
0
 10
68.31066670000001
 20
31.63902779999999
 30
0
 10
68.50469440000001
 20
31.7907222
 30
0
  0
SPLINE
  5
D3
100
AcDbEntity
  8
0
  6
ByLayer
 62
    7
370
   -1
100
AcDbSpline
210
0
220
0
230
0
 70
    8
 71
    3
 72
    8
 73
    4
 74
    0
 42
1e-07
 43
1e-07
 40
0
 40
0
 40
0
 40
0
 40
1
 40
1
 40
1
 40
1
 10
68.50469440000001
 20
31.7907222
 30
0
 10
68.81161109999999
 20
32.0376667
 30
0
 10
69.11500000000001
 20
32.4151389
 30
0
 10
69.38663890000001
 20
32.8913889
 30
0
  0
SPLINE
  5
D4
100
AcDbEntity
  8
0
  6
ByLayer
 62
    7
370
   -1
100
AcDbSpline
210
0
220
0
230
0
 70
    8
 71
    3
 72
    8
 73
    4
 74
    0
 42
1e-07
 43
1e-07
 40
0
 40
0
 40
0
 40
0
 40
1
 40
1
 40
1
 40
1
 10
69.38663890000001
 20
32.8913889
 30
0
 10
69.87347220000001
 20
33.7451111
 30
0
 10
70.14863890000001
 20
34.6376389
 30
0
 10
70.2932778
 20
35.8300278
 30
0
  0
LWPOLYLINE
  5
D5
100
AcDbEntity
  8
0
  6
ByLayer
 62
    7
370
   -1
100
AcDbPolyline
 90
    3
 70
    0
 43
0
 10
73.41888890000001
 20
36.80016670000001
 10
73.41888890000001
 20
36.8813056
 10
73.30952780000001
 20
36.8178056
  0
SPLINE
  5
D6
100
AcDbEntity
  8
0
  6
ByLayer
 62
    7
370
   -1
100
AcDbSpline
210
0
220
0
230
0
 70
    8
 71
    3
 72
    8
 73
    4
 74
    0
 42
1e-07
 43
1e-07
 40
0
 40
0
 40
0
 40
0
 40
1
 40
1
 40
1
 40
1
 10
70.21566670000001
 20
35.9464444
 30
0
 10
69.94049999999999
 20
35.8053333
 30
0
 10
68.81513889999999
 20
34.5035833
 30
0
 10
68.26833329999999
 20
33.70277780000001
 30
0
  0
LWPOLYLINE
  5
D7
100
AcDbEntity
  8
0
  6
ByLayer
 62
    7
370
   -1
100
AcDbPolyline
 90
    3
 70
    0
 43
0
 10
70.2932778
 20
35.8300278
 10
70.31444440000001
 20
35.9958333
 10
70.21566670000001
 20
35.9464444
  0
SPLINE
  5
D8
100
AcDbEntity
  8
0
  6
ByLayer
 62
    7
370
   -1
100
AcDbSpline
210
0
220
0
230
0
 70
    8
 71
    3
 72
    8
 73
    4
 74
    0
 42
1e-07
 43
1e-07
 40
0
 40
0
 40
0
 40
0
 40
1
 40
1
 40
1
 40
1
 10
67.80619440000001
 20
33.2865
 30
0
 10
67.1958889
 20
33.2618056
 30
0
 10
65.79888890000001
 20
32.8913889
 30
0
 10
64.82875000000001
 20
32.50333329999999
 30
0
  0
SPLINE
  5
D9
100
AcDbEntity
  8
0
  6
ByLayer
 62
    7
370
   -1
100
AcDbSpline
210
0
220
0
230
0
 70
    8
 71
    3
 72
    8
 73
    4
 74
    0
 42
1e-07
 43
1e-07
 40
0
 40
0
 40
0
 40
0
 40
1
 40
1
 40
1
 40
1
 10
64.82875000000001
 20
32.50333329999999
 30
0
 10
64.24313889999999
 20
32.2705
 30
0
 10
63.6116667
 20
31.92125
 30
0
 10
63.2236111
 20
31.6178611
 30
0
  0
SPLINE
  5
DA
100
AcDbEntity
  8
0
  6
ByLayer
 62
    7
370
   -1
100
AcDbSpline
210
0
220
0
230
0
 70
    8
 71
    3
 72
    8
 73
    4
 74
    0
 42
1e-07
 43
1e-07
 40
0
 40
0
 40
0
 40
0
 40
1
 40
1
 40
1
 40
1
 10
63.2236111
 20
31.6178611
 30
0
 10
63.11425
 20
31.5331944
 30
0
 10
63.0613333
 20
31.51908330000001
 30
0
 10
62.80733330000001
 20
31.5085
 30
0
  0
SPLINE
  5
DB
100
AcDbEntity
  8
0
  6
ByLayer
 62
    7
370
   -1
100
AcDbSpline
210
0
220
0
230
0
 70
    8
 71
    3
 72
    8
 73
    4
 74
    0
 42
1e-07
 43
1e-07
 40
0
 40
0
 40
0
 40
0
 40
1
 40
1
 40
1
 40
1
 10
62.80733330000001
 20
31.5085
 30
0
 10
62.64858330000001
 20
31.5014444
 30
0
 10
62.5180556
 20
31.5085
 30
0
 10
62.5180556
 20
31.51908330000001
 30
0
  0
SPLINE
  5
DC
100
AcDbEntity
  8
0
  6
ByLayer
 62
    7
370
   -1
100
AcDbSpline
210
0
220
0
230
0
 70
    8
 71
    3
 72
    8
 73
    4
 74
    0
 42
1e-07
 43
1e-07
 40
0
 40
0
 40
0
 40
0
 40
1
 40
1
 40
1
 40
1
 10
62.5180556
 20
31.51908330000001
 30
0
 10
62.5180556
 20
31.52966670000001
 30
0
 10
62.59919439999999
 20
31.5755278
 30
0
 10
62.70150000000001
 20
31.6249167
 30
0
  0
SPLINE
  5
DD
100
AcDbEntity
  8
0
  6
ByLayer
 62
    7
370
   -1
100
AcDbSpline
210
0
220
0
230
0
 70
    8
 71
    3
 72
    8
 73
    4
 74
    0
 42
1e-07
 43
1e-07
 40
0
 40
0
 40
0
 40
0
 40
1
 40
1
 40
1
 40
1
 10
62.70150000000001
 20
31.6249167
 30
0
 10
63.0119444
 20
31.7660278
 30
0
 10
63.78452780000001
 20
32.2987222
 30
0
 10
64.19374999999999
 20
32.6515
 30
0
  0
SPLINE
  5
DE
100
AcDbEntity
  8
0
  6
ByLayer
 62
    7
370
   -1
100
AcDbSpline
210
0
220
0
230
0
 70
    8
 71
    3
 72
    8
 73
    4
 74
    0
 42
1e-07
 43
1e-07
 40
0
 40
0
 40
0
 40
0
 40
1
 40
1
 40
1
 40
1
 10
64.19374999999999
 20
32.6515
 30
0
 10
64.61002780000001
 20
33.0078056
 30
0
 10
65.1709444
 20
33.58988890000001
 30
0
 10
65.5131389
 20
34.0202778
 30
0
  0
SPLINE
  5
DF
100
AcDbEntity
  8
0
  6
ByLayer
 62
    7
370
   -1
100
AcDbSpline
210
0
220
0
230
0
 70
    8
 71
    3
 72
    8
 73
    4
 74
    0
 42
1e-07
 43
1e-07
 40
0
 40
0
 40
0
 40
0
 40
1
 40
1
 40
1
 40
1
 10
65.5131389
 20
34.0202778
 30
0
 10
65.71775
 20
34.27780559999999
 30
0
 10
65.7212778
 20
34.2848611
 30
0
 10
65.63661110000001
 20
34.29544439999999
 30
0
  0
SPLINE
  5
E0
100
AcDbEntity
  8
0
  6
ByLayer
 62
    7
370
   -1
100
AcDbSpline
210
0
220
0
230
0
 70
    8
 71
    3
 72
    8
 73
    4
 74
    0
 42
1e-07
 43
1e-07
 40
0
 40
0
 40
0
 40
0
 40
1
 40
1
 40
1
 40
1
 10
65.63661110000001
 20
34.29544439999999
 30
0
 10
65.42494439999999
 20
34.3236667
 30
0
 10
64.06322220000001
 20
33.8615278
 30
0
 10
63.02958330000001
 20
33.4135
 30
0
  0
SPLINE
  5
E1
100
AcDbEntity
  8
0
  6
ByLayer
 62
    7
370
   -1
100
AcDbSpline
210
0
220
0
230
0
 70
    8
 71
    3
 72
    8
 73
    4
 74
    0
 42
1e-07
 43
1e-07
 40
0
 40
0
 40
0
 40
0
 40
1
 40
1
 40
1
 40
1
 10
63.02958330000001
 20
33.4135
 30
0
 10
61.876
 20
32.9160833
 30
0
 10
60.85294440000001
 20
32.31636109999999
 30
0
 10
60.32024999999999
 20
31.82952779999999
 30
0
  0
LWPOLYLINE
  5
E2
100
AcDbEntity
  8
0
  6
ByLayer
 62
    7
370
   -1
100
AcDbPolyline
 90
    3
 70
    0
 43
0
 10
68.26833329999999
 20
33.70277780000001
 10
67.99316669999999
 20
33.2935556
 10
67.80619440000001
 20
33.2865
  0
SPLINE
  5
E3
100
AcDbEntity
  8
0
  6
ByLayer
 62
    7
370
   -1
100
AcDbSpline
210
0
220
0
230
0
 70
    8
 71
    3
 72
    8
 73
    4
 74
    0
 42
1e-07
 43
1e-07
 40
0
 40
0
 40
0
 40
0
 40
1
 40
1
 40
1
 40
1
 10
59.61822219999999
 20
31.6884167
 30
0
 10
59.08905559999999
 20
31.7801389
 30
0
 10
58.1153889
 20
32.01649999999999
 30
0
 10
57.5791667
 20
32.1858333
 30
0
  0
LWPOLYLINE
  5
E4
100
AcDbEntity
  8
0
  6
ByLayer
 62
    7
370
   -1
100
AcDbPolyline
 90
    3
 70
    0
 43
0
 10
60.32024999999999
 20
31.82952779999999
 10
60.0768333
 20
31.61080560000001
 10
59.61822219999999
 20
31.6884167
  0
SPLINE
  5
E5
100
AcDbEntity
  8
0
  6
ByLayer
 62
    7
370
   -1
100
AcDbSpline
210
0
220
0
230
0
 70
    8
 71
    3
 72
    8
 73
    4
 74
    0
 42
1e-07
 43
1e-07
 40
0
 40
0
 40
0
 40
0
 40
1
 40
1
 40
1
 40
1
 10
57.52625
 20
32.3481111
 30
0
 10
58.78919439999999
 20
32.5350833
 30
0
 10
60.2320556
 20
33.0889444
 30
0
 10
61.52674999999999
 20
33.88269440000001
 30
0
  0
LWPOLYLINE
  5
E6
100
AcDbEntity
  8
0
  6
ByLayer
 62
    7
370
   -1
100
AcDbPolyline
 90
    3
 70
    0
 43
0
 10
57.5791667
 20
32.1858333
 10
57.20875000000001
 20
32.30225
 10
57.52625
 20
32.3481111
  0
SPLINE
  5
E7
100
AcDbEntity
  8
0
  6
ByLayer
 62
    7
370
   -1
100
AcDbSpline
210
0
220
0
230
0
 70
    8
 71
    3
 72
    8
 73
    4
 74
    0
 42
1e-07
 43
1e-07
 40
0
 40
0
 40
0
 40
0
 40
1
 40
1
 40
1
 40
1
 10
61.7560556
 20
34.1331667
 30
0
 10
61.61847219999999
 20
34.18961110000001
 30
0
 10
59.64997220000001
 20
34.19313889999999
 30
0
 10
58.9373611
 20
34.1331667
 30
0
  0
SPLINE
  5
E8
100
AcDbEntity
  8
0
  6
ByLayer
 62
    7
370
   -1
100
AcDbSpline
210
0
220
0
230
0
 70
    8
 71
    3
 72
    8
 73
    4
 74
    0
 42
1e-07
 43
1e-07
 40
0
 40
0
 40
0
 40
0
 40
1
 40
1
 40
1
 40
1
 10
58.9373611
 20
34.1331667
 30
0
 10
57.17347219999999
 20
33.985
 30
0
 10
55.8293889
 20
33.70277780000001
 30
0
 10
55.03211110000001
 20
33.31472220000001
 30
0
  0
LWPOLYLINE
  5
E9
100
AcDbEntity
  8
0
  6
ByLayer
 62
    7
370
   -1
100
AcDbPolyline
 90
    3
 70
    0
 43
0
 10
61.52674999999999
 20
33.88269440000001
 10
61.8618889
 20
34.08730560000001
 10
61.7560556
 20
34.1331667
  0
SPLINE
  5
EA
100
AcDbEntity
  8
0
  6
ByLayer
 62
    7
370
   -1
100
AcDbSpline
210
0
220
0
230
0
 70
    8
 71
    3
 72
    8
 73
    4
 74
    0
 42
1e-07
 43
1e-07
 40
0
 40
0
 40
0
 40
0
 40
1
 40
1
 40
1
 40
1
 10
54.50647219999999
 20
33.31825000000001
 30
0
 10
54.1995556
 20
33.44525
 30
0
 10
54.2030833
 20
33.4805278
 30
0
 10
54.5241111
 20
33.4875833
 30
0
  0
SPLINE
  5
EB
100
AcDbEntity
  8
0
  6
ByLayer
 62
    7
370
   -1
100
AcDbSpline
210
0
220
0
230
0
 70
    8
 71
    3
 72
    8
 73
    4
 74
    0
 42
1e-07
 43
1e-07
 40
0
 40
0
 40
0
 40
0
 40
1
 40
1
 40
1
 40
1
 10
54.5241111
 20
33.4875833
 30
0
 10
55.21908329999999
 20
33.50522220000001
 30
0
 10
56.69016669999999
 20
33.88622220000001
 30
0
 10
57.685
 20
34.3095556
 30
0
  0
SPLINE
  5
EC
100
AcDbEntity
  8
0
  6
ByLayer
 62
    7
370
   -1
100
AcDbSpline
210
0
220
0
230
0
 70
    8
 71
    3
 72
    8
 73
    4
 74
    0
 42
1e-07
 43
1e-07
 40
0
 40
0
 40
0
 40
0
 40
1
 40
1
 40
1
 40
1
 10
57.685
 20
34.3095556
 30
0
 10
58.1189167
 20
34.49299999999999
 30
0
 10
58.81388889999999
 20
34.83872220000001
 30
0
 10
58.81388889999999
 20
34.87047219999999
 30
0
  0
SPLINE
  5
ED
100
AcDbEntity
  8
0
  6
ByLayer
 62
    7
370
   -1
100
AcDbSpline
210
0
220
0
230
0
 70
    8
 71
    3
 72
    8
 73
    4
 74
    0
 42
1e-07
 43
1e-07
 40
0
 40
0
 40
0
 40
0
 40
1
 40
1
 40
1
 40
1
 10
58.81388889999999
 20
34.87047219999999
 30
0
 10
58.81388889999999
 20
34.9092778
 30
0
 10
58.72922220000001
 20
34.9304444
 30
0
 10
58.34822220000001
 20
34.9868889
 30
0
  0
SPLINE
  5
EE
100
AcDbEntity
  8
0
  6
ByLayer
 62
    7
370
   -1
100
AcDbSpline
210
0
220
0
230
0
 70
    8
 71
    3
 72
    8
 73
    4
 74
    0
 42
1e-07
 43
1e-07
 40
0
 40
0
 40
0
 40
0
 40
1
 40
1
 40
1
 40
1
 10
58.34822220000001
 20
34.9868889
 30
0
 10
57.20875000000001
 20
35.1526944
 30
0
 10
55.0744444
 20
35.1809167
 30
0
 10
53.8785278
 20
35.0433333
 30
0
  0
SPLINE
  5
EF
100
AcDbEntity
  8
0
  6
ByLayer
 62
    7
370
   -1
100
AcDbSpline
210
0
220
0
230
0
 70
    8
 71
    3
 72
    8
 73
    4
 74
    0
 42
1e-07
 43
1e-07
 40
0
 40
0
 40
0
 40
0
 40
1
 40
1
 40
1
 40
1
 10
53.8785278
 20
35.0433333
 30
0
 10
53.0565556
 20
34.94808330000001
 30
0
 10
52.37569439999999
 20
34.7999167
 30
0
 10
51.9206111
 20
34.6164722
 30
0
  0
LWPOLYLINE
  5
F0
100
AcDbEntity
  8
0
  6
ByLayer
 62
    7
370
   -1
100
AcDbPolyline
 90
    3
 70
    0
 43
0
 10
55.03211110000001
 20
33.31472220000001
 10
54.79575
 20
33.1983056
 10
54.50647219999999
 20
33.31825000000001
  0
SPLINE
  5
F1
100
AcDbEntity
  8
0
  6
ByLayer
 62
    7
370
   -1
100
AcDbSpline
210
0
220
0
230
0
 70
    8
 71
    3
 72
    8
 73
    4
 74
    0
 42
1e-07
 43
1e-07
 40
0
 40
0
 40
0
 40
0
 40
1
 40
1
 40
1
 40
1
 10
51.3738056
 20
34.6729167
 30
0
 10
51.2044722
 20
34.75758329999999
 30
0
 10
50.97869439999999
 20
34.8775278
 30
0
 10
50.87286109999999
 20
34.9445556
 30
0
  0
LWPOLYLINE
  5
F2
100
AcDbEntity
  8
0
  6
ByLayer
 62
    7
370
   -1
100
AcDbPolyline
 90
    3
 70
    0
 43
0
 10
51.9206111
 20
34.6164722
 10
51.67719439999999
 20
34.5176944
 10
51.3738056
 20
34.6729167
  0
SPLINE
  5
F3
100
AcDbEntity
  8
0
  6
ByLayer
 62
    7
370
   -1
100
AcDbSpline
210
0
220
0
230
0
 70
    8
 71
    3
 72
    8
 73
    4
 74
    0
 42
1e-07
 43
1e-07
 40
0
 40
0
 40
0
 40
0
 40
1
 40
1
 40
1
 40
1
 10
51.2609167
 20
35.06097219999999
 30
0
 10
52.54149999999998
 20
35.0645
 30
0
 10
53.83972220000001
 20
35.40669440000001
 30
0
 10
55.2825833
 20
36.11225
 30
0
  0
LWPOLYLINE
  5
F4
100
AcDbEntity
  8
0
  6
ByLayer
 62
    7
370
   -1
100
AcDbPolyline
 90
    3
 70
    0
 43
0
 10
50.87286109999999
 20
34.9445556
 10
50.6753056
 20
35.06097219999999
 10
51.2609167
 20
35.06097219999999
  0
SPLINE
  5
F5
100
AcDbEntity
  8
0
  6
ByLayer
 62
    7
370
   -1
100
AcDbSpline
210
0
220
0
230
0
 70
    8
 71
    3
 72
    8
 73
    4
 74
    0
 42
1e-07
 43
1e-07
 40
0
 40
0
 40
0
 40
0
 40
1
 40
1
 40
1
 40
1
 10
55.6106667
 20
36.37330559999999
 30
0
 10
55.5506944
 20
36.398
 30
0
 10
55.29669440000001
 20
36.44386109999999
 30
0
 10
55.04974999999999
 20
36.4791389
 30
0
  0
SPLINE
  5
F6
100
AcDbEntity
  8
0
  6
ByLayer
 62
    7
370
   -1
100
AcDbSpline
210
0
220
0
230
0
 70
    8
 71
    3
 72
    8
 73
    4
 74
    0
 42
1e-07
 43
1e-07
 40
0
 40
0
 40
0
 40
0
 40
1
 40
1
 40
1
 40
1
 10
55.04974999999999
 20
36.4791389
 30
0
 10
54.37947220000001
 20
36.5673333
 30
0
 10
51.7618611
 20
36.5673333
 30
0
 10
51.1056944
 20
36.4791389
 30
0
  0
SPLINE
  5
F7
100
AcDbEntity
  8
0
  6
ByLayer
 62
    7
370
   -1
100
AcDbSpline
210
0
220
0
230
0
 70
    8
 71
    3
 72
    8
 73
    4
 74
    0
 42
1e-07
 43
1e-07
 40
0
 40
0
 40
0
 40
0
 40
1
 40
1
 40
1
 40
1
 10
51.1056944
 20
36.4791389
 30
0
 10
50.47422219999999
 20
36.3944722
 30
0
 10
50.04383329999999
 20
36.2992222
 30
0
 10
49.6346111
 20
36.1581111
 30
0
  0
LWPOLYLINE
  5
F8
100
AcDbEntity
  8
0
  6
ByLayer
 62
    7
370
   -1
100
AcDbPolyline
 90
    3
 70
    0
 43
0
 10
55.2825833
 20
36.11225
 10
55.7200278
 20
36.3274444
 10
55.6106667
 20
36.37330559999999
  0
SPLINE
  5
F9
100
AcDbEntity
  8
0
  6
ByLayer
 62
    7
370
   -1
100
AcDbSpline
210
0
220
0
230
0
 70
    8
 71
    3
 72
    8
 73
    4
 74
    0
 42
1e-07
 43
1e-07
 40
0
 40
0
 40
0
 40
0
 40
1
 40
1
 40
1
 40
1
 10
48.95375000000001
 20
36.3168611
 30
0
 10
48.61861110000001
 20
36.5990833
 30
0
 10
48.52336109999999
 20
36.6978611
 30
0
 10
48.62566670000001
 20
36.6590556
 30
0
  0
SPLINE
  5
FA
100
AcDbEntity
  8
0
  6
ByLayer
 62
    7
370
   -1
100
AcDbSpline
210
0
220
0
230
0
 70
    8
 71
    3
 72
    8
 73
    4
 74
    0
 42
1e-07
 43
1e-07
 40
0
 40
0
 40
0
 40
0
 40
1
 40
1
 40
1
 40
1
 10
48.62566670000001
 20
36.6590556
 30
0
 10
48.6538889
 20
36.6449444
 30
0
 10
48.85144439999999
 20
36.60966670000001
 30
0
 10
49.05958329999999
 20
36.5779167
 30
0
  0
SPLINE
  5
FB
100
AcDbEntity
  8
0
  6
ByLayer
 62
    7
370
   -1
100
AcDbSpline
210
0
220
0
230
0
 70
    8
 71
    3
 72
    8
 73
    4
 74
    0
 42
1e-07
 43
1e-07
 40
0
 40
0
 40
0
 40
0
 40
1
 40
1
 40
1
 40
1
 10
49.05958329999999
 20
36.5779167
 30
0
 10
49.3700278
 20
36.52852780000001
 30
0
 10
49.60286109999998
 20
36.52147220000001
 30
0
 10
50.27313889999999
 20
36.5355833
 30
0
  0
SPLINE
  5
FC
100
AcDbEntity
  8
0
  6
ByLayer
 62
    7
370
   -1
100
AcDbSpline
210
0
220
0
230
0
 70
    8
 71
    3
 72
    8
 73
    4
 74
    0
 42
1e-07
 43
1e-07
 40
0
 40
0
 40
0
 40
0
 40
1
 40
1
 40
1
 40
1
 10
50.27313889999999
 20
36.5355833
 30
0
 10
51.13744439999999
 20
36.55322219999999
 30
0
 10
51.6489722
 20
36.6167222
 30
0
 10
52.44977779999999
 20
36.8072222
 30
0
  0
SPLINE
  5
FD
100
AcDbEntity
  8
0
  6
ByLayer
 62
    7
370
   -1
100
AcDbSpline
210
0
220
0
230
0
 70
    8
 71
    3
 72
    8
 73
    4
 74
    0
 42
1e-07
 43
1e-07
 40
0
 40
0
 40
0
 40
0
 40
1
 40
1
 40
1
 40
1
 10
52.44977779999999
 20
36.8072222
 30
0
 10
52.81313890000001
 20
36.8954167
 30
0
 10
53.5575
 20
37.12119440000001
 30
0
 10
53.5575
 20
37.1423611
 30
0
  0
SPLINE
  5
FE
100
AcDbEntity
  8
0
  6
ByLayer
 62
    7
370
   -1
100
AcDbSpline
210
0
220
0
230
0
 70
    8
 71
    3
 72
    8
 73
    4
 74
    0
 42
1e-07
 43
1e-07
 40
0
 40
0
 40
0
 40
0
 40
1
 40
1
 40
1
 40
1
 10
53.5575
 20
37.1423611
 30
0
 10
53.5575
 20
37.2481944
 30
0
 10
52.28397219999999
 20
37.58333329999999
 30
0
 10
51.14097219999999
 20
37.77383330000001
 30
0
  0
SPLINE
  5
FF
100
AcDbEntity
  8
0
  6
ByLayer
 62
    7
370
   -1
100
AcDbSpline
210
0
220
0
230
0
 70
    8
 71
    3
 72
    8
 73
    4
 74
    0
 42
1e-07
 43
1e-07
 40
0
 40
0
 40
0
 40
0
 40
1
 40
1
 40
1
 40
1
 10
51.14097219999999
 20
37.77383330000001
 30
0
 10
50.05088889999999
 20
37.9572778
 30
0
 10
49.7439722
 20
37.9855
 30
0
 10
48.72444440000001
 20
37.9855
 30
0
  0
SPLINE
  5
100
100
AcDbEntity
  8
0
  6
ByLayer
 62
    7
370
   -1
100
AcDbSpline
210
0
220
0
230
0
 70
    8
 71
    3
 72
    8
 73
    4
 74
    0
 42
1e-07
 43
1e-07
 40
0
 40
0
 40
0
 40
0
 40
1
 40
1
 40
1
 40
1
 10
48.72444440000001
 20
37.9855
 30
0
 10
47.9483333
 20
37.9890278
 30
0
 10
47.70491670000001
 20
37.9784444
 30
0
 10
47.5073611
 20
37.9325833
 30
0
  0
LWPOLYLINE
  5
101
100
AcDbEntity
  8
0
  6
ByLayer
 62
    7
370
   -1
100
AcDbPolyline
 90
    3
 70
    0
 43
0
 10
49.6346111
 20
36.1581111
 10
49.28536109999999
 20
36.0381667
 10
48.95375000000001
 20
36.3168611
  0
SPLINE
  5
102
100
AcDbEntity
  8
0
  6
ByLayer
 62
    7
370
   -1
100
AcDbSpline
210
0
220
0
230
0
 70
    8
 71
    3
 72
    8
 73
    4
 74
    0
 42
1e-07
 43
1e-07
 40
0
 40
0
 40
0
 40
0
 40
1
 40
1
 40
1
 40
1
 10
46.99583329999999
 20
38.1371944
 30
0
 10
46.79122219999999
 20
38.34180559999999
 30
0
 10
46.7524167
 20
38.39824999999999
 30
0
 10
46.81944440000001
 20
38.38061110000001
 30
0
  0
SPLINE
  5
103
100
AcDbEntity
  8
0
  6
ByLayer
 62
    7
370
   -1
100
AcDbSpline
210
0
220
0
230
0
 70
    8
 71
    3
 72
    8
 73
    4
 74
    0
 42
1e-07
 43
1e-07
 40
0
 40
0
 40
0
 40
0
 40
1
 40
1
 40
1
 40
1
 10
46.81944440000001
 20
38.38061110000001
 30
0
 10
47.7260833
 20
38.16188890000001
 30
0
 10
48.55863890000001
 20
38.1019167
 30
0
 10
49.51113889999999
 20
38.1865833
 30
0
  0
SPLINE
  5
104
100
AcDbEntity
  8
0
  6
ByLayer
 62
    7
370
   -1
100
AcDbSpline
210
0
220
0
230
0
 70
    8
 71
    3
 72
    8
 73
    4
 74
    0
 42
1e-07
 43
1e-07
 40
0
 40
0
 40
0
 40
0
 40
1
 40
1
 40
1
 40
1
 10
49.51113889999999
 20
38.1865833
 30
0
 10
50.04030560000001
 20
38.23244439999999
 30
0
 10
50.84111110000001
 20
38.3665
 30
0
 10
51.33500000000001
 20
38.48644440000001
 30
0
  0
SPLINE
  5
105
100
AcDbEntity
  8
0
  6
ByLayer
 62
    7
370
   -1
100
AcDbSpline
210
0
220
0
230
0
 70
    8
 71
    3
 72
    8
 73
    4
 74
    0
 42
1e-07
 43
1e-07
 40
0
 40
0
 40
0
 40
0
 40
1
 40
1
 40
1
 40
1
 10
51.33500000000001
 20
38.48644440000001
 30
0
 10
51.6948333
 20
38.5746389
 30
0
 10
52.48505560000001
 20
38.80747220000001
 30
0
 10
52.54502780000001
 20
38.84275
 30
0
  0
SPLINE
  5
106
100
AcDbEntity
  8
0
  6
ByLayer
 62
    7
370
   -1
100
AcDbSpline
210
0
220
0
230
0
 70
    8
 71
    3
 72
    8
 73
    4
 74
    0
 42
1e-07
 43
1e-07
 40
0
 40
0
 40
0
 40
0
 40
1
 40
1
 40
1
 40
1
 10
52.54502780000001
 20
38.84275
 30
0
 10
52.6720278
 20
38.91683330000001
 30
0
 10
51.68424999999999
 20
39.21316669999999
 30
0
 10
50.59063889999999
 20
39.43188889999999
 30
0
  0
SPLINE
  5
107
100
AcDbEntity
  8
0
  6
ByLayer
 62
    7
370
   -1
100
AcDbSpline
210
0
220
0
230
0
 70
    8
 71
    3
 72
    8
 73
    4
 74
    0
 42
1e-07
 43
1e-07
 40
0
 40
0
 40
0
 40
0
 40
1
 40
1
 40
1
 40
1
 10
50.59063889999999
 20
39.43188889999999
 30
0
 10
48.59391669999999
 20
39.827
 30
0
 10
46.73124999999999
 20
39.9363611
 30
0
 10
45.75405559999999
 20
39.7141111
 30
0
  0
SPLINE
  5
108
100
AcDbEntity
  8
0
  6
ByLayer
 62
    7
370
   -1
100
AcDbSpline
210
0
220
0
230
0
 70
    8
 71
    3
 72
    8
 73
    4
 74
    0
 42
1e-07
 43
1e-07
 40
0
 40
0
 40
0
 40
0
 40
1
 40
1
 40
1
 40
1
 10
45.75405559999999
 20
39.7141111
 30
0
 10
45.62352780000001
 20
39.68236110000001
 30
0
 10
45.5000556
 20
39.66825
 30
0
 10
45.47888889999999
 20
39.68236110000001
 30
0
  0
SPLINE
  5
109
100
AcDbEntity
  8
0
  6
ByLayer
 62
    7
370
   -1
100
AcDbSpline
210
0
220
0
230
0
 70
    8
 71
    3
 72
    8
 73
    4
 74
    0
 42
1e-07
 43
1e-07
 40
0
 40
0
 40
0
 40
0
 40
1
 40
1
 40
1
 40
1
 10
45.47888889999999
 20
39.68236110000001
 30
0
 10
45.42597219999999
 20
39.7141111
 30
0
 10
45.19313890000001
 20
40.06688890000001
 30
0
 10
45.03791670000001
 20
40.35263889999999
 30
0
  0
SPLINE
  5
10A
100
AcDbEntity
  8
0
  6
ByLayer
 62
    7
370
   -1
100
AcDbSpline
210
0
220
0
230
0
 70
    8
 71
    3
 72
    8
 73
    4
 74
    0
 42
1e-07
 43
1e-07
 40
0
 40
0
 40
0
 40
0
 40
1
 40
1
 40
1
 40
1
 10
45.03791670000001
 20
40.35263889999999
 30
0
 10
44.96736110000001
 20
40.49022220000001
 30
0
 10
44.87563890000001
 20
40.6525
 30
0
 10
44.8368333
 20
40.71247220000001
 30
0
  0
LWPOLYLINE
  5
10B
100
AcDbEntity
  8
0
  6
ByLayer
 62
    7
370
   -1
100
AcDbPolyline
 90
    3
 70
    0
 43
0
 10
47.5073611
 20
37.9325833
 10
47.26041670000001
 20
37.8726111
 10
46.99583329999999
 20
38.1371944
  0
SPLINE
  5
10C
100
AcDbEntity
  8
0
  6
ByLayer
 62
    7
370
   -1
100
AcDbSpline
210
0
220
0
230
0
 70
    8
 71
    3
 72
    8
 73
    4
 74
    0
 42
1e-07
 43
1e-07
 40
0
 40
0
 40
0
 40
0
 40
1
 40
1
 40
1
 40
1
 10
45.0096944
 20
40.73716669999999
 30
0
 10
45.52475000000001
 20
40.5396111
 30
0
 10
46.13505559999999
 20
40.39144440000001
 30
0
 10
46.81944440000001
 20
40.29266670000001
 30
0
  0
SPLINE
  5
10D
100
AcDbEntity
  8
0
  6
ByLayer
 62
    7
370
   -1
100
AcDbSpline
210
0
220
0
230
0
 70
    8
 71
    3
 72
    8
 73
    4
 74
    0
 42
1e-07
 43
1e-07
 40
0
 40
0
 40
0
 40
0
 40
1
 40
1
 40
1
 40
1
 10
46.81944440000001
 20
40.29266670000001
 30
0
 10
47.25336110000001
 20
40.23269440000001
 30
0
 10
49.10897220000001
 20
40.23269440000001
 30
0
 10
49.55347219999999
 20
40.29266670000001
 30
0
  0
SPLINE
  5
10E
100
AcDbEntity
  8
0
  6
ByLayer
 62
    7
370
   -1
100
AcDbSpline
210
0
220
0
230
0
 70
    8
 71
    3
 72
    8
 73
    4
 74
    0
 42
1e-07
 43
1e-07
 40
0
 40
0
 40
0
 40
0
 40
1
 40
1
 40
1
 40
1
 10
49.55347219999999
 20
40.29266670000001
 30
0
 10
50.19200000000001
 20
40.3773333
 30
0
 10
50.41777780000001
 20
40.41966669999999
 30
0
 10
50.41777780000001
 20
40.44788890000001
 30
0
  0
SPLINE
  5
10F
100
AcDbEntity
  8
0
  6
ByLayer
 62
    7
370
   -1
100
AcDbSpline
210
0
220
0
230
0
 70
    8
 71
    3
 72
    8
 73
    4
 74
    0
 42
1e-07
 43
1e-07
 40
0
 40
0
 40
0
 40
0
 40
1
 40
1
 40
1
 40
1
 10
50.41777780000001
 20
40.44788890000001
 30
0
 10
50.41777780000001
 20
40.55019440000001
 30
0
 10
49.33827780000001
 20
41.0405556
 30
0
 10
48.31874999999999
 20
41.4003889
 30
0
  0
SPLINE
  5
110
100
AcDbEntity
  8
0
  6
ByLayer
 62
    7
370
   -1
100
AcDbSpline
210
0
220
0
230
0
 70
    8
 71
    3
 72
    8
 73
    4
 74
    0
 42
1e-07
 43
1e-07
 40
0
 40
0
 40
0
 40
0
 40
1
 40
1
 40
1
 40
1
 10
48.31874999999999
 20
41.4003889
 30
0
 10
46.56544439999999
 20
42.02127780000001
 30
0
 10
45.3413056
 20
42.30349999999999
 30
0
 10
44.2618056
 20
42.3317222
 30
0
  0
LWPOLYLINE
  5
111
100
AcDbEntity
  8
0
  6
ByLayer
 62
    7
370
   -1
100
AcDbPolyline
 90
    3
 70
    0
 43
0
 10
44.8368333
 20
40.71247220000001
 10
44.76980560000001
 20
40.82888890000001
 10
45.0096944
 20
40.73716669999999
  0
SPLINE
  5
112
100
AcDbEntity
  8
0
  6
ByLayer
 62
    7
370
   -1
100
AcDbSpline
210
0
220
0
230
0
 70
    8
 71
    3
 72
    8
 73
    4
 74
    0
 42
1e-07
 43
1e-07
 40
0
 40
0
 40
0
 40
0
 40
1
 40
1
 40
1
 40
1
 10
43.58094439999999
 20
42.62100000000001
 30
0
 10
43.51391670000001
 20
42.7691667
 30
0
 10
43.39397220000001
 20
43.0901944
 30
0
 10
43.30930559999999
 20
43.33361109999998
 30
0
  0
SPLINE
  5
113
100
AcDbEntity
  8
0
  6
ByLayer
 62
    7
370
   -1
100
AcDbSpline
210
0
220
0
230
0
 70
    8
 71
    3
 72
    8
 73
    4
 74
    0
 42
1e-07
 43
1e-07
 40
0
 40
0
 40
0
 40
0
 40
1
 40
1
 40
1
 40
1
 10
43.30930559999999
 20
43.33361109999998
 30
0
 10
43.2246389
 20
43.5770278
 30
0
 10
43.14702779999999
 20
43.8028056
 30
0
 10
43.12938890000001
 20
43.84161109999999
 30
0
  0
SPLINE
  5
114
100
AcDbEntity
  8
0
  6
ByLayer
 62
    7
370
   -1
100
AcDbSpline
210
0
220
0
230
0
 70
    8
 71
    3
 72
    8
 73
    4
 74
    0
 42
1e-07
 43
1e-07
 40
0
 40
0
 40
0
 40
0
 40
1
 40
1
 40
1
 40
1
 10
43.12938890000001
 20
43.84161109999999
 30
0
 10
43.11175
 20
43.88394439999999
 30
0
 10
43.19641669999999
 20
43.84161109999999
 30
0
 10
43.3833889
 20
43.71461110000001
 30
0
  0
SPLINE
  5
115
100
AcDbEntity
  8
0
  6
ByLayer
 62
    7
370
   -1
100
AcDbSpline
210
0
220
0
230
0
 70
    8
 71
    3
 72
    8
 73
    4
 74
    0
 42
1e-07
 43
1e-07
 40
0
 40
0
 40
0
 40
0
 40
1
 40
1
 40
1
 40
1
 10
43.3833889
 20
43.71461110000001
 30
0
 10
44.6851389
 20
42.80444439999999
 30
0
 10
46.51252779999999
 20
42.23294440000001
 30
0
 10
48.8232222
 20
42.01069440000001
 30
0
  0
SPLINE
  5
116
100
AcDbEntity
  8
0
  6
ByLayer
 62
    7
370
   -1
100
AcDbSpline
210
0
220
0
230
0
 70
    8
 71
    3
 72
    8
 73
    4
 74
    0
 42
1e-07
 43
1e-07
 40
0
 40
0
 40
0
 40
0
 40
1
 40
1
 40
1
 40
1
 10
48.8232222
 20
42.01069440000001
 30
0
 10
49.0348889
 20
41.98952779999999
 30
0
 10
49.04547220000001
 20
41.99305559999999
 30
0
 10
49.01019439999999
 20
42.0565556
 30
0
  0
SPLINE
  5
117
100
AcDbEntity
  8
0
  6
ByLayer
 62
    7
370
   -1
100
AcDbSpline
210
0
220
0
230
0
 70
    8
 71
    3
 72
    8
 73
    4
 74
    0
 42
1e-07
 43
1e-07
 40
0
 40
0
 40
0
 40
0
 40
1
 40
1
 40
1
 40
1
 10
49.01019439999999
 20
42.0565556
 30
0
 10
48.86202779999999
 20
42.33525
 30
0
 10
47.28158329999999
 20
43.50999999999999
 30
0
 10
46.07155560000001
 20
44.2473056
 30
0
  0
SPLINE
  5
118
100
AcDbEntity
  8
0
  6
ByLayer
 62
    7
370
   -1
100
AcDbSpline
210
0
220
0
230
0
 70
    8
 71
    3
 72
    8
 73
    4
 74
    0
 42
1e-07
 43
1e-07
 40
0
 40
0
 40
0
 40
0
 40
1
 40
1
 40
1
 40
1
 10
46.07155560000001
 20
44.2473056
 30
0
 10
45.89869440000001
 20
44.3531389
 30
0
 10
45.76111109999999
 20
44.4413333
 30
0
 10
45.76111109999999
 20
44.4448611
 30
0
  0
SPLINE
  5
119
100
AcDbEntity
  8
0
  6
ByLayer
 62
    7
370
   -1
100
AcDbSpline
210
0
220
0
230
0
 70
    8
 71
    3
 72
    8
 73
    4
 74
    0
 42
1e-07
 43
1e-07
 40
0
 40
0
 40
0
 40
0
 40
1
 40
1
 40
1
 40
1
 10
45.76111109999999
 20
44.4448611
 30
0
 10
45.76111109999999
 20
44.4483889
 30
0
 10
45.8316667
 20
44.4413333
 30
0
 10
45.91986109999999
 20
44.42369439999999
 30
0
  0
SPLINE
  5
11A
100
AcDbEntity
  8
0
  6
ByLayer
 62
    7
370
   -1
100
AcDbSpline
210
0
220
0
230
0
 70
    8
 71
    3
 72
    8
 73
    4
 74
    0
 42
1e-07
 43
1e-07
 40
0
 40
0
 40
0
 40
0
 40
1
 40
1
 40
1
 40
1
 10
45.91986109999999
 20
44.42369439999999
 30
0
 10
46.4737222
 20
44.32138889999999
 30
0
 10
48.28700000000001
 20
44.1838056
 30
0
 10
48.44575
 20
44.2331944
 30
0
  0
SPLINE
  5
11B
100
AcDbEntity
  8
0
  6
ByLayer
 62
    7
370
   -1
100
AcDbSpline
210
0
220
0
230
0
 70
    8
 71
    3
 72
    8
 73
    4
 74
    0
 42
1e-07
 43
1e-07
 40
0
 40
0
 40
0
 40
0
 40
1
 40
1
 40
1
 40
1
 10
48.44575
 20
44.2331944
 30
0
 10
48.51630560000001
 20
44.25788890000001
 30
0
 10
48.51277780000001
 20
44.26494439999999
 30
0
 10
48.40341670000001
 20
44.38136109999999
 30
0
  0
SPLINE
  5
11C
100
AcDbEntity
  8
0
  6
ByLayer
 62
    7
370
   -1
100
AcDbSpline
210
0
220
0
230
0
 70
    8
 71
    3
 72
    8
 73
    4
 74
    0
 42
1e-07
 43
1e-07
 40
0
 40
0
 40
0
 40
0
 40
1
 40
1
 40
1
 40
1
 10
48.40341670000001
 20
44.38136109999999
 30
0
 10
48.25172219999999
 20
44.53658329999999
 30
0
 10
47.33802779999999
 20
45.14688889999999
 30
0
 10
46.71361110000001
 20
45.50319440000001
 30
0
  0
SPLINE
  5
11D
100
AcDbEntity
  8
0
  6
ByLayer
 62
    7
370
   -1
100
AcDbSpline
210
0
220
0
230
0
 70
    8
 71
    3
 72
    8
 73
    4
 74
    0
 42
1e-07
 43
1e-07
 40
0
 40
0
 40
0
 40
0
 40
1
 40
1
 40
1
 40
1
 10
46.71361110000001
 20
45.50319440000001
 30
0
 10
44.76275000000001
 20
46.6250278
 30
0
 10
42.96711110000001
 20
47.3341111
 30
0
 10
41.7394444
 20
47.47522219999999
 30
0
  0
LWPOLYLINE
  5
11E
100
AcDbEntity
  8
0
  6
ByLayer
 62
    7
370
   -1
100
AcDbPolyline
 90
    3
 70
    0
 43
0
 10
44.2618056
 20
42.3317222
 10
43.69736109999999
 20
42.34583330000001
 10
43.58094439999999
 20
42.62100000000001
  0
SPLINE
  5
11F
100
AcDbEntity
  8
0
  6
ByLayer
 62
    7
370
   -1
100
AcDbSpline
210
0
220
0
230
0
 70
    8
 71
    3
 72
    8
 73
    4
 74
    0
 42
1e-07
 43
1e-07
 40
0
 40
0
 40
0
 40
0
 40
1
 40
1
 40
1
 40
1
 10
41.46074999999999
 20
47.94794440000001
 30
0
 10
41.13972219999999
 20
49.65891669999999
 30
0
 10
40.57527780000001
 20
51.33461109999999
 30
0
 10
39.87677780000001
 20
52.6469444
 30
0
  0
SPLINE
  5
120
100
AcDbEntity
  8
0
  6
ByLayer
 62
    7
370
   -1
100
AcDbSpline
210
0
220
0
230
0
 70
    8
 71
    3
 72
    8
 73
    4
 74
    0
 42
1e-07
 43
1e-07
 40
0
 40
0
 40
0
 40
0
 40
1
 40
1
 40
1
 40
1
 10
39.87677780000001
 20
52.6469444
 30
0
 10
39.65805560000001
 20
53.05969440000001
 30
0
 10
39.55927779999999
 20
53.2043333
 30
0
 10
39.3546667
 20
53.4124722
 30
0
  0
SPLINE
  5
121
100
AcDbEntity
  8
0
  6
ByLayer
 62
    7
370
   -1
100
AcDbSpline
210
0
220
0
230
0
 70
    8
 71
    3
 72
    8
 73
    4
 74
    0
 42
1e-07
 43
1e-07
 40
0
 40
0
 40
0
 40
0
 40
1
 40
1
 40
1
 40
1
 10
39.3546667
 20
53.4124722
 30
0
 10
39.21708330000001
 20
53.55358330000001
 30
0
 10
39.0865556
 20
53.66999999999999
 30
0
 10
39.06538889999999
 20
53.66999999999999
 30
0
  0
SPLINE
  5
122
100
AcDbEntity
  8
0
  6
ByLayer
 62
    7
370
   -1
100
AcDbSpline
210
0
220
0
230
0
 70
    8
 71
    3
 72
    8
 73
    4
 74
    0
 42
1e-07
 43
1e-07
 40
0
 40
0
 40
0
 40
0
 40
1
 40
1
 40
1
 40
1
 10
39.06538889999999
 20
53.66999999999999
 30
0
 10
39.04422220000001
 20
53.66999999999999
 30
0
 10
38.9771944
 20
53.59944440000001
 30
0
 10
38.9172222
 20
53.51477779999999
 30
0
  0
LWPOLYLINE
  5
123
100
AcDbEntity
  8
0
  6
ByLayer
 62
    7
370
   -1
100
AcDbPolyline
 90
    3
 70
    0
 43
0
 10
41.7394444
 20
47.47522219999999
 10
41.5454167
 20
47.4999167
 10
41.46074999999999
 20
47.94794440000001
  0
SPLINE
  5
124
100
AcDbEntity
  8
0
  6
ByLayer
 62
    7
370
   -1
100
AcDbSpline
210
0
220
0
230
0
 70
    8
 71
    3
 72
    8
 73
    4
 74
    0
 42
1e-07
 43
1e-07
 40
0
 40
0
 40
0
 40
0
 40
1
 40
1
 40
1
 40
1
 10
42.90361110000001
 20
43.22425000000001
 30
0
 10
43.00944440000001
 20
42.91027779999999
 30
0
 10
43.10116669999999
 20
42.6456944
 30
0
 10
43.1046944
 20
42.63158329999999
 30
0
  0
SPLINE
  5
125
100
AcDbEntity
  8
0
  6
ByLayer
 62
    7
370
   -1
100
AcDbSpline
210
0
220
0
230
0
 70
    8
 71
    3
 72
    8
 73
    4
 74
    0
 42
1e-07
 43
1e-07
 40
0
 40
0
 40
0
 40
0
 40
1
 40
1
 40
1
 40
1
 10
43.1046944
 20
42.63158329999999
 30
0
 10
43.11175
 20
42.62100000000001
 30
0
 10
43.01650000000001
 20
42.6104167
 30
0
 10
42.8930278
 20
42.6068889
 30
0
  0
SPLINE
  5
126
100
AcDbEntity
  8
0
  6
ByLayer
 62
    7
370
   -1
100
AcDbSpline
210
0
220
0
230
0
 70
    8
 71
    3
 72
    8
 73
    4
 74
    0
 42
1e-07
 43
1e-07
 40
0
 40
0
 40
0
 40
0
 40
1
 40
1
 40
1
 40
1
 10
42.8930278
 20
42.6068889
 30
0
 10
42.74838890000001
 20
42.6033611
 30
0
 10
42.60374999999999
 20
42.57513890000001
 30
0
 10
42.4555833
 20
42.51516670000001
 30
0
  0
LWPOLYLINE
  5
127
100
AcDbEntity
  8
0
  6
ByLayer
 62
    7
370
   -1
100
AcDbPolyline
 90
    1
 70
    1
 43
0
 10
38.9172222
 20
53.51477779999999
  0
SPLINE
  5
128
100
AcDbEntity
  8
0
  6
ByLayer
 62
    7
370
   -1
100
AcDbSpline
210
0
220
0
230
0
 70
    8
 71
    3
 72
    8
 73
    4
 74
    0
 42
1e-07
 43
1e-07
 40
0
 40
0
 40
0
 40
0
 40
1
 40
1
 40
1
 40
1
 10
42.31094440000001
 20
42.6068889
 30
0
 10
42.42736110000001
 20
42.89616670000001
 30
0
 10
42.6178611
 20
43.48883330000001
 30
0
 10
42.64255560000001
 20
43.64758330000001
 30
0
  0
SPLINE
  5
129
100
AcDbEntity
  8
0
  6
ByLayer
 62
    7
370
   -1
100
AcDbSpline
210
0
220
0
230
0
 70
    8
 71
    3
 72
    8
 73
    4
 74
    0
 42
1e-07
 43
1e-07
 40
0
 40
0
 40
0
 40
0
 40
1
 40
1
 40
1
 40
1
 10
42.64255560000001
 20
43.64758330000001
 30
0
 10
42.65666669999999
 20
43.72519439999999
 30
0
 10
42.6743056
 20
43.7922222
 30
0
 10
42.6884167
 20
43.7922222
 30
0
  0
SPLINE
  5
12A
100
AcDbEntity
  8
0
  6
ByLayer
 62
    7
370
   -1
100
AcDbSpline
210
0
220
0
230
0
 70
    8
 71
    3
 72
    8
 73
    4
 74
    0
 42
1e-07
 43
1e-07
 40
0
 40
0
 40
0
 40
0
 40
1
 40
1
 40
1
 40
1
 10
42.6884167
 20
43.7922222
 30
0
 10
42.69900000000001
 20
43.7922222
 30
0
 10
42.79777780000001
 20
43.53469440000001
 30
0
 10
42.90361110000001
 20
43.22425000000001
 30
0
  0
LWPOLYLINE
  5
12B
100
AcDbEntity
  8
0
  6
ByLayer
 62
    7
370
   -1
100
AcDbPolyline
 90
    3
 70
    0
 43
0
 10
42.4555833
 20
42.51516670000001
 10
42.2368611
 20
42.42697219999999
 10
42.31094440000001
 20
42.6068889
  0
SPLINE
  5
12C
100
AcDbEntity
  8
0
  6
ByLayer
 62
    7
370
   -1
100
AcDbSpline
210
0
220
0
230
0
 70
    8
 71
    3
 72
    8
 73
    4
 74
    0
 42
1e-07
 43
1e-07
 40
0
 40
0
 40
0
 40
0
 40
1
 40
1
 40
1
 40
1
 10
44.6886667
 20
40.0527778
 30
0
 10
44.8015556
 20
39.84816670000001
 30
0
 10
44.95325
 20
39.59416669999999
 30
0
 10
45.0238056
 20
39.48480559999999
 30
0
  0
LWPOLYLINE
  5
12D
100
AcDbEntity
  8
0
  6
ByLayer
 62
    7
370
   -1
100
AcDbPolyline
 90
    1
 70
    1
 43
0
 10
42.90361110000001
 20
43.22425000000001
  0
SPLINE
  5
12E
100
AcDbEntity
  8
0
  6
ByLayer
 62
    7
370
   -1
100
AcDbSpline
210
0
220
0
230
0
 70
    8
 71
    3
 72
    8
 73
    4
 74
    0
 42
1e-07
 43
1e-07
 40
0
 40
0
 40
0
 40
0
 40
1
 40
1
 40
1
 40
1
 10
45.02733330000001
 20
39.2413889
 30
0
 10
44.9603056
 20
39.21669439999999
 30
0
 10
44.82624999999999
 20
39.1214444
 30
0
 10
44.7345278
 20
39.02972220000001
 30
0
  0
SPLINE
  5
12F
100
AcDbEntity
  8
0
  6
ByLayer
 62
    7
370
   -1
100
AcDbSpline
210
0
220
0
230
0
 70
    8
 71
    3
 72
    8
 73
    4
 74
    0
 42
1e-07
 43
1e-07
 40
0
 40
0
 40
0
 40
0
 40
1
 40
1
 40
1
 40
1
 10
44.7345278
 20
39.02972220000001
 30
0
 10
44.54402780000001
 20
38.83922219999999
 30
0
 10
44.5263889
 20
38.8498056
 30
0
 10
44.5263889
 20
39.1708333
 30
0
  0
SPLINE
  5
130
100
AcDbEntity
  8
0
  6
ByLayer
 62
    7
370
   -1
100
AcDbSpline
210
0
220
0
230
0
 70
    8
 71
    3
 72
    8
 73
    4
 74
    0
 42
1e-07
 43
1e-07
 40
0
 40
0
 40
0
 40
0
 40
1
 40
1
 40
1
 40
1
 10
44.5263889
 20
39.1708333
 30
0
 10
44.5263889
 20
39.42483329999999
 30
0
 10
44.43466670000001
 20
40.1021667
 30
0
 10
44.3641111
 20
40.3738056
 30
0
  0
SPLINE
  5
131
100
AcDbEntity
  8
0
  6
ByLayer
 62
    7
370
   -1
100
AcDbSpline
210
0
220
0
230
0
 70
    8
 71
    3
 72
    8
 73
    4
 74
    0
 42
1e-07
 43
1e-07
 40
0
 40
0
 40
0
 40
0
 40
1
 40
1
 40
1
 40
1
 10
44.3641111
 20
40.3738056
 30
0
 10
44.33588889999999
 20
40.4831667
 30
0
 10
44.31472220000001
 20
40.5960556
 30
0
 10
44.31472220000001
 20
40.62074999999999
 30
0
  0
SPLINE
  5
132
100
AcDbEntity
  8
0
  6
ByLayer
 62
    7
370
   -1
100
AcDbSpline
210
0
220
0
230
0
 70
    8
 71
    3
 72
    8
 73
    4
 74
    0
 42
1e-07
 43
1e-07
 40
0
 40
0
 40
0
 40
0
 40
1
 40
1
 40
1
 40
1
 10
44.31472220000001
 20
40.62074999999999
 30
0
 10
44.31472220000001
 20
40.68777779999999
 30
0
 10
44.44877779999999
 20
40.4866944
 30
0
 10
44.6886667
 20
40.0527778
 30
0
  0
LWPOLYLINE
  5
133
100
AcDbEntity
  8
0
  6
ByLayer
 62
    7
370
   -1
100
AcDbPolyline
 90
    3
 70
    0
 43
0
 10
45.0238056
 20
39.48480559999999
 10
45.15433329999999
 20
39.28725
 10
45.02733330000001
 20
39.2413889
  0
SPLINE
  5
134
100
AcDbEntity
  8
0
  6
ByLayer
 62
    7
370
   -1
100
AcDbSpline
210
0
220
0
230
0
 70
    8
 71
    3
 72
    8
 73
    4
 74
    0
 42
1e-07
 43
1e-07
 40
0
 40
0
 40
0
 40
0
 40
1
 40
1
 40
1
 40
1
 10
50.75291670000001
 20
34.4400833
 30
0
 10
50.94694440000001
 20
34.3307222
 30
0
 10
51.2044722
 20
34.18961110000001
 30
0
 10
51.32794440000001
 20
34.1296389
 30
0
  0
LWPOLYLINE
  5
135
100
AcDbEntity
  8
0
  6
ByLayer
 62
    7
370
   -1
100
AcDbPolyline
 90
    1
 70
    1
 43
0
 10
44.6886667
 20
40.0527778
  0
SPLINE
  5
136
100
AcDbEntity
  8
0
  6
ByLayer
 62
    7
370
   -1
100
AcDbSpline
210
0
220
0
230
0
 70
    8
 71
    3
 72
    8
 73
    4
 74
    0
 42
1e-07
 43
1e-07
 40
0
 40
0
 40
0
 40
0
 40
1
 40
1
 40
1
 40
1
 10
51.44436110000001
 20
33.88622220000001
 30
0
 10
51.3173611
 20
33.73099999999999
 30
0
 10
51.23622219999999
 20
33.51580559999999
 30
0
 10
51.208
 20
33.2582778
 30
0
  0
LWPOLYLINE
  5
137
100
AcDbEntity
  8
0
  6
ByLayer
 62
    7
370
   -1
100
AcDbPolyline
 90
    3
 70
    0
 43
0
 10
51.32794440000001
 20
34.1296389
 10
51.55019440000001
 20
34.01675
 10
51.44436110000001
 20
33.88622220000001
  0
SPLINE
  5
138
100
AcDbEntity
  8
0
  6
ByLayer
 62
    7
370
   -1
100
AcDbSpline
210
0
220
0
230
0
 70
    8
 71
    3
 72
    8
 73
    4
 74
    0
 42
1e-07
 43
1e-07
 40
0
 40
0
 40
0
 40
0
 40
1
 40
1
 40
1
 40
1
 10
50.97869439999999
 20
33.3711667
 30
0
 10
50.69647219999999
 20
33.78038890000001
 30
0
 10
50.20963889999999
 20
34.4295
 30
0
 10
49.8991944
 20
34.8034444
 30
0
  0
SPLINE
  5
139
100
AcDbEntity
  8
0
  6
ByLayer
 62
    7
370
   -1
100
AcDbSpline
210
0
220
0
230
0
 70
    8
 71
    3
 72
    8
 73
    4
 74
    0
 42
1e-07
 43
1e-07
 40
0
 40
0
 40
0
 40
0
 40
1
 40
1
 40
1
 40
1
 10
49.8991944
 20
34.8034444
 30
0
 10
49.75808330000001
 20
34.9727778
 30
0
 10
49.6416667
 20
35.11741670000001
 30
0
 10
49.6416667
 20
35.128
 30
0
  0
SPLINE
  5
13A
100
AcDbEntity
  8
0
  6
ByLayer
 62
    7
370
   -1
100
AcDbSpline
210
0
220
0
230
0
 70
    8
 71
    3
 72
    8
 73
    4
 74
    0
 42
1e-07
 43
1e-07
 40
0
 40
0
 40
0
 40
0
 40
1
 40
1
 40
1
 40
1
 10
49.6416667
 20
35.128
 30
0
 10
49.6416667
 20
35.1350556
 30
0
 10
49.81100000000001
 20
35.02922219999999
 30
0
 10
50.0226667
 20
34.8916389
 30
0
  0
SPLINE
  5
13B
100
AcDbEntity
  8
0
  6
ByLayer
 62
    7
370
   -1
100
AcDbSpline
210
0
220
0
230
0
 70
    8
 71
    3
 72
    8
 73
    4
 74
    0
 42
1e-07
 43
1e-07
 40
0
 40
0
 40
0
 40
0
 40
1
 40
1
 40
1
 40
1
 10
50.0226667
 20
34.8916389
 30
0
 10
50.2308056
 20
34.7505278
 30
0
 10
50.5588889
 20
34.5494444
 30
0
 10
50.75291670000001
 20
34.4400833
 30
0
  0
LWPOLYLINE
  5
13C
100
AcDbEntity
  8
0
  6
ByLayer
 62
    7
370
   -1
100
AcDbPolyline
 90
    3
 70
    0
 43
0
 10
51.208
 20
33.2582778
 10
51.18330560000001
 20
33.0677778
 10
50.97869439999999
 20
33.3711667
  0
LWPOLYLINE
  5
13D
100
AcDbEntity
  8
0
  6
ByLayer
 62
    7
370
   -1
100
AcDbPolyline
 90
    1
 70
    1
 43
0
 10
50.75291670000001
 20
34.4400833
  0
SPLINE
  5
13E
100
AcDbEntity
  8
0
  6
ByLayer
 62
    7
370
   -1
100
AcDbSpline
210
0
220
0
230
0
 70
    8
 71
    3
 72
    8
 73
    4
 74
    0
 42
1e-07
 43
1e-07
 40
0
 40
0
 40
0
 40
0
 40
1
 40
1
 40
1
 40
1
 10
67.8520556
 20
33.0607222
 30
0
 10
67.76033330000001
 20
32.94430560000001
 30
0
 10
67.4181389
 20
32.20699999999999
 30
0
 10
67.33347219999999
 20
31.93183329999999
 30
0
  0
SPLINE
  5
13F
100
AcDbEntity
  8
0
  6
ByLayer
 62
    7
370
   -1
100
AcDbSpline
210
0
220
0
230
0
 70
    8
 71
    3
 72
    8
 73
    4
 74
    0
 42
1e-07
 43
1e-07
 40
0
 40
0
 40
0
 40
0
 40
1
 40
1
 40
1
 40
1
 10
67.33347219999999
 20
31.93183329999999
 30
0
 10
67.28055560000001
 20
31.7625
 30
0
 10
67.22058329999999
 20
31.60727780000001
 30
0
 10
67.1958889
 20
31.5896389
 30
0
  0
SPLINE
  5
140
100
AcDbEntity
  8
0
  6
ByLayer
 62
    7
370
   -1
100
AcDbSpline
210
0
220
0
230
0
 70
    8
 71
    3
 72
    8
 73
    4
 74
    0
 42
1e-07
 43
1e-07
 40
0
 40
0
 40
0
 40
0
 40
1
 40
1
 40
1
 40
1
 10
67.1958889
 20
31.5896389
 30
0
 10
67.1535556
 20
31.55436109999999
 30
0
 10
66.08111109999999
 20
31.51908330000001
 30
0
 10
66.08111109999999
 20
31.55083329999999
 30
0
  0
SPLINE
  5
141
100
AcDbEntity
  8
0
  6
ByLayer
 62
    7
370
   -1
100
AcDbSpline
210
0
220
0
230
0
 70
    8
 71
    3
 72
    8
 73
    4
 74
    0
 42
1e-07
 43
1e-07
 40
0
 40
0
 40
0
 40
0
 40
1
 40
1
 40
1
 40
1
 10
66.08111109999999
 20
31.55083329999999
 30
0
 10
66.08111109999999
 20
31.5614167
 30
0
 10
66.18694439999999
 20
31.63902779999999
 30
0
 10
66.31041669999999
 20
31.72016669999999
 30
0
  0
SPLINE
  5
142
100
AcDbEntity
  8
0
  6
ByLayer
 62
    7
370
   -1
100
AcDbSpline
210
0
220
0
230
0
 70
    8
 71
    3
 72
    8
 73
    4
 74
    0
 42
1e-07
 43
1e-07
 40
0
 40
0
 40
0
 40
0
 40
1
 40
1
 40
1
 40
1
 10
66.31041669999999
 20
31.72016669999999
 30
0
 10
66.6032222
 20
31.9177222
 30
0
 10
67.22058329999999
 20
32.4539444
 30
0
 10
67.5804167
 20
32.8173056
 30
0
  0
SPLINE
  5
143
100
AcDbEntity
  8
0
  6
ByLayer
 62
    7
370
   -1
100
AcDbSpline
210
0
220
0
230
0
 70
    8
 71
    3
 72
    8
 73
    4
 74
    0
 42
1e-07
 43
1e-07
 40
0
 40
0
 40
0
 40
0
 40
1
 40
1
 40
1
 40
1
 10
67.5804167
 20
32.8173056
 30
0
 10
67.83088889999999
 20
33.07483329999999
 30
0
 10
67.9508333
 20
33.1806667
 30
0
 10
67.8520556
 20
33.0607222
 30
0
  0
LWPOLYLINE
  5
144
100
AcDbEntity
  8
0
  6
ByLayer
 62
    7
370
   -1
100
AcDbPolyline
 90
    1
 70
    1
 43
0
 10
67.8520556
 20
33.0607222
  0
ENDSEC
  0
SECTION
  2
OBJECTS
  0
DICTIONARY
  5
C
330
0
100
AcDbDictionary
281
    1
  3
ACAD_GROUP
350
D
  0
DICTIONARY
  5
D
330
C
100
AcDbDictionary
281
    1
  0
ENDSEC
  0
EOF
