999
dxfrw 0.6.3
  0
SECTION
  2
HEADER
  9
$ACADVER
  1
AC1021
  9
$DWGCODEPAGE
  3
ANSI_1252
  9
$INSBASE
 10
0
 20
0
 30
0
  9
$EXTMIN
 10
0
 20
0
 30
0
  9
$EXTMAX
 10
10.645575
 20
10.265847
 30
0
  9
$LIMMIN
 10
0
 20
0
  9
$LIMMAX
 10
420
 20
297
  9
$ORTHOMODE
 70
    0
  9
$REGENMODE
 70
    1
  9
$FILLMODE
 70
    1
  9
$QTEXTMODE
 70
    0
  9
$MIRRTEXT
 70
    0
  9
$LTSCALE
 40
1
  9
$ATTMODE
 70
    0
  9
$TEXTSIZE
 40
2.5
  9
$TRACEWID
 40
15.68
  9
$TEXTSTYLE
  7
STANDARD
  9
$CLAYER
  8
0
  9
$CELTYPE
  6
BYLAYER
  9
$CECOLOR
 62
  256
  9
$CELTSCALE
 40
1
  9
$DISPSILH
 70
    0
  9
$DIMSCALE
 40
2.5
  9
$DIMASZ
 40
2.5
  9
$DIMEXO
 40
0.625
  9
$DIMDLI
 40
3.75
  9
$DIMRND
 40
0
  9
$DIMDLE
 40
0
  9
$DIMEXE
 40
1.25
  9
$DIMTP
 40
0
  9
$DIMTM
 40
0
  9
$DIMTXT
 40
2.5
  9
$DIMCEN
 40
2.5
  9
$DIMTSZ
 40
0
  9
$DIMTOL
 70
    0
  9
$DIMLIM
 70
    0
  9
$DIMTIH
 70
    0
  9
$DIMTOH
 70
    0
  9
$DIMSE1
 70
    0
  9
$DIMSE2
 70
    0
  9
$DIMTAD
 70
    1
  9
$DIMZIN
 70
    8
  9
$DIMBLK
  1

  9
$DIMASO
 70
    1
  9
$DIMSHO
 70
    1
  9
$DIMPOST
  1

  9
$DIMAPOST
  1

  9
$DIMALT
 70
    0
  9
$DIMALTD
 70
    3
  9
$DIMALTF
 40
0.03937
  9
$DIMLFAC
 40
1
  9
$DIMTOFL
 70
    1
  9
$DIMTVP
 40
0
  9
$DIMTIX
 70
    0
  9
$DIMSOXD
 70
    0
  9
$DIMSAH
 70
    0
  9
$DIMBLK1
  1

  9
$DIMBLK2
  1

  9
$DIMSTYLE
  2
STANDARD
  9
$DIMCLRD
 70
    0
  9
$DIMCLRE
 70
    0
  9
$DIMCLRT
 70
    0
  9
$DIMTFAC
 40
1
  9
$DIMGAP
 40
0.625
  9
$DIMJUST
 70
    0
  9
$DIMSD1
 70
    0
  9
$DIMSD2
 70
    0
  9
$DIMTOLJ
 70
    0
  9
$DIMTZIN
 70
    8
  9
$DIMALTZ
 70
    0
  9
$DIMALTTZ
 70
    0
  9
$DIMUPT
 70
    0
  9
$DIMDEC
 70
    2
  9
$DIMTDEC
 70
    2
  9
$DIMALTU
 70
    2
  9
$DIMALTTD
 70
    3
  9
$DIMTXSTY
  7
STANDARD
  9
$DIMAUNIT
 70
    0
  9
$DIMADEC
 70
    0
  9
$DIMALTRND
 40
0
  9
$DIMAZIN
 70
    0
  9
$DIMDSEP
 70
   44
  9
$DIMATFIT
 70
    3
  9
$DIMFRAC
 70
    0
  9
$DIMLDRBLK
  1
STANDARD
  9
$DIMLUNIT
 70
    2
  9
$DIMLWD
 70
   -2
  9
$DIMLWE
 70
   -2
  9
$DIMTMOVE
 70
    0
  9
$DIMFXL
 40
1
  9
$DIMFXLON
 70
    0
  9
$DIMJOGANG
 40
0.7854
  9
$DIMTFILL
 70
    0
  9
$DIMTFILLCLR
 70
    0
  9
$DIMARCSYM
 70
    0
  9
$DIMLTYPE
  6

  9
$DIMLTEX1
  6

  9
$DIMLTEX2
  6

  9
$LUNITS
 70
    2
  9
$LUPREC
 70
    4
  9
$SKETCHINC
 40
1
  9
$FILLETRAD
 40
0
  9
$AUNITS
 70
    0
  9
$AUPREC
 70
    2
  9
$MENU
  1
.
  9
$ELEVATION
 40
0
  9
$PELEVATION
 40
0
  9
$THICKNESS
 40
0
  9
$LIMCHECK
 70
    0
  9
$CHAMFERA
 40
0
  9
$CHAMFERB
 40
0
  9
$CHAMFERC
 40
0
  9
$CHAMFERD
 40
0
  9
$SKPOLY
 70
    0
  9
$USRTIMER
 70
    1
  9
$ANGBASE
 50
0
  9
$ANGDIR
 70
    0
  9
$PDMODE
 70
   34
  9
$PDSIZE
 40
0
  9
$PLINEWID
 40
0
  9
$SPLFRAME
 70
    0
  9
$SPLINETYPE
 70
    2
  9
$SPLINESEGS
 70
    8
  9
$HANDSEED
  5
20000
  9
$SURFTAB1
 70
    6
  9
$SURFTAB2
 70
    6
  9
$SURFTYPE
 70
    6
  9
$SURFU
 70
    6
  9
$SURFV
 70
    6
  9
$UCSBASE
  2

  9
$UCSNAME
  2

  9
$UCSORG
 10
0
 20
0
 30
0
  9
$UCSXDIR
 10
1
 20
0
 30
0
  9
$UCSYDIR
 10
0
 20
1
 30
0
  9
$UCSORTHOREF
  2

  9
$UCSORTHOVIEW
 70
    0
  9
$UCSORGTOP
 10
0
 20
0
 30
0
  9
$UCSORGBOTTOM
 10
0
 20
0
 30
0
  9
$UCSORGLEFT
 10
0
 20
0
 30
0
  9
$UCSORGRIGHT
 10
0
 20
0
 30
0
  9
$UCSORGFRONT
 10
0
 20
0
 30
0
  9
$UCSORGBACK
 10
0
 20
0
 30
0
  9
$PUCSBASE
  2

  9
$PUCSNAME
  2

  9
$PUCSORG
 10
0
 20
0
 30
0
  9
$PUCSXDIR
 10
1
 20
0
 30
0
  9
$PUCSYDIR
 10
0
 20
1
 30
0
  9
$PUCSORTHOREF
  2

  9
$PUCSORTHOVIEW
 70
    0
  9
$PUCSORGTOP
 10
0
 20
0
 30
0
  9
$PUCSORGBOTTOM
 10
0
 20
0
 30
0
  9
$PUCSORGLEFT
 10
0
 20
0
 30
0
  9
$PUCSORGRIGHT
 10
0
 20
0
 30
0
  9
$PUCSORGFRONT
 10
0
 20
0
 30
0
  9
$PUCSORGBACK
 10
0
 20
0
 30
0
  9
$USERI1
 70
    0
  9
$USERI2
 70
    0
  9
$USERI3
 70
    0
  9
$USERI4
 70
    0
  9
$USERI5
 70
    0
  9
$USERR1
 40
0
  9
$USERR2
 40
0
  9
$USERR3
 40
0
  9
$USERR4
 40
0
  9
$USERR5
 40
0
  9
$WORLDVIEW
 70
    1
  9
$SHADEDGE
 70
    3
  9
$SHADEDIF
 70
   70
  9
$TILEMODE
 70
    1
  9
$MAXACTVP
 70
   64
  9
$PINSBASE
 10
0
 20
0
 30
0
  9
$PLIMCHECK
 70
    0
  9
$PEXTMIN
 10
0
 20
0
 30
0
  9
$PEXTMAX
 10
0
 20
0
 30
0
  9
$GRIDMODE
 70
    1
  9
$SNAPSTYLE
 70
    0
  9
$PLIMMIN
 10
0
 20
0
  9
$PLIMMAX
 10
210
 20
297
  9
$UNITMODE
 70
    0
  9
$VISRETAIN
 70
    1
  9
$PLINEGEN
 70
    0
  9
$PSLTSCALE
 70
    1
  9
$TREEDEPTH
 70
 3020
  9
$CMLSTYLE
  2
Standard
  9
$CMLJUST
 70
    0
  9
$CMLSCALE
 40
20
  9
$PROXYGRAPHICS
 70
    1
  9
$MEASUREMENT
 70
    1
  9
$CELWEIGHT
370
   -1
  9
$ENDCAPS
280
    0
  9
$JOINSTYLE
280
    0
  9
$LWDISPLAY
290
    0
  9
$INSUNITS
 70
    4
  9
$HYPERLINKBASE
  1

  9
$STYLESHEET
  1

  9
$XEDIT
290
    1
  9
$CEPSNTYPE
380
    0
  9
$PSTYLEMODE
290
    1
  9
$EXTNAMES
290
    1
  9
$PSVPSCALE
 40
1
  9
$OLESTARTUP
290
    0
  9
$SORTENTS
280
  127
  9
$INDEXCTL
280
    0
  9
$HIDETEXT
280
    1
  9
$XCLIPFRAME
290
    0
  9
$HALOGAP
280
    0
  9
$OBSCOLOR
 70
  257
  9
$OBSLTYPE
280
    0
  9
$INTERSECTIONDISPLAY
280
    0
  9
$INTERSECTIONCOLOR
 70
  257
  9
$DIMASSOC
280
    1
  9
$PROJECTNAME
  1

  9
$CAMERADISPLAY
290
    0
  9
$LENSLENGTH
 40
50
  9
$CAMERAHEIGHT
 40
0
  9
$STEPSPERSEC
 40
2
  9
$STEPSIZE
 40
50
  9
$3DDWFPREC
 40
2
  9
$PSOLWIDTH
 40
5
  9
$PSOLHEIGHT
 40
80
  9
$LOFTANG1
 40
1.570796326794897
  9
$LOFTANG2
 40
1.570796326794897
  9
$LOFTMAG1
 40
0
  9
$LOFTMAG2
 40
0
  9
$LOFTPARAM
 70
    7
  9
$LOFTNORMALS
280
    1
  9
$LATITUDE
 40
1
  9
$LONGITUDE
 40
1
  9
$NORTHDIRECTION
 40
0
  9
$TIMEZONE
 70
-8000
  9
$LIGHTGLYPHDISPLAY
280
    1
  9
$TILEMODELIGHTSYNCH
280
    1
  9
$SOLIDHIST
280
    1
  9
$SHOWHIST
280
    1
  9
$DWFFRAME
280
    2
  9
$DGNFRAME
280
    0
  9
$REALWORLDSCALE
290
    1
  9
$INTERFERECOLOR
 62
    1
  9
$CSHADOW
280
    0
  9
$SHADOWPLANELOCATION
 40
0
  0
ENDSEC
  0
SECTION
  2
CLASSES
  0
ENDSEC
  0
SECTION
  2
TABLES
  0
TABLE
  2
VPORT
  5
8
330
0
100
AcDbSymbolTable
 70
    1
  0
VPORT
  5
31
330
2
100
AcDbSymbolTableRecord
100
AcDbViewportTableRecord
  2
*ACTIVE
 70
    0
 10
0
 20
0
 11
1
 21
1
 12
9.709909947856554
 22
7.082145539525738
 13
0
 23
0
 14
10
 24
10
 15
10
 25
10
 16
0
 26
0
 36
1
 17
0
 27
0
 37
0
 40
16.2793209686836
 41
1.633858267716535
 42
50
 43
0
 44
0
 50
0
 51
0
 71
    0
 72
  100
 73
    1
 74
    3
 75
    0
 76
    1
 77
    0
 78
    0
281
    0
 65
    1
110
0
120
0
130
0
111
1
121
0
131
0
112
0
122
1
132
0
 79
    0
146
0
348
10020
 60
    7
 61
    5
292
1
282
    1
141
0
142
0
 63
  250
421
3358443
  0
ENDTAB
  0
TABLE
  2
LTYPE
  5
5
330
0
100
AcDbSymbolTable
 70
    4
  0
LTYPE
  5
14
330
5
100
AcDbSymbolTableRecord
100
AcDbLinetypeTableRecord
  2
ByBlock
 70
    0
  3

 72
   65
 73
    0
 40
0
  0
LTYPE
  5
15
330
5
100
AcDbSymbolTableRecord
100
AcDbLinetypeTableRecord
  2
ByLayer
 70
    0
  3

 72
   65
 73
    0
 40
0
  0
LTYPE
  5
16
330
5
100
AcDbSymbolTableRecord
100
AcDbLinetypeTableRecord
  2
Continuous
 70
    0
  3
Solid line
 72
   65
 73
    0
 40
0
  0
LTYPE
  5
32
330
5
100
AcDbSymbolTableRecord
100
AcDbLinetypeTableRecord
  2
DOT
 70
    0
  3
Dot . . . . . . . . . . . . . . . . . . . . . .
 72
   65
 73
    2
 40
6.35
 49
0
 74
    0
 49
-6.35
 74
    0
  0
LTYPE
  5
33
330
5
100
AcDbSymbolTableRecord
100
AcDbLinetypeTableRecord
  2
DOTTINY
 70
    0
  3
Dot (.15x) .....................................
 72
   65
 73
    2
 40
0.9525
 49
0
 74
    0
 49
-0.9525
 74
    0
  0
LTYPE
  5
34
330
5
100
AcDbSymbolTableRecord
100
AcDbLinetypeTableRecord
  2
DOT2
 70
    0
  3
Dot (.5x) .....................................
 72
   65
 73
    2
 40
3.175
 49
0
 74
    0
 49
-3.175
 74
    0
  0
LTYPE
  5
35
330
5
100
AcDbSymbolTableRecord
100
AcDbLinetypeTableRecord
  2
DOTX2
 70
    0
  3
Dot (2x) .  .  .  .  .  .  .  .  .  .  .  .  .
 72
   65
 73
    2
 40
12.7
 49
0
 74
    0
 49
-12.7
 74
    0
  0
LTYPE
  5
36
330
5
100
AcDbSymbolTableRecord
100
AcDbLinetypeTableRecord
  2
DASHED
 70
    0
  3
Dashed _ _ _ _ _ _ _ _ _ _ _ _ _ _ _ _ _
 72
   65
 73
    2
 40
19.05
 49
12.7
 74
    0
 49
-6.35
 74
    0
  0
LTYPE
  5
37
330
5
100
AcDbSymbolTableRecord
100
AcDbLinetypeTableRecord
  2
DASHEDTINY
 70
    0
  3
Dashed (.15x) _ _ _ _ _ _ _ _ _ _ _ _ _ _ _ _ _
 72
   65
 73
    2
 40
2.8575
 49
1.905
 74
    0
 49
-0.9525
 74
    0
  0
LTYPE
  5
38
330
5
100
AcDbSymbolTableRecord
100
AcDbLinetypeTableRecord
  2
DASHED2
 70
    0
  3
Dashed (.5x) _ _ _ _ _ _ _ _ _ _ _ _ _ _ _ _ _
 72
   65
 73
    2
 40
9.524999999999999
 49
6.35
 74
    0
 49
-3.175
 74
    0
  0
LTYPE
  5
39
330
5
100
AcDbSymbolTableRecord
100
AcDbLinetypeTableRecord
  2
DASHEDX2
 70
    0
  3
Dashed (2x) ____  ____  ____  ____  ____  ___
 72
   65
 73
    2
 40
38.09999999999999
 49
25.4
 74
    0
 49
-12.7
 74
    0
  0
LTYPE
  5
3A
330
5
100
AcDbSymbolTableRecord
100
AcDbLinetypeTableRecord
  2
DASHDOT
 70
    0
  3
Dash dot __ . __ . __ . __ . __ . __ . __ . __
 72
   65
 73
    4
 40
25.4
 49
12.7
 74
    0
 49
-6.35
 74
    0
 49
0
 74
    0
 49
-6.35
 74
    0
  0
LTYPE
  5
3B
330
5
100
AcDbSymbolTableRecord
100
AcDbLinetypeTableRecord
  2
DASHDOTTINY
 70
    0
  3
Dash dot (.15x) _._._._._._._._._._._._._._._.
 72
   65
 73
    4
 40
3.81
 49
1.905
 74
    0
 49
-0.9525
 74
    0
 49
0
 74
    0
 49
-0.9525
 74
    0
  0
LTYPE
  5
3C
330
5
100
AcDbSymbolTableRecord
100
AcDbLinetypeTableRecord
  2
DASHDOT2
 70
    0
  3
Dash dot (.5x) _._._._._._._._._._._._._._._.
 72
   65
 73
    4
 40
12.7
 49
6.35
 74
    0
 49
-3.175
 74
    0
 49
0
 74
    0
 49
-3.175
 74
    0
  0
LTYPE
  5
3D
330
5
100
AcDbSymbolTableRecord
100
AcDbLinetypeTableRecord
  2
DASHDOTX2
 70
    0
  3
Dash dot (2x) ____  .  ____  .  ____  .  ___
 72
   65
 73
    4
 40
50.8
 49
25.4
 74
    0
 49
-12.7
 74
    0
 49
0
 74
    0
 49
-12.7
 74
    0
  0
LTYPE
  5
3E
330
5
100
AcDbSymbolTableRecord
100
AcDbLinetypeTableRecord
  2
DIVIDE
 70
    0
  3
Divide ____ . . ____ . . ____ . . ____ . . ____
 72
   65
 73
    6
 40
31.75
 49
12.7
 74
    0
 49
-6.35
 74
    0
 49
0
 74
    0
 49
-6.35
 74
    0
 49
0
 74
    0
 49
-6.35
 74
    0
  0
LTYPE
  5
3F
330
5
100
AcDbSymbolTableRecord
100
AcDbLinetypeTableRecord
  2
DIVIDETINY
 70
    0
  3
Divide (.15x) __..__..__..__..__..__..__..__.._
 72
   65
 73
    6
 40
4.7625
 49
1.905
 74
    0
 49
-0.9525
 74
    0
 49
0
 74
    0
 49
-0.9525
 74
    0
 49
0
 74
    0
 49
-0.9525
 74
    0
  0
LTYPE
  5
40
330
5
100
AcDbSymbolTableRecord
100
AcDbLinetypeTableRecord
  2
DIVIDE2
 70
    0
  3
Divide (.5x) __..__..__..__..__..__..__..__.._
 72
   65
 73
    6
 40
15.875
 49
6.35
 74
    0
 49
-3.175
 74
    0
 49
0
 74
    0
 49
-3.175
 74
    0
 49
0
 74
    0
 49
-3.175
 74
    0
  0
LTYPE
  5
41
330
5
100
AcDbSymbolTableRecord
100
AcDbLinetypeTableRecord
  2
DIVIDEX2
 70
    0
  3
Divide (2x) ________  .  .  ________  .  .  _
 72
   65
 73
    6
 40
63.5
 49
25.4
 74
    0
 49
-12.7
 74
    0
 49
0
 74
    0
 49
-12.7
 74
    0
 49
0
 74
    0
 49
-12.7
 74
    0
  0
LTYPE
  5
42
330
5
100
AcDbSymbolTableRecord
100
AcDbLinetypeTableRecord
  2
BORDER
 70
    0
  3
Border __ __ . __ __ . __ __ . __ __ . __ __ .
 72
   65
 73
    6
 40
44.45
 49
12.7
 74
    0
 49
-6.35
 74
    0
 49
12.7
 74
    0
 49
-6.35
 74
    0
 49
0
 74
    0
 49
-6.35
 74
    0
  0
LTYPE
  5
43
330
5
100
AcDbSymbolTableRecord
100
AcDbLinetypeTableRecord
  2
BORDERTINY
 70
    0
  3
Border (.15x) __.__.__.__.__.__.__.__.__.__.__.
 72
   65
 73
    6
 40
6.6675
 49
1.905
 74
    0
 49
-0.9525
 74
    0
 49
1.905
 74
    0
 49
-0.9525
 74
    0
 49
0
 74
    0
 49
-0.9525
 74
    0
  0
LTYPE
  5
44
330
5
100
AcDbSymbolTableRecord
100
AcDbLinetypeTableRecord
  2
BORDER2
 70
    0
  3
Border (.5x) __.__.__.__.__.__.__.__.__.__.__.
 72
   65
 73
    6
 40
22.225
 49
6.35
 74
    0
 49
-3.175
 74
    0
 49
6.35
 74
    0
 49
-3.175
 74
    0
 49
0
 74
    0
 49
-3.175
 74
    0
  0
LTYPE
  5
45
330
5
100
AcDbSymbolTableRecord
100
AcDbLinetypeTableRecord
  2
BORDERX2
 70
    0
  3
Border (2x) ____  ____  .  ____  ____  .  ___
 72
   65
 73
    6
 40
88.89999999999999
 49
25.4
 74
    0
 49
-12.7
 74
    0
 49
25.4
 74
    0
 49
-12.7
 74
    0
 49
0
 74
    0
 49
-12.7
 74
    0
  0
LTYPE
  5
46
330
5
100
AcDbSymbolTableRecord
100
AcDbLinetypeTableRecord
  2
CENTER
 70
    0
  3
Center ____ _ ____ _ ____ _ ____ _ ____ _ ____
 72
   65
 73
    4
 40
50.8
 49
31.75
 74
    0
 49
-6.35
 74
    0
 49
6.35
 74
    0
 49
-6.35
 74
    0
  0
LTYPE
  5
47
330
5
100
AcDbSymbolTableRecord
100
AcDbLinetypeTableRecord
  2
CENTERTINY
 70
    0
  3
Center (.15x) ___ _ ___ _ ___ _ ___ _ ___ _ ___
 72
   65
 73
    4
 40
7.619999999999999
 49
4.7625
 74
    0
 49
-0.9525
 74
    0
 49
0.9525
 74
    0
 49
-0.9525
 74
    0
  0
LTYPE
  5
48
330
5
100
AcDbSymbolTableRecord
100
AcDbLinetypeTableRecord
  2
CENTER2
 70
    0
  3
Center (.5x) ___ _ ___ _ ___ _ ___ _ ___ _ ___
 72
   65
 73
    4
 40
28.575
 49
19.05
 74
    0
 49
-3.175
 74
    0
 49
3.175
 74
    0
 49
-3.175
 74
    0
  0
LTYPE
  5
49
330
5
100
AcDbSymbolTableRecord
100
AcDbLinetypeTableRecord
  2
CENTERX2
 70
    0
  3
Center (2x) ________  __  ________  __  _____
 72
   65
 73
    4
 40
101.6
 49
63.5
 74
    0
 49
-12.7
 74
    0
 49
12.7
 74
    0
 49
-12.7
 74
    0
  0
ENDTAB
  0
TABLE
  2
LAYER
  5
2
330
0
100
AcDbSymbolTable
 70
    1
  0
LAYER
  5
10
330
2
100
AcDbSymbolTableRecord
100
AcDbLayerTableRecord
  2
0
 70
    0
 62
    7
  6
CONTINUOUS
370
    0
390
F
  0
LAYER
  5
4A
330
2
100
AcDbSymbolTableRecord
100
AcDbLayerTableRecord
  2
Calque_1
 70
    0
 62
    7
  6
CONTINUOUS
370
   -3
390
F
  0
ENDTAB
  0
TABLE
  2
STYLE
  5
3
330
0
100
AcDbSymbolTable
 70
    3
  0
STYLE
  5
4B
330
2
100
AcDbSymbolTableRecord
100
AcDbTextStyleTableRecord
  2
Standard
 70
    0
 40
0
 41
1
 50
0
 71
    0
 42
1
  3
txt
  4

  0
ENDTAB
  0
TABLE
  2
VIEW
  5
6
330
0
100
AcDbSymbolTable
 70
    0
  0
ENDTAB
  0
TABLE
  2
UCS
  5
7
330
0
100
AcDbSymbolTable
 70
    0
  0
ENDTAB
  0
TABLE
  2
APPID
  5
9
330
0
100
AcDbSymbolTable
 70
    1
  0
APPID
  5
12
330
9
100
AcDbSymbolTableRecord
100
AcDbRegAppTableRecord
  2
ACAD
 70
    0
  0
APPID
  5
4C
330
9
100
AcDbSymbolTableRecord
100
AcDbRegAppTableRecord
  2
LibreCad
 70
    0
  0
ENDTAB
  0
TABLE
  2
DIMSTYLE
  5
A
330
0
100
AcDbSymbolTable
 70
    1
100
AcDbDimStyleTable
 71
    1
  0
DIMSTYLE
105
4D
330
A
100
AcDbSymbolTableRecord
100
AcDbDimStyleTableRecord
  2
Standard
 70
    0
 40
1
 41
2.5
 42
0.625
 43
0.38
 44
1.25
 45
0
 46
0
 47
0
 48
0
 49
1
140
2.5
141
0.09
142
2.5
143
25.4
144
1
145
0
146
1
147
0.625
148
0
 71
    0
 72
    0
 73
    0
 74
    1
 75
    0
 76
    0
 77
    0
 78
    1
 79
    0
170
    0
171
    2
172
    0
173
    0
174
    0
175
    0
176
    0
177
    0
178
    0
179
    0
271
    2
272
    4
273
    2
274
    2
275
    0
276
    0
277
    2
278
    0
279
    0
280
    0
281
    0
282
    0
283
    1
284
    0
285
    0
286
    0
288
    0
289
    3
340
standard
341

371
   -2
372
   -2
  0
ENDTAB
  0
TABLE
  2
BLOCK_RECORD
  5
1
330
0
100
AcDbSymbolTable
 70
    2
  0
BLOCK_RECORD
  5
1F
330
1
100
AcDbSymbolTableRecord
100
AcDbBlockTableRecord
  2
*Model_Space
 70
    0
280
    1
281
    0
  0
BLOCK_RECORD
  5
1E
330
1
100
AcDbSymbolTableRecord
100
AcDbBlockTableRecord
  2
*Paper_Space
 70
    0
280
    1
281
    0
  0
ENDTAB
  0
ENDSEC
  0
SECTION
  2
BLOCKS
  0
BLOCK
  5
20
330
1F
100
AcDbEntity
  8
0
100
AcDbBlockBegin
  2
*Model_Space
 70
    0
 10
0
 20
0
 30
0
  3
*Model_Space
  1

  0
ENDBLK
  5
21
330
1F
100
AcDbEntity
  8
0
100
AcDbBlockEnd
  0
BLOCK
  5
1C
330
1B
100
AcDbEntity
  8
0
100
AcDbBlockBegin
  2
*Paper_Space
 70
    0
 10
0
 20
0
 30
0
  3
*Paper_Space
  1

  0
ENDBLK
  5
1D
330
1F
100
AcDbEntity
  8
0
100
AcDbBlockEnd
  0
ENDSEC
  0
SECTION
  2
ENTITIES
  0
SPLINE
  5
4E
100
AcDbEntity
  8
Calque_1
  6
ByLayer
 62
    7
370
   -1
100
AcDbSpline
210
0
220
0
230
0
 70
    8
 71
    3
 72
    8
 73
    4
 74
    0
 42
1e-07
 43
1e-07
 40
0
 40
0
 40
0
 40
0
 40
1
 40
1
 40
1
 40
1
 10
6.051245999999999
 20
0.6614579999999997
 30
0
 10
6.314934000000001
 20
1.890509999999999
 30
0
 10
6.199308000000002
 20
2.726870999999999
 30
0
 10
5.783934000000002
 20
2.595036
 30
0
  0
SPLINE
  5
4F
100
AcDbEntity
  8
Calque_1
  6
ByLayer
 62
    7
370
   -1
100
AcDbSpline
210
0
220
0
230
0
 70
    8
 71
    3
 72
    8
 73
    4
 74
    0
 42
1e-07
 43
1e-07
 40
0
 40
0
 40
0
 40
0
 40
1
 40
1
 40
1
 40
1
 10
5.783934000000002
 20
2.595036
 30
0
 10
5.652563999999998
 20
2.553339000000001
 30
0
 10
5.575245000000002
 20
2.597436000000002
 30
0
 10
5.539368000000003
 20
2.734694999999999
 30
0
  0
SPLINE
  5
50
100
AcDbEntity
  8
Calque_1
  6
ByLayer
 62
    7
370
   -1
100
AcDbSpline
210
0
220
0
230
0
 70
    8
 71
    3
 72
    8
 73
    4
 74
    0
 42
1e-07
 43
1e-07
 40
0
 40
0
 40
0
 40
0
 40
1
 40
1
 40
1
 40
1
 10
5.539368000000003
 20
2.734694999999999
 30
0
 10
5.506083000000004
 20
2.861972999999999
 30
0
 10
5.365853999999999
 20
2.953092000000002
 30
0
 10
5.155830000000002
 20
2.983917000000002
 30
0
  0
SPLINE
  5
51
100
AcDbEntity
  8
Calque_1
  6
ByLayer
 62
    7
370
   -1
100
AcDbSpline
210
0
220
0
230
0
 70
    8
 71
    3
 72
    8
 73
    4
 74
    0
 42
1e-07
 43
1e-07
 40
0
 40
0
 40
0
 40
0
 40
1
 40
1
 40
1
 40
1
 10
5.155830000000002
 20
2.983917000000002
 30
0
 10
4.834470000000003
 20
3.031082999999999
 30
0
 10
4.824762
 20
3.020703000000001
 30
0
 10
4.824762
 20
2.629944000000002
 30
0
  0
SPLINE
  5
52
100
AcDbEntity
  8
Calque_1
  6
ByLayer
 62
    7
370
   -1
100
AcDbSpline
210
0
220
0
230
0
 70
    8
 71
    3
 72
    8
 73
    4
 74
    0
 42
1e-07
 43
1e-07
 40
0
 40
0
 40
0
 40
0
 40
1
 40
1
 40
1
 40
1
 10
4.824762
 20
2.629944000000002
 30
0
 10
4.824762
 20
2.317658999999999
 30
0
 10
4.765608
 20
2.18862
 30
0
 10
4.560993000000003
 20
2.054552999999999
 30
0
  0
SPLINE
  5
53
100
AcDbEntity
  8
Calque_1
  6
ByLayer
 62
    7
370
   -1
100
AcDbSpline
210
0
220
0
230
0
 70
    8
 71
    3
 72
    8
 73
    4
 74
    0
 42
1e-07
 43
1e-07
 40
0
 40
0
 40
0
 40
0
 40
1
 40
1
 40
1
 40
1
 10
4.560993000000003
 20
2.054552999999999
 30
0
 10
4.266963000000004
 20
1.861896000000002
 30
0
 10
3.978093000000001
 20
1.917876
 30
0
 10
3.978093000000001
 20
2.167511999999999
 30
0
  0
SPLINE
  5
54
100
AcDbEntity
  8
Calque_1
  6
ByLayer
 62
    7
370
   -1
100
AcDbSpline
210
0
220
0
230
0
 70
    8
 71
    3
 72
    8
 73
    4
 74
    0
 42
1e-07
 43
1e-07
 40
0
 40
0
 40
0
 40
0
 40
1
 40
1
 40
1
 40
1
 10
3.978093000000001
 20
2.167511999999999
 30
0
 10
3.978093000000001
 20
2.298783
 30
0
 10
3.895014000000003
 20
2.317551000000002
 30
0
 10
3.554760000000002
 20
2.26314
 30
0
  0
SPLINE
  5
55
100
AcDbEntity
  8
Calque_1
  6
ByLayer
 62
    7
370
   -1
100
AcDbSpline
210
0
220
0
230
0
 70
    8
 71
    3
 72
    8
 73
    4
 74
    0
 42
1e-07
 43
1e-07
 40
0
 40
0
 40
0
 40
0
 40
1
 40
1
 40
1
 40
1
 10
3.554760000000002
 20
2.26314
 30
0
 10
3.210602999999999
 20
2.208107999999999
 30
0
 10
3.131427000000002
 20
2.226792
 30
0
 10
3.131427000000002
 20
2.363028
 30
0
  0
SPLINE
  5
56
100
AcDbEntity
  8
Calque_1
  6
ByLayer
 62
    7
370
   -1
100
AcDbSpline
210
0
220
0
230
0
 70
    8
 71
    3
 72
    8
 73
    4
 74
    0
 42
1e-07
 43
1e-07
 40
0
 40
0
 40
0
 40
0
 40
1
 40
1
 40
1
 40
1
 10
3.131427000000002
 20
2.363028
 30
0
 10
3.131427000000002
 20
2.513729999999999
 30
0
 10
3.087443999999998
 20
2.515091999999999
 30
0
 10
2.694789
 20
2.376557999999999
 30
0
  0
SPLINE
  5
57
100
AcDbEntity
  8
Calque_1
  6
ByLayer
 62
    7
370
   -1
100
AcDbSpline
210
0
220
0
230
0
 70
    8
 71
    3
 72
    8
 73
    4
 74
    0
 42
1e-07
 43
1e-07
 40
0
 40
0
 40
0
 40
0
 40
1
 40
1
 40
1
 40
1
 10
2.694789
 20
2.376557999999999
 30
0
 10
2.454636000000001
 20
2.291829
 30
0
 10
2.216511000000001
 20
2.222501999999999
 30
0
 10
2.165622000000003
 20
2.222501999999999
 30
0
  0
SPLINE
  5
58
100
AcDbEntity
  8
Calque_1
  6
ByLayer
 62
    7
370
   -1
100
AcDbSpline
210
0
220
0
230
0
 70
    8
 71
    3
 72
    8
 73
    4
 74
    0
 42
1e-07
 43
1e-07
 40
0
 40
0
 40
0
 40
0
 40
1
 40
1
 40
1
 40
1
 10
2.165622000000003
 20
2.222501999999999
 30
0
 10
2.040777000000002
 20
2.222501999999999
 30
0
 10
2.047839
 20
2.82423
 30
0
 10
2.175492000000002
 20
3.062739000000001
 30
0
  0
SPLINE
  5
59
100
AcDbEntity
  8
Calque_1
  6
ByLayer
 62
    7
370
   -1
100
AcDbSpline
210
0
220
0
230
0
 70
    8
 71
    3
 72
    8
 73
    4
 74
    0
 42
1e-07
 43
1e-07
 40
0
 40
0
 40
0
 40
0
 40
1
 40
1
 40
1
 40
1
 10
2.175492000000002
 20
3.062739000000001
 30
0
 10
2.268804000000003
 20
3.237090000000002
 30
0
 10
2.235948
 20
3.249333
 30
0
 10
1.805076
 20
3.200769000000001
 30
0
  0
SPLINE
  5
5A
100
AcDbEntity
  8
Calque_1
  6
ByLayer
 62
    7
370
   -1
100
AcDbSpline
210
0
220
0
230
0
 70
    8
 71
    3
 72
    8
 73
    4
 74
    0
 42
1e-07
 43
1e-07
 40
0
 40
0
 40
0
 40
0
 40
1
 40
1
 40
1
 40
1
 10
1.805076
 20
3.200769000000001
 30
0
 10
1.252872
 20
3.138528000000001
 30
0
 10
1.199283000000001
 20
3.260435999999999
 30
0
 10
1.624173000000003
 20
3.612318000000002
 30
0
  0
SPLINE
  5
5B
100
AcDbEntity
  8
Calque_1
  6
ByLayer
 62
    7
370
   -1
100
AcDbSpline
210
0
220
0
230
0
 70
    8
 71
    3
 72
    8
 73
    4
 74
    0
 42
1e-07
 43
1e-07
 40
0
 40
0
 40
0
 40
0
 40
1
 40
1
 40
1
 40
1
 10
1.564728000000002
 20
4.176057
 30
0
 10
1.311123000000002
 20
4.408467000000002
 30
0
 10
1.197024000000003
 20
4.619934000000001
 30
0
 10
1.154610000000002
 20
4.936170000000001
 30
0
  0
LWPOLYLINE
  5
5C
100
AcDbEntity
  8
Calque_1
  6
ByLayer
 62
    7
370
   -1
100
AcDbPolyline
 90
    3
 70
    0
 43
0
 10
1.624173000000003
 20
3.612318000000002
 10
1.916079
 20
3.854067000000001
 10
1.564728000000002
 20
4.176057
  0
SPLINE
  5
5D
100
AcDbEntity
  8
Calque_1
  6
ByLayer
 62
    7
370
   -1
100
AcDbSpline
210
0
220
0
230
0
 70
    8
 71
    3
 72
    8
 73
    4
 74
    0
 42
1e-07
 43
1e-07
 40
0
 40
0
 40
0
 40
0
 40
1
 40
1
 40
1
 40
1
 10
1.610931000000001
 20
5.323191000000001
 30
0
 10
2.303655000000003
 20
5.254470000000001
 30
0
 10
2.629200000000004
 20
5.006924999999999
 30
0
 10
2.768007000000004
 20
4.443356999999999
 30
0
  0
SPLINE
  5
5E
100
AcDbEntity
  8
Calque_1
  6
ByLayer
 62
    7
370
   -1
100
AcDbSpline
210
0
220
0
230
0
 70
    8
 71
    3
 72
    8
 73
    4
 74
    0
 42
1e-07
 43
1e-07
 40
0
 40
0
 40
0
 40
0
 40
1
 40
1
 40
1
 40
1
 10
2.768007000000004
 20
4.443356999999999
 30
0
 10
2.830055999999999
 20
4.191420000000001
 30
0
 10
2.972931000000003
 20
3.924683999999999
 30
0
 10
3.085506000000002
 20
3.850608000000001
 30
0
  0
SPLINE
  5
5F
100
AcDbEntity
  8
Calque_1
  6
ByLayer
 62
    7
370
   -1
100
AcDbSpline
210
0
220
0
230
0
 70
    8
 71
    3
 72
    8
 73
    4
 74
    0
 42
1e-07
 43
1e-07
 40
0
 40
0
 40
0
 40
0
 40
1
 40
1
 40
1
 40
1
 10
3.085506000000002
 20
3.850608000000001
 30
0
 10
3.279639000000003
 20
3.722861999999999
 30
0
 10
3.290958000000003
 20
3.748653000000001
 30
0
 10
3.305202000000001
 20
4.351241999999999
 30
0
  0
SPLINE
  5
60
100
AcDbEntity
  8
Calque_1
  6
ByLayer
 62
    7
370
   -1
100
AcDbSpline
210
0
220
0
230
0
 70
    8
 71
    3
 72
    8
 73
    4
 74
    0
 42
1e-07
 43
1e-07
 40
0
 40
0
 40
0
 40
0
 40
1
 40
1
 40
1
 40
1
 10
3.305202000000001
 20
4.351241999999999
 30
0
 10
3.313451999999998
 20
4.700666999999999
 30
0
 10
3.352986000000001
 20
5.01933
 30
0
 10
3.393036000000002
 20
5.059383
 30
0
  0
SPLINE
  5
61
100
AcDbEntity
  8
Calque_1
  6
ByLayer
 62
    7
370
   -1
100
AcDbSpline
210
0
220
0
230
0
 70
    8
 71
    3
 72
    8
 73
    4
 74
    0
 42
1e-07
 43
1e-07
 40
0
 40
0
 40
0
 40
0
 40
1
 40
1
 40
1
 40
1
 10
3.393036000000002
 20
5.059383
 30
0
 10
3.433088999999988
 20
5.099433000000001
 30
0
 10
3.633441000000005
 20
4.949337
 30
0
 10
3.838266000000004
 20
4.725833999999999
 30
0
  0
SPLINE
  5
62
100
AcDbEntity
  8
Calque_1
  6
ByLayer
 62
    7
370
   -1
100
AcDbSpline
210
0
220
0
230
0
 70
    8
 71
    3
 72
    8
 73
    4
 74
    0
 42
1e-07
 43
1e-07
 40
0
 40
0
 40
0
 40
0
 40
1
 40
1
 40
1
 40
1
 10
3.838266000000004
 20
4.725833999999999
 30
0
 10
4.204667999999998
 20
4.326021000000001
 30
0
 10
4.236837000000001
 20
4.159866000000001
 30
0
 10
4.038546000000004
 20
3.691368000000001
 30
0
  0
SPLINE
  5
63
100
AcDbEntity
  8
Calque_1
  6
ByLayer
 62
    7
370
   -1
100
AcDbSpline
210
0
220
0
230
0
 70
    8
 71
    3
 72
    8
 73
    4
 74
    0
 42
1e-07
 43
1e-07
 40
0
 40
0
 40
0
 40
0
 40
1
 40
1
 40
1
 40
1
 10
4.038546000000004
 20
3.691368000000001
 30
0
 10
3.993224999999988
 20
3.584289000000002
 30
0
 10
4.025856000000005
 20
3.496824
 30
0
 10
4.125381000000004
 20
3.458634
 30
0
  0
SPLINE
  5
64
100
AcDbEntity
  8
Calque_1
  6
ByLayer
 62
    7
370
   -1
100
AcDbSpline
210
0
220
0
230
0
 70
    8
 71
    3
 72
    8
 73
    4
 74
    0
 42
1e-07
 43
1e-07
 40
0
 40
0
 40
0
 40
0
 40
1
 40
1
 40
1
 40
1
 10
4.125381000000004
 20
3.458634
 30
0
 10
4.231098000000003
 20
3.418064999999999
 30
0
 10
4.266012000000003
 20
3.446484000000002
 30
0
 10
4.228995000000005
 20
3.542930999999999
 30
0
  0
SPLINE
  5
65
100
AcDbEntity
  8
Calque_1
  6
ByLayer
 62
    7
370
   -1
100
AcDbSpline
210
0
220
0
230
0
 70
    8
 71
    3
 72
    8
 73
    4
 74
    0
 42
1e-07
 43
1e-07
 40
0
 40
0
 40
0
 40
0
 40
1
 40
1
 40
1
 40
1
 10
4.228995000000005
 20
3.542930999999999
 30
0
 10
4.158926999999998
 20
3.725529000000002
 30
0
 10
4.660470000000004
 20
4.066752000000001
 30
0
 10
4.876868999999999
 20
3.983712000000001
 30
0
  0
SPLINE
  5
66
100
AcDbEntity
  8
Calque_1
  6
ByLayer
 62
    7
370
   -1
100
AcDbSpline
210
0
220
0
230
0
 70
    8
 71
    3
 72
    8
 73
    4
 74
    0
 42
1e-07
 43
1e-07
 40
0
 40
0
 40
0
 40
0
 40
1
 40
1
 40
1
 40
1
 10
4.876868999999999
 20
3.983712000000001
 30
0
 10
4.975365000000004
 20
3.945914999999999
 30
0
 10
5.036436000000002
 20
3.983412000000001
 30
0
 10
5.036436000000002
 20
4.081230000000001
 30
0
  0
SPLINE
  5
67
100
AcDbEntity
  8
Calque_1
  6
ByLayer
 62
    7
370
   -1
100
AcDbSpline
210
0
220
0
230
0
 70
    8
 71
    3
 72
    8
 73
    4
 74
    0
 42
1e-07
 43
1e-07
 40
0
 40
0
 40
0
 40
0
 40
1
 40
1
 40
1
 40
1
 10
5.036436000000002
 20
4.081230000000001
 30
0
 10
5.036436000000002
 20
4.2438
 30
0
 10
4.976714999999999
 20
4.276917000000001
 30
0
 10
4.494207000000003
 20
4.381902
 30
0
  0
SPLINE
  5
68
100
AcDbEntity
  8
Calque_1
  6
ByLayer
 62
    7
370
   -1
100
AcDbSpline
210
0
220
0
230
0
 70
    8
 71
    3
 72
    8
 73
    4
 74
    0
 42
1e-07
 43
1e-07
 40
0
 40
0
 40
0
 40
0
 40
1
 40
1
 40
1
 40
1
 10
4.494207000000003
 20
4.381902
 30
0
 10
4.217711999999999
 20
4.442060999999999
 30
0
 10
4.068969000000003
 20
4.689657
 30
0
 10
3.93177
 20
5.318127
 30
0
  0
SPLINE
  5
69
100
AcDbEntity
  8
Calque_1
  6
ByLayer
 62
    7
370
   -1
100
AcDbSpline
210
0
220
0
230
0
 70
    8
 71
    3
 72
    8
 73
    4
 74
    0
 42
1e-07
 43
1e-07
 40
0
 40
0
 40
0
 40
0
 40
1
 40
1
 40
1
 40
1
 10
3.93177
 20
5.318127
 30
0
 10
3.871029000000014
 20
5.596377
 30
0
 10
3.886212
 20
5.609169000000001
 30
0
 10
4.277183999999998
 20
5.609169000000001
 30
0
  0
SPLINE
  5
6A
100
AcDbEntity
  8
Calque_1
  6
ByLayer
 62
    7
370
   -1
100
AcDbSpline
210
0
220
0
230
0
 70
    8
 71
    3
 72
    8
 73
    4
 74
    0
 42
1e-07
 43
1e-07
 40
0
 40
0
 40
0
 40
0
 40
1
 40
1
 40
1
 40
1
 10
4.277183999999998
 20
5.609169000000001
 30
0
 10
4.678989000000001
 20
5.609169000000001
 30
0
 10
4.935887999999998
 20
5.437092
 30
0
 10
5.067186000000014
 20
5.080002
 30
0
  0
SPLINE
  5
6B
100
AcDbEntity
  8
Calque_1
  6
ByLayer
 62
    7
370
   -1
100
AcDbSpline
210
0
220
0
230
0
 70
    8
 71
    3
 72
    8
 73
    4
 74
    0
 42
1e-07
 43
1e-07
 40
0
 40
0
 40
0
 40
0
 40
1
 40
1
 40
1
 40
1
 10
5.067186000000014
 20
5.080002
 30
0
 10
5.119070999999998
 20
4.938894000000001
 30
0
 10
5.126409000000002
 20
4.938894000000001
 30
0
 10
5.133216000000004
 20
5.080002
 30
0
  0
SPLINE
  5
6C
100
AcDbEntity
  8
Calque_1
  6
ByLayer
 62
    7
370
   -1
100
AcDbSpline
210
0
220
0
230
0
 70
    8
 71
    3
 72
    8
 73
    4
 74
    0
 42
1e-07
 43
1e-07
 40
0
 40
0
 40
0
 40
0
 40
1
 40
1
 40
1
 40
1
 10
5.133216000000004
 20
5.080002
 30
0
 10
5.137416000000002
 20
5.167317000000001
 30
0
 10
5.046252000000003
 20
5.381627999999999
 30
0
 10
4.930602
 20
5.556252000000001
 30
0
  0
SPLINE
  5
6D
100
AcDbEntity
  8
Calque_1
  6
ByLayer
 62
    7
370
   -1
100
AcDbSpline
210
0
220
0
230
0
 70
    8
 71
    3
 72
    8
 73
    4
 74
    0
 42
1e-07
 43
1e-07
 40
0
 40
0
 40
0
 40
0
 40
1
 40
1
 40
1
 40
1
 10
4.930602
 20
5.556252000000001
 30
0
 10
4.710624000000003
 20
5.888406
 30
0
 10
4.643304000000001
 20
6.455838
 30
0
 10
4.823871000000004
 20
6.455838
 30
0
  0
SPLINE
  5
6E
100
AcDbEntity
  8
Calque_1
  6
ByLayer
 62
    7
370
   -1
100
AcDbSpline
210
0
220
0
230
0
 70
    8
 71
    3
 72
    8
 73
    4
 74
    0
 42
1e-07
 43
1e-07
 40
0
 40
0
 40
0
 40
0
 40
1
 40
1
 40
1
 40
1
 10
4.823871000000004
 20
6.455838
 30
0
 10
4.881588000000001
 20
6.455838
 30
0
 10
4.986372000000003
 20
6.363662999999999
 30
0
 10
5.056725
 20
6.251010000000001
 30
0
  0
SPLINE
  5
6F
100
AcDbEntity
  8
Calque_1
  6
ByLayer
 62
    7
370
   -1
100
AcDbSpline
210
0
220
0
230
0
 70
    8
 71
    3
 72
    8
 73
    4
 74
    0
 42
1e-07
 43
1e-07
 40
0
 40
0
 40
0
 40
0
 40
1
 40
1
 40
1
 40
1
 10
5.056725
 20
6.251010000000001
 30
0
 10
5.178684000000004
 20
6.055721999999999
 30
0
 10
5.193401999999999
 20
6.060587999999999
 30
0
 10
5.372745000000002
 20
6.355494
 30
0
  0
SPLINE
  5
70
100
AcDbEntity
  8
Calque_1
  6
ByLayer
 62
    7
370
   -1
100
AcDbSpline
210
0
220
0
230
0
 70
    8
 71
    3
 72
    8
 73
    4
 74
    0
 42
1e-07
 43
1e-07
 40
0
 40
0
 40
0
 40
0
 40
1
 40
1
 40
1
 40
1
 10
5.372745000000002
 20
6.355494
 30
0
 10
5.596187999999998
 20
6.722913000000002
 30
0
 10
5.530619999999999
 20
7.352336999999999
 30
0
 10
5.278962
 20
7.255766999999999
 30
0
  0
SPLINE
  5
71
100
AcDbEntity
  8
Calque_1
  6
ByLayer
 62
    7
370
   -1
100
AcDbSpline
210
0
220
0
230
0
 70
    8
 71
    3
 72
    8
 73
    4
 74
    0
 42
1e-07
 43
1e-07
 40
0
 40
0
 40
0
 40
0
 40
1
 40
1
 40
1
 40
1
 10
5.278962
 20
7.255766999999999
 30
0
 10
5.079957
 20
7.179402
 30
0
 10
4.752627000000004
 20
7.359297000000002
 30
0
 10
4.611803999999999
 20
7.622430000000001
 30
0
  0
SPLINE
  5
72
100
AcDbEntity
  8
Calque_1
  6
ByLayer
 62
    7
370
   -1
100
AcDbSpline
210
0
220
0
230
0
 70
    8
 71
    3
 72
    8
 73
    4
 74
    0
 42
1e-07
 43
1e-07
 40
0
 40
0
 40
0
 40
0
 40
1
 40
1
 40
1
 40
1
 10
4.611803999999999
 20
7.622430000000001
 30
0
 10
4.511834999999998
 20
7.809222000000002
 30
0
 10
4.533843000000005
 20
7.831671
 30
0
 10
4.816923000000003
 20
7.831671
 30
0
  0
SPLINE
  5
73
100
AcDbEntity
  8
Calque_1
  6
ByLayer
 62
    7
370
   -1
100
AcDbSpline
210
0
220
0
230
0
 70
    8
 71
    3
 72
    8
 73
    4
 74
    0
 42
1e-07
 43
1e-07
 40
0
 40
0
 40
0
 40
0
 40
1
 40
1
 40
1
 40
1
 10
4.816923000000003
 20
7.831671
 30
0
 10
4.999599000000003
 20
7.831671
 30
0
 10
5.219121000000001
 20
7.74033
 30
0
 10
5.334755999999999
 20
7.616208
 30
0
  0
LWPOLYLINE
  5
74
100
AcDbEntity
  8
Calque_1
  6
ByLayer
 62
    7
370
   -1
100
AcDbPolyline
 90
    3
 70
    0
 43
0
 10
1.154610000000002
 20
4.936170000000001
 10
1.095846000000002
 20
5.374293000000002
 10
1.610931000000001
 20
5.323191000000001
  0
SPLINE
  5
75
100
AcDbEntity
  8
Calque_1
  6
ByLayer
 62
    7
370
   -1
100
AcDbSpline
210
0
220
0
230
0
 70
    8
 71
    3
 72
    8
 73
    4
 74
    0
 42
1e-07
 43
1e-07
 40
0
 40
0
 40
0
 40
0
 40
1
 40
1
 40
1
 40
1
 10
5.699397000000005
 20
7.739180999999999
 30
0
 10
5.876643000000001
 20
8.105150999999999
 30
0
 10
5.833806000000003
 20
8.459706000000001
 30
0
 10
5.636217000000002
 20
8.262117
 30
0
  0
SPLINE
  5
76
100
AcDbEntity
  8
Calque_1
  6
ByLayer
 62
    7
370
   -1
100
AcDbSpline
210
0
220
0
230
0
 70
    8
 71
    3
 72
    8
 73
    4
 74
    0
 42
1e-07
 43
1e-07
 40
0
 40
0
 40
0
 40
0
 40
1
 40
1
 40
1
 40
1
 10
5.636217000000002
 20
8.262117
 30
0
 10
5.437947000000001
 20
8.063846999999999
 30
0
 10
4.954092000000003
 20
8.132769
 30
0
 10
4.777853999999998
 20
8.384385000000002
 30
0
  0
SPLINE
  5
77
100
AcDbEntity
  8
Calque_1
  6
ByLayer
 62
    7
370
   -1
100
AcDbSpline
210
0
220
0
230
0
 70
    8
 71
    3
 72
    8
 73
    4
 74
    0
 42
1e-07
 43
1e-07
 40
0
 40
0
 40
0
 40
0
 40
1
 40
1
 40
1
 40
1
 10
4.777853999999998
 20
8.384385000000002
 30
0
 10
4.555443000000004
 20
8.701923000000001
 30
0
 10
4.570067999999999
 20
8.782955999999999
 30
0
 10
4.851227999999999
 20
8.790879
 30
0
  0
LWPOLYLINE
  5
78
100
AcDbEntity
  8
Calque_1
  6
ByLayer
 62
    7
370
   -1
100
AcDbPolyline
 90
    3
 70
    0
 43
0
 10
5.334755999999999
 20
7.616208
 10
5.535488999999998
 20
7.400748
 10
5.699397000000005
 20
7.739180999999999
  0
SPLINE
  5
79
100
AcDbEntity
  8
Calque_1
  6
ByLayer
 62
    7
370
   -1
100
AcDbSpline
210
0
220
0
230
0
 70
    8
 71
    3
 72
    8
 73
    4
 74
    0
 42
1e-07
 43
1e-07
 40
0
 40
0
 40
0
 40
0
 40
1
 40
1
 40
1
 40
1
 10
4.857399000000001
 20
8.891031000000002
 30
0
 10
4.560645000000001
 20
9.010563000000001
 30
0
 10
4.318598999999999
 20
9.384684
 30
0
 10
4.276049999999998
 20
9.789597000000001
 30
0
  0
SPLINE
  5
7A
100
AcDbEntity
  8
Calque_1
  6
ByLayer
 62
    7
370
   -1
100
AcDbSpline
210
0
220
0
230
0
 70
    8
 71
    3
 72
    8
 73
    4
 74
    0
 42
1e-07
 43
1e-07
 40
0
 40
0
 40
0
 40
0
 40
1
 40
1
 40
1
 40
1
 10
4.276049999999998
 20
9.789597000000001
 30
0
 10
4.246859999999998
 20
10.067424
 30
0
 10
4.279200000000003
 20
10.111299
 30
0
 10
4.534941000000003
 20
10.140702
 30
0
  0
SPLINE
  5
7B
100
AcDbEntity
  8
Calque_1
  6
ByLayer
 62
    7
370
   -1
100
AcDbSpline
210
0
220
0
230
0
 70
    8
 71
    3
 72
    8
 73
    4
 74
    0
 42
1e-07
 43
1e-07
 40
0
 40
0
 40
0
 40
0
 40
1
 40
1
 40
1
 40
1
 10
4.534941000000003
 20
10.140702
 30
0
 10
4.695681
 20
10.159182
 30
0
 10
4.970955000000004
 20
10.102593
 30
0
 10
5.146661999999999
 20
10.014936
 30
0
  0
SPLINE
  5
7C
100
AcDbEntity
  8
Calque_1
  6
ByLayer
 62
    7
370
   -1
100
AcDbSpline
210
0
220
0
230
0
 70
    8
 71
    3
 72
    8
 73
    4
 74
    0
 42
1e-07
 43
1e-07
 40
0
 40
0
 40
0
 40
0
 40
1
 40
1
 40
1
 40
1
 10
5.146661999999999
 20
10.014936
 30
0
 10
5.443241999999998
 20
9.866982
 30
0
 10
5.475306000000003
 20
9.870260999999999
 30
0
 10
5.594241000000004
 20
10.060707
 30
0
  0
SPLINE
  5
7D
100
AcDbEntity
  8
Calque_1
  6
ByLayer
 62
    7
370
   -1
100
AcDbSpline
210
0
220
0
230
0
 70
    8
 71
    3
 72
    8
 73
    4
 74
    0
 42
1e-07
 43
1e-07
 40
0
 40
0
 40
0
 40
0
 40
1
 40
1
 40
1
 40
1
 10
5.594241000000004
 20
10.060707
 30
0
 10
5.664701999999998
 20
10.173534
 30
0
 10
5.750877000000003
 20
10.265847
 30
0
 10
5.785740000000004
 20
10.265847
 30
0
  0
SPLINE
  5
7E
100
AcDbEntity
  8
Calque_1
  6
ByLayer
 62
    7
370
   -1
100
AcDbSpline
210
0
220
0
230
0
 70
    8
 71
    3
 72
    8
 73
    4
 74
    0
 42
1e-07
 43
1e-07
 40
0
 40
0
 40
0
 40
0
 40
1
 40
1
 40
1
 40
1
 10
5.785740000000004
 20
10.265847
 30
0
 10
5.890266000000004
 20
10.265847
 30
0
 10
6.094770000000004
 20
9.744729
 30
0
 10
6.094770000000004
 20
9.478368
 30
0
  0
SPLINE
  5
7F
100
AcDbEntity
  8
Calque_1
  6
ByLayer
 62
    7
370
   -1
100
AcDbSpline
210
0
220
0
230
0
 70
    8
 71
    3
 72
    8
 73
    4
 74
    0
 42
1e-07
 43
1e-07
 40
0
 40
0
 40
0
 40
0
 40
1
 40
1
 40
1
 40
1
 10
6.094770000000004
 20
9.478368
 30
0
 10
6.094770000000004
 20
9.242004000000001
 30
0
 10
6.11589
 20
9.234756000000001
 30
0
 10
6.532071000000002
 20
9.328268999999999
 30
0
  0
SPLINE
  5
80
100
AcDbEntity
  8
Calque_1
  6
ByLayer
 62
    7
370
   -1
100
AcDbSpline
210
0
220
0
230
0
 70
    8
 71
    3
 72
    8
 73
    4
 74
    0
 42
1e-07
 43
1e-07
 40
0
 40
0
 40
0
 40
0
 40
1
 40
1
 40
1
 40
1
 10
6.532071000000002
 20
9.328268999999999
 30
0
 10
7.062243000000002
 20
9.447389999999999
 30
0
 10
7.127960999999999
 20
9.399345
 30
0
 10
6.903483000000001
 20
9.056744999999999
 30
0
  0
SPLINE
  5
81
100
AcDbEntity
  8
Calque_1
  6
ByLayer
 62
    7
370
   -1
100
AcDbSpline
210
0
220
0
230
0
 70
    8
 71
    3
 72
    8
 73
    4
 74
    0
 42
1e-07
 43
1e-07
 40
0
 40
0
 40
0
 40
0
 40
1
 40
1
 40
1
 40
1
 10
6.903483000000001
 20
9.056744999999999
 30
0
 10
6.732531000000002
 20
8.795840999999999
 30
0
 10
6.734256000000002
 20
8.792930999999999
 30
0
 10
7.100811000000014
 20
8.724164999999999
 30
0
  0
SPLINE
  5
82
100
AcDbEntity
  8
Calque_1
  6
ByLayer
 62
    7
370
   -1
100
AcDbSpline
210
0
220
0
230
0
 70
    8
 71
    3
 72
    8
 73
    4
 74
    0
 42
1e-07
 43
1e-07
 40
0
 40
0
 40
0
 40
0
 40
1
 40
1
 40
1
 40
1
 10
7.100811000000014
 20
8.724164999999999
 30
0
 10
7.543539000000003
 20
8.641107000000002
 30
0
 10
7.563003000000002
 20
8.551566000000001
 30
0
 10
7.191273000000002
 20
8.308002000000002
 30
0
  0
SPLINE
  5
83
100
AcDbEntity
  8
Calque_1
  6
ByLayer
 62
    7
370
   -1
100
AcDbSpline
210
0
220
0
230
0
 70
    8
 71
    3
 72
    8
 73
    4
 74
    0
 42
1e-07
 43
1e-07
 40
0
 40
0
 40
0
 40
0
 40
1
 40
1
 40
1
 40
1
 10
7.191273000000002
 20
8.308002000000002
 30
0
 10
6.992400000000004
 20
8.177693999999999
 30
0
 10
6.779015999999999
 20
8.139959999999999
 30
0
 10
6.450440999999998
 20
8.176995000000002
 30
0
  0
SPLINE
  5
84
100
AcDbEntity
  8
Calque_1
  6
ByLayer
 62
    7
370
   -1
100
AcDbSpline
210
0
220
0
230
0
 70
    8
 71
    3
 72
    8
 73
    4
 74
    0
 42
1e-07
 43
1e-07
 40
0
 40
0
 40
0
 40
0
 40
1
 40
1
 40
1
 40
1
 10
6.450440999999998
 20
8.176995000000002
 30
0
 10
6.053556
 20
8.221727999999999
 30
0
 10
5.988936000000002
 20
8.201654999999999
 30
0
 10
5.988936000000002
 20
8.033667000000001
 30
0
  0
SPLINE
  5
85
100
AcDbEntity
  8
Calque_1
  6
ByLayer
 62
    7
370
   -1
100
AcDbSpline
210
0
220
0
230
0
 70
    8
 71
    3
 72
    8
 73
    4
 74
    0
 42
1e-07
 43
1e-07
 40
0
 40
0
 40
0
 40
0
 40
1
 40
1
 40
1
 40
1
 10
5.988936000000002
 20
8.033667000000001
 30
0
 10
5.988936000000002
 20
7.908186000000001
 30
0
 10
6.042810000000003
 20
7.858995
 30
0
 10
6.139569000000002
 20
7.896125999999999
 30
0
  0
SPLINE
  5
86
100
AcDbEntity
  8
Calque_1
  6
ByLayer
 62
    7
370
   -1
100
AcDbSpline
210
0
220
0
230
0
 70
    8
 71
    3
 72
    8
 73
    4
 74
    0
 42
1e-07
 43
1e-07
 40
0
 40
0
 40
0
 40
0
 40
1
 40
1
 40
1
 40
1
 10
6.139569000000002
 20
7.896125999999999
 30
0
 10
6.223520999999998
 20
7.928339999999999
 30
0
 10
6.337827000000004
 20
7.864947000000001
 30
0
 10
6.397779
 20
7.752921000000001
 30
0
  0
SPLINE
  5
87
100
AcDbEntity
  8
Calque_1
  6
ByLayer
 62
    7
370
   -1
100
AcDbSpline
210
0
220
0
230
0
 70
    8
 71
    3
 72
    8
 73
    4
 74
    0
 42
1e-07
 43
1e-07
 40
0
 40
0
 40
0
 40
0
 40
1
 40
1
 40
1
 40
1
 10
6.397779
 20
7.752921000000001
 30
0
 10
6.496769999999998
 20
7.567952999999999
 30
0
 10
6.522390000000001
 20
7.310939999999999
 30
0
 10
6.550620000000002
 20
6.219588000000002
 30
0
  0
SPLINE
  5
88
100
AcDbEntity
  8
Calque_1
  6
ByLayer
 62
    7
370
   -1
100
AcDbSpline
210
0
220
0
230
0
 70
    8
 71
    3
 72
    8
 73
    4
 74
    0
 42
1e-07
 43
1e-07
 40
0
 40
0
 40
0
 40
0
 40
1
 40
1
 40
1
 40
1
 10
6.550620000000002
 20
6.219588000000002
 30
0
 10
6.556229999999999
 20
6.002334000000001
 30
0
 10
6.591144
 20
5.873622000000001
 30
0
 10
6.628188000000002
 20
5.933555999999999
 30
0
  0
SPLINE
  5
89
100
AcDbEntity
  8
Calque_1
  6
ByLayer
 62
    7
370
   -1
100
AcDbSpline
210
0
220
0
230
0
 70
    8
 71
    3
 72
    8
 73
    4
 74
    0
 42
1e-07
 43
1e-07
 40
0
 40
0
 40
0
 40
0
 40
1
 40
1
 40
1
 40
1
 10
6.628188000000002
 20
5.933555999999999
 30
0
 10
6.760218000000002
 20
6.147186000000001
 30
0
 10
6.970392000000004
 20
5.722785000000002
 30
0
 10
6.911694000000004
 20
5.361075
 30
0
  0
SPLINE
  5
8A
100
AcDbEntity
  8
Calque_1
  6
ByLayer
 62
    7
370
   -1
100
AcDbSpline
210
0
220
0
230
0
 70
    8
 71
    3
 72
    8
 73
    4
 74
    0
 42
1e-07
 43
1e-07
 40
0
 40
0
 40
0
 40
0
 40
1
 40
1
 40
1
 40
1
 10
6.911694000000004
 20
5.361075
 30
0
 10
6.816774000000002
 20
4.776140999999999
 30
0
 10
6.975543000000002
 20
4.734480000000001
 30
0
 10
7.306431000000003
 20
5.257503
 30
0
  0
SPLINE
  5
8B
100
AcDbEntity
  8
Calque_1
  6
ByLayer
 62
    7
370
   -1
100
AcDbSpline
210
0
220
0
230
0
 70
    8
 71
    3
 72
    8
 73
    4
 74
    0
 42
1e-07
 43
1e-07
 40
0
 40
0
 40
0
 40
0
 40
1
 40
1
 40
1
 40
1
 10
7.306431000000003
 20
5.257503
 30
0
 10
7.589082000000005
 20
5.704281000000002
 30
0
 10
7.623573
 20
5.726801999999999
 30
0
 10
7.753329000000001
 20
5.549348999999999
 30
0
  0
SPLINE
  5
8C
100
AcDbEntity
  8
Calque_1
  6
ByLayer
 62
    7
370
   -1
100
AcDbSpline
210
0
220
0
230
0
 70
    8
 71
    3
 72
    8
 73
    4
 74
    0
 42
1e-07
 43
1e-07
 40
0
 40
0
 40
0
 40
0
 40
1
 40
1
 40
1
 40
1
 10
7.753329000000001
 20
5.549348999999999
 30
0
 10
7.974657000000001
 20
5.246666999999999
 30
0
 10
7.919334000000013
 20
4.723644
 30
0
 10
7.619213999999999
 20
4.281390000000002
 30
0
  0
SPLINE
  5
8D
100
AcDbEntity
  8
Calque_1
  6
ByLayer
 62
    7
370
   -1
100
AcDbSpline
210
0
220
0
230
0
 70
    8
 71
    3
 72
    8
 73
    4
 74
    0
 42
1e-07
 43
1e-07
 40
0
 40
0
 40
0
 40
0
 40
1
 40
1
 40
1
 40
1
 10
7.619213999999999
 20
4.281390000000002
 30
0
 10
7.355502000000001
 20
3.892787999999999
 30
0
 10
7.354077000000004
 20
3.882926999999999
 30
0
 10
7.583676000000004
 20
4.035378000000001
 30
0
  0
SPLINE
  5
8E
100
AcDbEntity
  8
Calque_1
  6
ByLayer
 62
    7
370
   -1
100
AcDbSpline
210
0
220
0
230
0
 70
    8
 71
    3
 72
    8
 73
    4
 74
    0
 42
1e-07
 43
1e-07
 40
0
 40
0
 40
0
 40
0
 40
1
 40
1
 40
1
 40
1
 10
7.583676000000004
 20
4.035378000000001
 30
0
 10
7.715229000000001
 20
4.122723000000001
 30
0
 10
7.834986000000001
 20
4.276806000000001
 30
0
 10
7.849806000000001
 20
4.377777000000002
 30
0
  0
SPLINE
  5
8F
100
AcDbEntity
  8
Calque_1
  6
ByLayer
 62
    7
370
   -1
100
AcDbSpline
210
0
220
0
230
0
 70
    8
 71
    3
 72
    8
 73
    4
 74
    0
 42
1e-07
 43
1e-07
 40
0
 40
0
 40
0
 40
0
 40
1
 40
1
 40
1
 40
1
 10
7.849806000000001
 20
4.377777000000002
 30
0
 10
7.889573999999989
 20
4.648734000000001
 30
0
 10
8.119064999999999
 20
4.885824
 30
0
 10
8.281307999999989
 20
4.823564999999999
 30
0
  0
SPLINE
  5
90
100
AcDbEntity
  8
Calque_1
  6
ByLayer
 62
    7
370
   -1
100
AcDbSpline
210
0
220
0
230
0
 70
    8
 71
    3
 72
    8
 73
    4
 74
    0
 42
1e-07
 43
1e-07
 40
0
 40
0
 40
0
 40
0
 40
1
 40
1
 40
1
 40
1
 10
8.281307999999989
 20
4.823564999999999
 30
0
 10
8.359296000000001
 20
4.793624999999999
 30
0
 10
8.423819999999999
 20
4.779567
 30
0
 10
8.424696000000004
 20
4.792293000000001
 30
0
  0
SPLINE
  5
91
100
AcDbEntity
  8
Calque_1
  6
ByLayer
 62
    7
370
   -1
100
AcDbSpline
210
0
220
0
230
0
 70
    8
 71
    3
 72
    8
 73
    4
 74
    0
 42
1e-07
 43
1e-07
 40
0
 40
0
 40
0
 40
0
 40
1
 40
1
 40
1
 40
1
 10
8.424696000000004
 20
4.792293000000001
 30
0
 10
8.425595999999999
 20
4.805012999999999
 30
0
 10
8.491941000000004
 20
5.004062999999999
 30
0
 10
8.572181999999998
 20
5.234618999999999
 30
0
  0
SPLINE
  5
92
100
AcDbEntity
  8
Calque_1
  6
ByLayer
 62
    7
370
   -1
100
AcDbSpline
210
0
220
0
230
0
 70
    8
 71
    3
 72
    8
 73
    4
 74
    0
 42
1e-07
 43
1e-07
 40
0
 40
0
 40
0
 40
0
 40
1
 40
1
 40
1
 40
1
 10
8.572181999999998
 20
5.234618999999999
 30
0
 10
8.710034999999998
 20
5.630709
 30
0
 10
8.705624999999998
 20
5.660015999999999
 30
0
 10
8.492151000000014
 20
5.766444
 30
0
  0
SPLINE
  5
93
100
AcDbEntity
  8
Calque_1
  6
ByLayer
 62
    7
370
   -1
100
AcDbSpline
210
0
220
0
230
0
 70
    8
 71
    3
 72
    8
 73
    4
 74
    0
 42
1e-07
 43
1e-07
 40
0
 40
0
 40
0
 40
0
 40
1
 40
1
 40
1
 40
1
 10
8.492151000000014
 20
5.766444
 30
0
 10
8.367894
 20
5.828393999999999
 30
0
 10
8.249186999999999
 20
5.967573000000002
 30
0
 10
8.228355000000001
 20
6.075731999999999
 30
0
  0
SPLINE
  5
94
100
AcDbEntity
  8
Calque_1
  6
ByLayer
 62
    7
370
   -1
100
AcDbSpline
210
0
220
0
230
0
 70
    8
 71
    3
 72
    8
 73
    4
 74
    0
 42
1e-07
 43
1e-07
 40
0
 40
0
 40
0
 40
0
 40
1
 40
1
 40
1
 40
1
 10
8.228355000000001
 20
6.075731999999999
 30
0
 10
8.196549000000005
 20
6.240897
 30
0
 10
8.235884999999989
 20
6.260985000000002
 30
0
 10
8.474105999999999
 20
6.201198000000002
 30
0
  0
SPLINE
  5
95
100
AcDbEntity
  8
Calque_1
  6
ByLayer
 62
    7
370
   -1
100
AcDbSpline
210
0
220
0
230
0
 70
    8
 71
    3
 72
    8
 73
    4
 74
    0
 42
1e-07
 43
1e-07
 40
0
 40
0
 40
0
 40
0
 40
1
 40
1
 40
1
 40
1
 10
8.474105999999999
 20
6.201198000000002
 30
0
 10
8.709699000000001
 20
6.142068000000002
 30
0
 10
8.751147000000003
 20
6.162084
 30
0
 10
8.718869999999988
 20
6.319389000000001
 30
0
  0
SPLINE
  5
96
100
AcDbEntity
  8
Calque_1
  6
ByLayer
 62
    7
370
   -1
100
AcDbSpline
210
0
220
0
230
0
 70
    8
 71
    3
 72
    8
 73
    4
 74
    0
 42
1e-07
 43
1e-07
 40
0
 40
0
 40
0
 40
0
 40
1
 40
1
 40
1
 40
1
 10
8.718869999999988
 20
6.319389000000001
 30
0
 10
8.695410000000003
 20
6.433743
 30
0
 10
8.604792000000003
 20
6.495668999999999
 30
0
 10
8.490129000000003
 20
6.475709999999999
 30
0
  0
SPLINE
  5
97
100
AcDbEntity
  8
Calque_1
  6
ByLayer
 62
    7
370
   -1
100
AcDbSpline
210
0
220
0
230
0
 70
    8
 71
    3
 72
    8
 73
    4
 74
    0
 42
1e-07
 43
1e-07
 40
0
 40
0
 40
0
 40
0
 40
1
 40
1
 40
1
 40
1
 10
8.490129000000003
 20
6.475709999999999
 30
0
 10
8.179188000000003
 20
6.421583999999999
 30
0
 10
7.806156000000001
 20
6.744147000000002
 30
0
 10
7.688112000000004
 20
7.169219999999999
 30
0
  0
SPLINE
  5
98
100
AcDbEntity
  8
Calque_1
  6
ByLayer
 62
    7
370
   -1
100
AcDbSpline
210
0
220
0
230
0
 70
    8
 71
    3
 72
    8
 73
    4
 74
    0
 42
1e-07
 43
1e-07
 40
0
 40
0
 40
0
 40
0
 40
1
 40
1
 40
1
 40
1
 10
7.688112000000004
 20
7.169219999999999
 30
0
 10
7.571016
 20
7.590869999999999
 30
0
 10
7.537652999999999
 20
8.255013000000002
 30
0
 10
7.633569000000001
 20
8.255013000000002
 30
0
  0
SPLINE
  5
99
100
AcDbEntity
  8
Calque_1
  6
ByLayer
 62
    7
370
   -1
100
AcDbSpline
210
0
220
0
230
0
 70
    8
 71
    3
 72
    8
 73
    4
 74
    0
 42
1e-07
 43
1e-07
 40
0
 40
0
 40
0
 40
0
 40
1
 40
1
 40
1
 40
1
 10
7.633569000000001
 20
8.255013000000002
 30
0
 10
7.830597000000004
 20
8.255013000000002
 30
0
 10
8.554644000000003
 20
7.784997000000001
 30
0
 10
8.700474
 20
7.562432999999999
 30
0
  0
SPLINE
  5
9A
100
AcDbEntity
  8
Calque_1
  6
ByLayer
 62
    7
370
   -1
100
AcDbSpline
210
0
220
0
230
0
 70
    8
 71
    3
 72
    8
 73
    4
 74
    0
 42
1e-07
 43
1e-07
 40
0
 40
0
 40
0
 40
0
 40
1
 40
1
 40
1
 40
1
 10
8.700474
 20
7.562432999999999
 30
0
 10
8.899173000000005
 20
7.259177999999999
 30
0
 10
9.005562000000005
 20
7.28538
 30
0
 10
8.901885000000014
 20
7.612038000000002
 30
0
  0
SPLINE
  5
9B
100
AcDbEntity
  8
Calque_1
  6
ByLayer
 62
    7
370
   -1
100
AcDbSpline
210
0
220
0
230
0
 70
    8
 71
    3
 72
    8
 73
    4
 74
    0
 42
1e-07
 43
1e-07
 40
0
 40
0
 40
0
 40
0
 40
1
 40
1
 40
1
 40
1
 10
8.901885000000014
 20
7.612038000000002
 30
0
 10
8.863545000000002
 20
7.732839000000002
 30
0
 10
8.766645000000004
 20
7.831679999999999
 30
0
 10
8.686557000000001
 20
7.831679999999999
 30
0
  0
SPLINE
  5
9C
100
AcDbEntity
  8
Calque_1
  6
ByLayer
 62
    7
370
   -1
100
AcDbSpline
210
0
220
0
230
0
 70
    8
 71
    3
 72
    8
 73
    4
 74
    0
 42
1e-07
 43
1e-07
 40
0
 40
0
 40
0
 40
0
 40
1
 40
1
 40
1
 40
1
 10
8.686557000000001
 20
7.831679999999999
 30
0
 10
8.30151
 20
7.831679999999999
 30
0
 10
8.087721000000002
 20
8.656668
 30
0
 10
8.316693000000001
 20
9.258915000000002
 30
0
  0
SPLINE
  5
9D
100
AcDbEntity
  8
Calque_1
  6
ByLayer
 62
    7
370
   -1
100
AcDbSpline
210
0
220
0
230
0
 70
    8
 71
    3
 72
    8
 73
    4
 74
    0
 42
1e-07
 43
1e-07
 40
0
 40
0
 40
0
 40
0
 40
1
 40
1
 40
1
 40
1
 10
8.316693000000001
 20
9.258915000000002
 30
0
 10
8.420469000000004
 20
9.531863999999999
 30
0
 10
8.425547999999999
 20
9.533079000000001
 30
0
 10
8.677313999999988
 20
9.345179999999999
 30
0
  0
SPLINE
  5
9E
100
AcDbEntity
  8
Calque_1
  6
ByLayer
 62
    7
370
   -1
100
AcDbSpline
210
0
220
0
230
0
 70
    8
 71
    3
 72
    8
 73
    4
 74
    0
 42
1e-07
 43
1e-07
 40
0
 40
0
 40
0
 40
0
 40
1
 40
1
 40
1
 40
1
 10
8.677313999999988
 20
9.345179999999999
 30
0
 10
8.817762000000009
 20
9.240359999999999
 30
0
 10
9.007254000000003
 20
9.035532
 30
0
 10
9.098406000000004
 20
8.890014000000001
 30
0
  0
SPLINE
  5
9F
100
AcDbEntity
  8
Calque_1
  6
ByLayer
 62
    7
370
   -1
100
AcDbSpline
210
0
220
0
230
0
 70
    8
 71
    3
 72
    8
 73
    4
 74
    0
 42
1e-07
 43
1e-07
 40
0
 40
0
 40
0
 40
0
 40
1
 40
1
 40
1
 40
1
 10
9.098406000000004
 20
8.890014000000001
 30
0
 10
9.235683000000002
 20
8.670857999999999
 30
0
 10
9.264620999999998
 20
8.659026000000001
 30
0
 10
9.266955000000003
 20
8.821100999999999
 30
0
  0
SPLINE
  5
A0
100
AcDbEntity
  8
Calque_1
  6
ByLayer
 62
    7
370
   -1
100
AcDbSpline
210
0
220
0
230
0
 70
    8
 71
    3
 72
    8
 73
    4
 74
    0
 42
1e-07
 43
1e-07
 40
0
 40
0
 40
0
 40
0
 40
1
 40
1
 40
1
 40
1
 10
9.266955000000003
 20
8.821100999999999
 30
0
 10
9.272565
 20
9.210549
 30
0
 10
9.597428999999998
 20
9.702321000000001
 30
0
 10
9.964842000000004
 20
9.877527000000001
 30
0
  0
SPLINE
  5
A1
100
AcDbEntity
  8
Calque_1
  6
ByLayer
 62
    7
370
   -1
100
AcDbSpline
210
0
220
0
230
0
 70
    8
 71
    3
 72
    8
 73
    4
 74
    0
 42
1e-07
 43
1e-07
 40
0
 40
0
 40
0
 40
0
 40
1
 40
1
 40
1
 40
1
 10
9.964842000000004
 20
9.877527000000001
 30
0
 10
10.16858399999999
 20
9.974685000000001
 30
0
 10
10.381293
 20
10.054179
 30
0
 10
10.437528
 20
10.054179
 30
0
  0
SPLINE
  5
A2
100
AcDbEntity
  8
Calque_1
  6
ByLayer
 62
    7
370
   -1
100
AcDbSpline
210
0
220
0
230
0
 70
    8
 71
    3
 72
    8
 73
    4
 74
    0
 42
1e-07
 43
1e-07
 40
0
 40
0
 40
0
 40
0
 40
1
 40
1
 40
1
 40
1
 10
10.437528
 20
10.054179
 30
0
 10
10.621299
 20
10.054179
 30
0
 10
10.546656
 20
9.167183999999999
 30
0
 10
10.333461
 20
8.817540000000001
 30
0
  0
SPLINE
  5
A3
100
AcDbEntity
  8
Calque_1
  6
ByLayer
 62
    7
370
   -1
100
AcDbSpline
210
0
220
0
230
0
 70
    8
 71
    3
 72
    8
 73
    4
 74
    0
 42
1e-07
 43
1e-07
 40
0
 40
0
 40
0
 40
0
 40
1
 40
1
 40
1
 40
1
 10
10.333461
 20
8.817540000000001
 30
0
 10
10.191669
 20
8.584997999999999
 30
0
 10
10.166484
 20
8.467635000000001
 30
0
 10
10.252242
 20
8.439050999999999
 30
0
  0
SPLINE
  5
A4
100
AcDbEntity
  8
Calque_1
  6
ByLayer
 62
    7
370
   -1
100
AcDbSpline
210
0
220
0
230
0
 70
    8
 71
    3
 72
    8
 73
    4
 74
    0
 42
1e-07
 43
1e-07
 40
0
 40
0
 40
0
 40
0
 40
1
 40
1
 40
1
 40
1
 10
10.252242
 20
8.439050999999999
 30
0
 10
10.33907999999999
 20
8.410101000000001
 30
0
 10
10.320663
 20
8.312339999999999
 30
0
 10
10.191132
 20
8.114649
 30
0
  0
SPLINE
  5
A5
100
AcDbEntity
  8
Calque_1
  6
ByLayer
 62
    7
370
   -1
100
AcDbSpline
210
0
220
0
230
0
 70
    8
 71
    3
 72
    8
 73
    4
 74
    0
 42
1e-07
 43
1e-07
 40
0
 40
0
 40
0
 40
0
 40
1
 40
1
 40
1
 40
1
 10
10.191132
 20
8.114649
 30
0
 10
10.00704
 20
7.833690000000001
 30
0
 10
10.007622
 20
7.831679999999999
 30
0
 10
10.272747
 20
7.831679999999999
 30
0
  0
SPLINE
  5
A6
100
AcDbEntity
  8
Calque_1
  6
ByLayer
 62
    7
370
   -1
100
AcDbSpline
210
0
220
0
230
0
 70
    8
 71
    3
 72
    8
 73
    4
 74
    0
 42
1e-07
 43
1e-07
 40
0
 40
0
 40
0
 40
0
 40
1
 40
1
 40
1
 40
1
 10
10.272747
 20
7.831679999999999
 30
0
 10
10.63254
 20
7.831679999999999
 30
0
 10
10.633722
 20
7.430409000000001
 30
0
 10
10.275147
 20
7.004313
 30
0
  0
SPLINE
  5
A7
100
AcDbEntity
  8
Calque_1
  6
ByLayer
 62
    7
370
   -1
100
AcDbSpline
210
0
220
0
230
0
 70
    8
 71
    3
 72
    8
 73
    4
 74
    0
 42
1e-07
 43
1e-07
 40
0
 40
0
 40
0
 40
0
 40
1
 40
1
 40
1
 40
1
 10
10.275147
 20
7.004313
 30
0
 10
10.129626
 20
6.831372000000002
 30
0
 10
10.010565
 20
6.605250000000002
 30
0
 10
10.010565
 20
6.501819000000001
 30
0
  0
SPLINE
  5
A8
100
AcDbEntity
  8
Calque_1
  6
ByLayer
 62
    7
370
   -1
100
AcDbSpline
210
0
220
0
230
0
 70
    8
 71
    3
 72
    8
 73
    4
 74
    0
 42
1e-07
 43
1e-07
 40
0
 40
0
 40
0
 40
0
 40
1
 40
1
 40
1
 40
1
 10
10.010565
 20
6.501819000000001
 30
0
 10
10.010565
 20
6.398388000000001
 30
0
 10
9.929889000000003
 20
6.224619000000001
 30
0
 10
9.831288000000001
 20
6.115667999999999
 30
0
  0
SPLINE
  5
A9
100
AcDbEntity
  8
Calque_1
  6
ByLayer
 62
    7
370
   -1
100
AcDbSpline
210
0
220
0
230
0
 70
    8
 71
    3
 72
    8
 73
    4
 74
    0
 42
1e-07
 43
1e-07
 40
0
 40
0
 40
0
 40
0
 40
1
 40
1
 40
1
 40
1
 10
9.831288000000001
 20
6.115667999999999
 30
0
 10
9.661935
 20
5.928531
 30
0
 10
9.662862000000004
 20
5.921733
 30
0
 10
9.848027999999999
 20
5.992782000000002
 30
0
  0
SPLINE
  5
AA
100
AcDbEntity
  8
Calque_1
  6
ByLayer
 62
    7
370
   -1
100
AcDbSpline
210
0
220
0
230
0
 70
    8
 71
    3
 72
    8
 73
    4
 74
    0
 42
1e-07
 43
1e-07
 40
0
 40
0
 40
0
 40
0
 40
1
 40
1
 40
1
 40
1
 10
9.848027999999999
 20
5.992782000000002
 30
0
 10
10.022832
 20
6.059861999999999
 30
0
 10
10.037241
 20
6.026171999999999
 30
0
 10
9.981267000000003
 20
5.681244
 30
0
  0
SPLINE
  5
AB
100
AcDbEntity
  8
Calque_1
  6
ByLayer
 62
    7
370
   -1
100
AcDbSpline
210
0
220
0
230
0
 70
    8
 71
    3
 72
    8
 73
    4
 74
    0
 42
1e-07
 43
1e-07
 40
0
 40
0
 40
0
 40
0
 40
1
 40
1
 40
1
 40
1
 10
9.981267000000003
 20
5.681244
 30
0
 10
9.941409000000014
 20
5.435628000000001
 30
0
 10
9.964257000000003
 20
5.265015000000002
 30
0
 10
10.04391599999999
 20
5.213712000000001
 30
0
  0
SPLINE
  5
AC
100
AcDbEntity
  8
Calque_1
  6
ByLayer
 62
    7
370
   -1
100
AcDbSpline
210
0
220
0
230
0
 70
    8
 71
    3
 72
    8
 73
    4
 74
    0
 42
1e-07
 43
1e-07
 40
0
 40
0
 40
0
 40
0
 40
1
 40
1
 40
1
 40
1
 10
10.04391599999999
 20
5.213712000000001
 30
0
 10
10.177806
 20
5.127465000000001
 30
0
 10
10.645575
 20
4.49202
 30
0
 10
10.645575
 20
4.396380000000001
 30
0
  0
SPLINE
  5
AD
100
AcDbEntity
  8
Calque_1
  6
ByLayer
 62
    7
370
   -1
100
AcDbSpline
210
0
220
0
230
0
 70
    8
 71
    3
 72
    8
 73
    4
 74
    0
 42
1e-07
 43
1e-07
 40
0
 40
0
 40
0
 40
0
 40
1
 40
1
 40
1
 40
1
 10
10.645575
 20
4.396380000000001
 30
0
 10
10.645575
 20
4.364919
 30
0
 10
10.359825
 20
4.339179000000001
 30
0
 10
10.010577
 20
4.339179000000001
 30
0
  0
SPLINE
  5
AE
100
AcDbEntity
  8
Calque_1
  6
ByLayer
 62
    7
370
   -1
100
AcDbSpline
210
0
220
0
230
0
 70
    8
 71
    3
 72
    8
 73
    4
 74
    0
 42
1e-07
 43
1e-07
 40
0
 40
0
 40
0
 40
0
 40
1
 40
1
 40
1
 40
1
 10
10.010577
 20
4.339179000000001
 30
0
 10
9.350859
 20
4.339179000000001
 30
0
 10
8.952243000000003
 20
4.558419000000001
 30
0
 10
8.952243000000003
 20
4.921263
 30
0
  0
SPLINE
  5
AF
100
AcDbEntity
  8
Calque_1
  6
ByLayer
 62
    7
370
   -1
100
AcDbSpline
210
0
220
0
230
0
 70
    8
 71
    3
 72
    8
 73
    4
 74
    0
 42
1e-07
 43
1e-07
 40
0
 40
0
 40
0
 40
0
 40
1
 40
1
 40
1
 40
1
 10
8.952243000000003
 20
4.921263
 30
0
 10
8.952243000000003
 20
5.132013000000001
 30
0
 10
8.674776000000001
 20
5.125326000000001
 30
0
 10
8.593149000000004
 20
4.912593000000001
 30
0
  0
SPLINE
  5
B0
100
AcDbEntity
  8
Calque_1
  6
ByLayer
 62
    7
370
   -1
100
AcDbSpline
210
0
220
0
230
0
 70
    8
 71
    3
 72
    8
 73
    4
 74
    0
 42
1e-07
 43
1e-07
 40
0
 40
0
 40
0
 40
0
 40
1
 40
1
 40
1
 40
1
 10
8.593149000000004
 20
4.912593000000001
 30
0
 10
8.507127000000004
 20
4.688424000000001
 30
0
 10
8.512221000000004
 20
4.633859999999999
 30
0
 10
8.613339000000003
 20
4.696353000000002
 30
0
  0
SPLINE
  5
B1
100
AcDbEntity
  8
Calque_1
  6
ByLayer
 62
    7
370
   -1
100
AcDbSpline
210
0
220
0
230
0
 70
    8
 71
    3
 72
    8
 73
    4
 74
    0
 42
1e-07
 43
1e-07
 40
0
 40
0
 40
0
 40
0
 40
1
 40
1
 40
1
 40
1
 10
8.613339000000003
 20
4.696353000000002
 30
0
 10
8.659776000000001
 20
4.725062999999999
 30
0
 10
8.765681999999998
 20
4.706553
 30
0
 10
8.848692
 20
4.655256000000001
 30
0
  0
SPLINE
  5
B2
100
AcDbEntity
  8
Calque_1
  6
ByLayer
 62
    7
370
   -1
100
AcDbSpline
210
0
220
0
230
0
 70
    8
 71
    3
 72
    8
 73
    4
 74
    0
 42
1e-07
 43
1e-07
 40
0
 40
0
 40
0
 40
0
 40
1
 40
1
 40
1
 40
1
 10
8.848692
 20
4.655256000000001
 30
0
 10
8.972673
 20
4.578633
 30
0
 10
8.952876000000003
 20
4.511187
 30
0
 10
8.737805999999999
 20
4.277460000000001
 30
0
  0
SPLINE
  5
B3
100
AcDbEntity
  8
Calque_1
  6
ByLayer
 62
    7
370
   -1
100
AcDbSpline
210
0
220
0
230
0
 70
    8
 71
    3
 72
    8
 73
    4
 74
    0
 42
1e-07
 43
1e-07
 40
0
 40
0
 40
0
 40
0
 40
1
 40
1
 40
1
 40
1
 10
8.737805999999999
 20
4.277460000000001
 30
0
 10
8.480429999999998
 20
3.997758000000001
 30
0
 10
8.480094000000001
 20
3.995073000000001
 30
0
 10
8.718125999999998
 20
4.119
 30
0
  0
SPLINE
  5
B4
100
AcDbEntity
  8
Calque_1
  6
ByLayer
 62
    7
370
   -1
100
AcDbSpline
210
0
220
0
230
0
 70
    8
 71
    3
 72
    8
 73
    4
 74
    0
 42
1e-07
 43
1e-07
 40
0
 40
0
 40
0
 40
0
 40
1
 40
1
 40
1
 40
1
 10
8.718125999999998
 20
4.119
 30
0
 10
9.037617000000004
 20
4.285340999999999
 30
0
 10
9.261359999999989
 20
4.202511000000001
 30
0
 10
9.691586999999998
 20
3.758631000000001
 30
0
  0
LWPOLYLINE
  5
B5
100
AcDbEntity
  8
Calque_1
  6
ByLayer
 62
    7
370
   -1
100
AcDbPolyline
 90
    3
 70
    0
 43
0
 10
4.851227999999999
 20
8.790879
 10
5.089353000000003
 20
8.797599000000002
 10
4.857399000000001
 20
8.891031000000002
  0
SPLINE
  5
B6
100
AcDbEntity
  8
Calque_1
  6
ByLayer
 62
    7
370
   -1
100
AcDbSpline
210
0
220
0
230
0
 70
    8
 71
    3
 72
    8
 73
    4
 74
    0
 42
1e-07
 43
1e-07
 40
0
 40
0
 40
0
 40
0
 40
1
 40
1
 40
1
 40
1
 10
9.662072999999999
 20
3.230246999999999
 30
0
 10
9.156765
 20
3.019116
 30
0
 10
9.129854999999999
 20
3.022442999999999
 30
0
 10
8.748708000000001
 20
3.343157999999999
 30
0
  0
LWPOLYLINE
  5
B7
100
AcDbEntity
  8
Calque_1
  6
ByLayer
 62
    7
370
   -1
100
AcDbPolyline
 90
    3
 70
    0
 43
0
 10
9.691586999999998
 20
3.758631000000001
 10
10.047591
 20
3.391325999999999
 10
9.662072999999999
 20
3.230246999999999
  0
SPLINE
  5
B8
100
AcDbEntity
  8
Calque_1
  6
ByLayer
 62
    7
370
   -1
100
AcDbSpline
210
0
220
0
230
0
 70
    8
 71
    3
 72
    8
 73
    4
 74
    0
 42
1e-07
 43
1e-07
 40
0
 40
0
 40
0
 40
0
 40
1
 40
1
 40
1
 40
1
 10
8.423082000000001
 20
3.304514999999999
 30
0
 10
8.423082000000001
 20
3.132563999999999
 30
0
 10
8.329391999999999
 20
2.872769999999999
 30
0
 10
8.214882000000003
 20
2.727195000000002
 30
0
  0
SPLINE
  5
B9
100
AcDbEntity
  8
Calque_1
  6
ByLayer
 62
    7
370
   -1
100
AcDbSpline
210
0
220
0
230
0
 70
    8
 71
    3
 72
    8
 73
    4
 74
    0
 42
1e-07
 43
1e-07
 40
0
 40
0
 40
0
 40
0
 40
1
 40
1
 40
1
 40
1
 10
8.214882000000003
 20
2.727195000000002
 30
0
 10
7.931792999999999
 20
2.367305999999999
 30
0
 10
8.054862
 20
2.287233000000001
 30
0
 10
8.384475000000002
 20
2.616849000000002
 30
0
  0
SPLINE
  5
BA
100
AcDbEntity
  8
Calque_1
  6
ByLayer
 62
    7
370
   -1
100
AcDbSpline
210
0
220
0
230
0
 70
    8
 71
    3
 72
    8
 73
    4
 74
    0
 42
1e-07
 43
1e-07
 40
0
 40
0
 40
0
 40
0
 40
1
 40
1
 40
1
 40
1
 10
8.384475000000002
 20
2.616849000000002
 30
0
 10
8.616108000000004
 20
2.848482000000001
 30
0
 10
8.718806999999998
 20
2.876352000000001
 30
0
 10
9.178041
 20
2.832228000000001
 30
0
  0
SPLINE
  5
BB
100
AcDbEntity
  8
Calque_1
  6
ByLayer
 62
    7
370
   -1
100
AcDbSpline
210
0
220
0
230
0
 70
    8
 71
    3
 72
    8
 73
    4
 74
    0
 42
1e-07
 43
1e-07
 40
0
 40
0
 40
0
 40
0
 40
1
 40
1
 40
1
 40
1
 10
9.178041
 20
2.832228000000001
 30
0
 10
9.934836000000004
 20
2.759508
 30
0
 10
10.02384
 20
2.620028999999999
 30
0
 10
9.595469999999999
 20
2.178066000000001
 30
0
  0
SPLINE
  5
BC
100
AcDbEntity
  8
Calque_1
  6
ByLayer
 62
    7
370
   -1
100
AcDbSpline
210
0
220
0
230
0
 70
    8
 71
    3
 72
    8
 73
    4
 74
    0
 42
1e-07
 43
1e-07
 40
0
 40
0
 40
0
 40
0
 40
1
 40
1
 40
1
 40
1
 10
9.595469999999999
 20
2.178066000000001
 30
0
 10
9.164679000000014
 20
1.733601
 30
0
 10
8.804271
 20
1.62726
 30
0
 10
8.470310999999988
 20
1.846077000000001
 30
0
  0
SPLINE
  5
BD
100
AcDbEntity
  8
Calque_1
  6
ByLayer
 62
    7
370
   -1
100
AcDbSpline
210
0
220
0
230
0
 70
    8
 71
    3
 72
    8
 73
    4
 74
    0
 42
1e-07
 43
1e-07
 40
0
 40
0
 40
0
 40
0
 40
1
 40
1
 40
1
 40
1
 10
8.470310999999988
 20
1.846077000000001
 30
0
 10
8.115386999999998
 20
2.078634000000001
 30
0
 10
8.049752999999988
 20
1.864616999999999
 30
0
 10
8.375961000000004
 20
1.538409000000001
 30
0
  0
SPLINE
  5
BE
100
AcDbEntity
  8
Calque_1
  6
ByLayer
 62
    7
370
   -1
100
AcDbSpline
210
0
220
0
230
0
 70
    8
 71
    3
 72
    8
 73
    4
 74
    0
 42
1e-07
 43
1e-07
 40
0
 40
0
 40
0
 40
0
 40
1
 40
1
 40
1
 40
1
 10
8.375961000000004
 20
1.538409000000001
 30
0
 10
8.678355000000003
 20
1.236015
 30
0
 10
8.670099
 20
0.9917879999999997
 30
0
 10
8.358771000000004
 20
1.029993000000001
 30
0
  0
SPLINE
  5
BF
100
AcDbEntity
  8
Calque_1
  6
ByLayer
 62
    7
370
   -1
100
AcDbSpline
210
0
220
0
230
0
 70
    8
 71
    3
 72
    8
 73
    4
 74
    0
 42
1e-07
 43
1e-07
 40
0
 40
0
 40
0
 40
0
 40
1
 40
1
 40
1
 40
1
 10
8.358771000000004
 20
1.029993000000001
 30
0
 10
8.248620000000003
 20
1.043523
 30
0
 10
7.982427000000001
 20
1.068768
 30
0
 10
7.767234000000002
 20
1.086117
 30
0
  0
SPLINE
  5
C0
100
AcDbEntity
  8
Calque_1
  6
ByLayer
 62
    7
370
   -1
100
AcDbSpline
210
0
220
0
230
0
 70
    8
 71
    3
 72
    8
 73
    4
 74
    0
 42
1e-07
 43
1e-07
 40
0
 40
0
 40
0
 40
0
 40
1
 40
1
 40
1
 40
1
 10
7.767234000000002
 20
1.086117
 30
0
 10
7.552038000000003
 20
1.103457000000001
 30
0
 10
7.342106999999999
 20
1.151526
 30
0
 10
7.300722000000015
 20
1.192914
 30
0
  0
SPLINE
  5
C1
100
AcDbEntity
  8
Calque_1
  6
ByLayer
 62
    7
370
   -1
100
AcDbSpline
210
0
220
0
230
0
 70
    8
 71
    3
 72
    8
 73
    4
 74
    0
 42
1e-07
 43
1e-07
 40
0
 40
0
 40
0
 40
0
 40
1
 40
1
 40
1
 40
1
 10
7.300722000000015
 20
1.192914
 30
0
 10
7.259334000000003
 20
1.234302
 30
0
 10
7.157927999999998
 20
1.212114
 30
0
 10
7.075374000000004
 20
1.143597
 30
0
  0
SPLINE
  5
C2
100
AcDbEntity
  8
Calque_1
  6
ByLayer
 62
    7
370
   -1
100
AcDbSpline
210
0
220
0
230
0
 70
    8
 71
    3
 72
    8
 73
    4
 74
    0
 42
1e-07
 43
1e-07
 40
0
 40
0
 40
0
 40
0
 40
1
 40
1
 40
1
 40
1
 10
7.075374000000004
 20
1.143597
 30
0
 10
6.881723999999998
 20
0.9828810000000008
 30
0
 10
6.706856999999999
 20
1.218434999999999
 30
0
 10
6.765483000000003
 20
1.561040999999999
 30
0
  0
SPLINE
  5
C3
100
AcDbEntity
  8
Calque_1
  6
ByLayer
 62
    7
370
   -1
100
AcDbSpline
210
0
220
0
230
0
 70
    8
 71
    3
 72
    8
 73
    4
 74
    0
 42
1e-07
 43
1e-07
 40
0
 40
0
 40
0
 40
0
 40
1
 40
1
 40
1
 40
1
 10
6.765483000000003
 20
1.561040999999999
 30
0
 10
6.787893000000004
 20
1.692012000000002
 30
0
 10
6.777123000000003
 20
1.798437
 30
0
 10
6.741513000000005
 20
1.797546000000001
 30
0
  0
SPLINE
  5
C4
100
AcDbEntity
  8
Calque_1
  6
ByLayer
 62
    7
370
   -1
100
AcDbSpline
210
0
220
0
230
0
 70
    8
 71
    3
 72
    8
 73
    4
 74
    0
 42
1e-07
 43
1e-07
 40
0
 40
0
 40
0
 40
0
 40
1
 40
1
 40
1
 40
1
 10
6.741513000000005
 20
1.797546000000001
 30
0
 10
6.538614000000003
 20
1.792476000000001
 30
0
 10
6.406905000000002
 20
1.568114999999999
 30
0
 10
6.305222999999998
 20
1.05438
 30
0
  0
SPLINE
  5
C5
100
AcDbEntity
  8
Calque_1
  6
ByLayer
 62
    7
370
   -1
100
AcDbSpline
210
0
220
0
230
0
 70
    8
 71
    3
 72
    8
 73
    4
 74
    0
 42
1e-07
 43
1e-07
 40
0
 40
0
 40
0
 40
0
 40
1
 40
1
 40
1
 40
1
 10
6.305222999999998
 20
1.05438
 30
0
 10
6.105342000000014
 20
0.04449600000000054
 30
0
 10
6.092463000000002
 20
0
 30
0
 10
6
 20
0
 30
0
  0
SPLINE
  5
C6
100
AcDbEntity
  8
Calque_1
  6
ByLayer
 62
    7
370
   -1
100
AcDbSpline
210
0
220
0
230
0
 70
    8
 71
    3
 72
    8
 73
    4
 74
    0
 42
1e-07
 43
1e-07
 40
0
 40
0
 40
0
 40
0
 40
1
 40
1
 40
1
 40
1
 10
6
 20
0
 30
0
 10
5.950116000000001
 20
0
 30
0
 10
5.973150000000004
 20
0.2976570000000009
 30
0
 10
6.051216000000004
 20
0.6614579999999997
 30
0
  0
LWPOLYLINE
  5
C7
100
AcDbEntity
  8
Calque_1
  6
ByLayer
 62
    7
370
   -1
100
AcDbPolyline
 90
    3
 70
    0
 43
0
 10
8.748708000000001
 20
3.343157999999999
 10
8.423082000000001
 20
3.617151
 10
8.423082000000001
 20
3.304514999999999
  0
SPLINE
  5
C8
100
AcDbEntity
  8
Calque_1
  6
ByLayer
 62
    7
370
   -1
100
AcDbSpline
210
0
220
0
230
0
 70
    8
 71
    3
 72
    8
 73
    4
 74
    0
 42
1e-07
 43
1e-07
 40
0
 40
0
 40
0
 40
0
 40
1
 40
1
 40
1
 40
1
 10
6.883217999999999
 20
2.022729000000002
 30
0
 10
6.938517000000004
 20
2.074394999999999
 30
0
 10
7.072434000000001
 20
2.116668000000001
 30
0
 10
7.180812000000003
 20
2.116668000000001
 30
0
  0
SPLINE
  5
C9
100
AcDbEntity
  8
Calque_1
  6
ByLayer
 62
    7
370
   -1
100
AcDbSpline
210
0
220
0
230
0
 70
    8
 71
    3
 72
    8
 73
    4
 74
    0
 42
1e-07
 43
1e-07
 40
0
 40
0
 40
0
 40
0
 40
1
 40
1
 40
1
 40
1
 10
7.180812000000003
 20
2.116668000000001
 30
0
 10
7.289186999999998
 20
2.116668000000001
 30
0
 10
7.484321999999999
 20
2.196968999999999
 30
0
 10
7.614440999999999
 20
2.295120000000001
 30
0
  0
SPLINE
  5
CA
100
AcDbEntity
  8
Calque_1
  6
ByLayer
 62
    7
370
   -1
100
AcDbSpline
210
0
220
0
230
0
 70
    8
 71
    3
 72
    8
 73
    4
 74
    0
 42
1e-07
 43
1e-07
 40
0
 40
0
 40
0
 40
0
 40
1
 40
1
 40
1
 40
1
 10
7.614440999999999
 20
2.295120000000001
 30
0
 10
7.848216000000001
 20
2.471454000000001
 30
0
 10
7.848765
 20
2.477997000000002
 30
0
 10
7.660806000000001
 20
2.846664000000001
 30
0
  0
SPLINE
  5
CB
100
AcDbEntity
  8
Calque_1
  6
ByLayer
 62
    7
370
   -1
100
AcDbSpline
210
0
220
0
230
0
 70
    8
 71
    3
 72
    8
 73
    4
 74
    0
 42
1e-07
 43
1e-07
 40
0
 40
0
 40
0
 40
0
 40
1
 40
1
 40
1
 40
1
 10
7.660806000000001
 20
2.846664000000001
 30
0
 10
7.418838000000001
 20
3.321273000000001
 30
0
 10
7.421903999999998
 20
3.443808000000001
 30
0
 10
7.682256000000002
 20
3.704166000000001
 30
0
  0
SPLINE
  5
CC
100
AcDbEntity
  8
Calque_1
  6
ByLayer
 62
    7
370
   -1
100
AcDbSpline
210
0
220
0
230
0
 70
    8
 71
    3
 72
    8
 73
    4
 74
    0
 42
1e-07
 43
1e-07
 40
0
 40
0
 40
0
 40
0
 40
1
 40
1
 40
1
 40
1
 10
7.682256000000002
 20
3.704166000000001
 30
0
 10
7.814115000000001
 20
3.836024999999999
 30
0
 10
7.842945
 20
3.915834
 30
0
 10
7.758720000000004
 20
3.915834
 30
0
  0
SPLINE
  5
CD
100
AcDbEntity
  8
Calque_1
  6
ByLayer
 62
    7
370
   -1
100
AcDbSpline
210
0
220
0
230
0
 70
    8
 71
    3
 72
    8
 73
    4
 74
    0
 42
1e-07
 43
1e-07
 40
0
 40
0
 40
0
 40
0
 40
1
 40
1
 40
1
 40
1
 10
7.758720000000004
 20
3.915834
 30
0
 10
7.332582000000002
 20
3.915834
 30
0
 10
6.306420000000003
 20
2.642738999999999
 30
0
 10
6.306420000000003
 20
2.114055
 30
0
  0
SPLINE
  5
CE
100
AcDbEntity
  8
Calque_1
  6
ByLayer
 62
    7
370
   -1
100
AcDbSpline
210
0
220
0
230
0
 70
    8
 71
    3
 72
    8
 73
    4
 74
    0
 42
1e-07
 43
1e-07
 40
0
 40
0
 40
0
 40
0
 40
1
 40
1
 40
1
 40
1
 10
6.306420000000003
 20
2.114055
 30
0
 10
6.306420000000003
 20
1.821950999999999
 30
0
 10
6.333240000000004
 20
1.793001
 30
0
 10
6.544547999999999
 20
1.856847000000002
 30
0
  0
SPLINE
  5
CF
100
AcDbEntity
  8
Calque_1
  6
ByLayer
 62
    7
370
   -1
100
AcDbSpline
210
0
220
0
230
0
 70
    8
 71
    3
 72
    8
 73
    4
 74
    0
 42
1e-07
 43
1e-07
 40
0
 40
0
 40
0
 40
0
 40
1
 40
1
 40
1
 40
1
 10
6.544547999999999
 20
1.856847000000002
 30
0
 10
6.675516000000002
 20
1.896417
 30
0
 10
6.827916000000002
 20
1.971063000000001
 30
0
 10
6.883212
 20
2.022729000000002
 30
0
  0
LWPOLYLINE
  5
D0
100
AcDbEntity
  8
Calque_1
  6
ByLayer
 62
    7
370
   -1
100
AcDbPolyline
 90
    1
 70
    1
 43
0
 10
6.051216000000004
 20
0.6614579999999997
  0
SPLINE
  5
D1
100
AcDbEntity
  8
Calque_1
  6
ByLayer
 62
    7
370
   -1
100
AcDbSpline
210
0
220
0
230
0
 70
    8
 71
    3
 72
    8
 73
    4
 74
    0
 42
1e-07
 43
1e-07
 40
0
 40
0
 40
0
 40
0
 40
1
 40
1
 40
1
 40
1
 10
6.411855000000003
 20
2.856743999999999
 30
0
 10
6.516669
 20
3.052589999999999
 30
0
 10
6.505832999999988
 20
3.059042999999999
 30
0
 10
6.260148000000001
 20
2.947101
 30
0
  0
SPLINE
  5
D2
100
AcDbEntity
  8
Calque_1
  6
ByLayer
 62
    7
370
   -1
100
AcDbSpline
210
0
220
0
230
0
 70
    8
 71
    3
 72
    8
 73
    4
 74
    0
 42
1e-07
 43
1e-07
 40
0
 40
0
 40
0
 40
0
 40
1
 40
1
 40
1
 40
1
 10
6.260148000000001
 20
2.947101
 30
0
 10
6.114626999999999
 20
2.880797999999999
 30
0
 10
6.020693999999999
 20
2.785886999999999
 30
0
 10
6.051408000000002
 20
2.736191999999999
 30
0
  0
SPLINE
  5
D3
100
AcDbEntity
  8
Calque_1
  6
ByLayer
 62
    7
370
   -1
100
AcDbSpline
210
0
220
0
230
0
 70
    8
 71
    3
 72
    8
 73
    4
 74
    0
 42
1e-07
 43
1e-07
 40
0
 40
0
 40
0
 40
0
 40
1
 40
1
 40
1
 40
1
 10
6.051408000000002
 20
2.736191999999999
 30
0
 10
6.144863999999998
 20
2.584976999999999
 30
0
 10
6.292908000000004
 20
2.634492000000002
 30
0
 10
6.411855000000003
 20
2.856743999999999
 30
0
  0
LWPOLYLINE
  5
D4
100
AcDbEntity
  8
Calque_1
  6
ByLayer
 62
    7
370
   -1
100
AcDbPolyline
 90
    1
 70
    1
 43
0
 10
6.883212
 20
2.022729000000002
  0
SPLINE
  5
D5
100
AcDbEntity
  8
Calque_1
  6
ByLayer
 62
    7
370
   -1
100
AcDbSpline
210
0
220
0
230
0
 70
    8
 71
    3
 72
    8
 73
    4
 74
    0
 42
1e-07
 43
1e-07
 40
0
 40
0
 40
0
 40
0
 40
1
 40
1
 40
1
 40
1
 10
4.613094000000004
 20
3.069168000000001
 30
0
 10
4.613094000000004
 20
3.127374
 30
0
 10
4.541657999999998
 20
3.174999
 30
0
 10
4.454343000000001
 20
3.174999
 30
0
  0
SPLINE
  5
D6
100
AcDbEntity
  8
Calque_1
  6
ByLayer
 62
    7
370
   -1
100
AcDbSpline
210
0
220
0
230
0
 70
    8
 71
    3
 72
    8
 73
    4
 74
    0
 42
1e-07
 43
1e-07
 40
0
 40
0
 40
0
 40
0
 40
1
 40
1
 40
1
 40
1
 10
4.454343000000001
 20
3.174999
 30
0
 10
4.367031000000004
 20
3.174999
 30
0
 10
4.295594999999999
 20
3.127374
 30
0
 10
4.295594999999999
 20
3.069168000000001
 30
0
  0
SPLINE
  5
D7
100
AcDbEntity
  8
Calque_1
  6
ByLayer
 62
    7
370
   -1
100
AcDbSpline
210
0
220
0
230
0
 70
    8
 71
    3
 72
    8
 73
    4
 74
    0
 42
1e-07
 43
1e-07
 40
0
 40
0
 40
0
 40
0
 40
1
 40
1
 40
1
 40
1
 10
4.295594999999999
 20
3.069168000000001
 30
0
 10
4.295594999999999
 20
3.010959
 30
0
 10
4.367031000000004
 20
2.963334
 30
0
 10
4.454343000000001
 20
2.963334
 30
0
  0
SPLINE
  5
D8
100
AcDbEntity
  8
Calque_1
  6
ByLayer
 62
    7
370
   -1
100
AcDbSpline
210
0
220
0
230
0
 70
    8
 71
    3
 72
    8
 73
    4
 74
    0
 42
1e-07
 43
1e-07
 40
0
 40
0
 40
0
 40
0
 40
1
 40
1
 40
1
 40
1
 10
4.454343000000001
 20
2.963334
 30
0
 10
4.541657999999998
 20
2.963334
 30
0
 10
4.613094000000004
 20
3.010959
 30
0
 10
4.613094000000004
 20
3.069168000000001
 30
0
  0
LWPOLYLINE
  5
D9
100
AcDbEntity
  8
Calque_1
  6
ByLayer
 62
    7
370
   -1
100
AcDbPolyline
 90
    1
 70
    1
 43
0
 10
6.411855000000003
 20
2.856743999999999
  0
SPLINE
  5
DA
100
AcDbEntity
  8
Calque_1
  6
ByLayer
 62
    7
370
   -1
100
AcDbSpline
210
0
220
0
230
0
 70
    8
 71
    3
 72
    8
 73
    4
 74
    0
 42
1e-07
 43
1e-07
 40
0
 40
0
 40
0
 40
0
 40
1
 40
1
 40
1
 40
1
 10
5.244435000000003
 20
3.287666999999999
 30
0
 10
5.145986999999998
 20
3.471617999999999
 30
0
 10
5.101347000000004
 20
3.484461
 30
0
 10
4.962084000000004
 20
3.368883
 30
0
  0
SPLINE
  5
DB
100
AcDbEntity
  8
Calque_1
  6
ByLayer
 62
    7
370
   -1
100
AcDbSpline
210
0
220
0
230
0
 70
    8
 71
    3
 72
    8
 73
    4
 74
    0
 42
1e-07
 43
1e-07
 40
0
 40
0
 40
0
 40
0
 40
1
 40
1
 40
1
 40
1
 10
4.962084000000004
 20
3.368883
 30
0
 10
4.815801
 20
3.247482000000002
 30
0
 10
4.825839000000002
 20
3.223424999999999
 30
0
 10
5.048838000000003
 20
3.160931999999999
 30
0
  0
SPLINE
  5
DC
100
AcDbEntity
  8
Calque_1
  6
ByLayer
 62
    7
370
   -1
100
AcDbSpline
210
0
220
0
230
0
 70
    8
 71
    3
 72
    8
 73
    4
 74
    0
 42
1e-07
 43
1e-07
 40
0
 40
0
 40
0
 40
0
 40
1
 40
1
 40
1
 40
1
 10
5.048838000000003
 20
3.160931999999999
 30
0
 10
5.187533999999999
 20
3.122067000000001
 30
0
 10
5.314593000000002
 20
3.085518
 30
0
 10
5.331192000000001
 20
3.079716000000001
 30
0
  0
SPLINE
  5
DD
100
AcDbEntity
  8
Calque_1
  6
ByLayer
 62
    7
370
   -1
100
AcDbSpline
210
0
220
0
230
0
 70
    8
 71
    3
 72
    8
 73
    4
 74
    0
 42
1e-07
 43
1e-07
 40
0
 40
0
 40
0
 40
0
 40
1
 40
1
 40
1
 40
1
 10
5.331192000000001
 20
3.079716000000001
 30
0
 10
5.347782000000002
 20
3.073926
 30
0
 10
5.308751999999998
 20
3.167490000000001
 30
0
 10
5.244435000000003
 20
3.287666999999999
 30
0
  0
LWPOLYLINE
  5
DE
100
AcDbEntity
  8
Calque_1
  6
ByLayer
 62
    7
370
   -1
100
AcDbPolyline
 90
    1
 70
    1
 43
0
 10
4.613094000000004
 20
3.069168000000001
  0
SPLINE
  5
DF
100
AcDbEntity
  8
Calque_1
  6
ByLayer
 62
    7
370
   -1
100
AcDbSpline
210
0
220
0
230
0
 70
    8
 71
    3
 72
    8
 73
    4
 74
    0
 42
1e-07
 43
1e-07
 40
0
 40
0
 40
0
 40
0
 40
1
 40
1
 40
1
 40
1
 10
6.314109000000002
 20
3.704166000000001
 30
0
 10
6.694140000000004
 20
3.704166000000001
 30
0
 10
6.729762000000001
 20
3.728406
 30
0
 10
6.729762000000001
 20
3.987197999999999
 30
0
  0
LWPOLYLINE
  5
E0
100
AcDbEntity
  8
Calque_1
  6
ByLayer
 62
    7
370
   -1
100
AcDbPolyline
 90
    1
 70
    1
 43
0
 10
5.244435000000003
 20
3.287666999999999
  0
SPLINE
  5
E1
100
AcDbEntity
  8
Calque_1
  6
ByLayer
 62
    7
370
   -1
100
AcDbSpline
210
0
220
0
230
0
 70
    8
 71
    3
 72
    8
 73
    4
 74
    0
 42
1e-07
 43
1e-07
 40
0
 40
0
 40
0
 40
0
 40
1
 40
1
 40
1
 40
1
 10
6.469629000000005
 20
4.025850000000002
 30
0
 10
6.252665999999998
 20
3.822023999999999
 30
0
 10
6.129729000000005
 20
3.790461000000001
 30
0
 10
5.728797
 20
3.835650000000001
 30
0
  0
SPLINE
  5
E2
100
AcDbEntity
  8
Calque_1
  6
ByLayer
 62
    7
370
   -1
100
AcDbSpline
210
0
220
0
230
0
 70
    8
 71
    3
 72
    8
 73
    4
 74
    0
 42
1e-07
 43
1e-07
 40
0
 40
0
 40
0
 40
0
 40
1
 40
1
 40
1
 40
1
 10
5.728797
 20
3.835650000000001
 30
0
 10
5.211474000000003
 20
3.893961000000001
 30
0
 10
5.126991000000004
 20
3.789377999999999
 30
0
 10
5.373086999999998
 20
3.395316000000001
 30
0
  0
SPLINE
  5
E3
100
AcDbEntity
  8
Calque_1
  6
ByLayer
 62
    7
370
   -1
100
AcDbSpline
210
0
220
0
230
0
 70
    8
 71
    3
 72
    8
 73
    4
 74
    0
 42
1e-07
 43
1e-07
 40
0
 40
0
 40
0
 40
0
 40
1
 40
1
 40
1
 40
1
 10
5.373086999999998
 20
3.395316000000001
 30
0
 10
5.493177000000003
 20
3.203022000000001
 30
0
 10
5.505932999999999
 20
3.205152000000002
 30
0
 10
5.698268999999989
 20
3.449667000000002
 30
0
  0
SPLINE
  5
E4
100
AcDbEntity
  8
Calque_1
  6
ByLayer
 62
    7
370
   -1
100
AcDbSpline
210
0
220
0
230
0
 70
    8
 71
    3
 72
    8
 73
    4
 74
    0
 42
1e-07
 43
1e-07
 40
0
 40
0
 40
0
 40
0
 40
1
 40
1
 40
1
 40
1
 10
5.698268999999989
 20
3.449667000000002
 30
0
 10
5.848976999999998
 20
3.641262000000001
 30
0
 10
6.001193999999998
 20
3.704166000000001
 30
0
 10
6.314109000000002
 20
3.704166000000001
 30
0
  0
LWPOLYLINE
  5
E5
100
AcDbEntity
  8
Calque_1
  6
ByLayer
 62
    7
370
   -1
100
AcDbPolyline
 90
    3
 70
    0
 43
0
 10
6.729762000000001
 20
3.987197999999999
 10
6.729762000000001
 20
4.270230000000002
 10
6.469629000000005
 20
4.025850000000002
  0
SPLINE
  5
E6
100
AcDbEntity
  8
Calque_1
  6
ByLayer
 62
    7
370
   -1
100
AcDbSpline
210
0
220
0
230
0
 70
    8
 71
    3
 72
    8
 73
    4
 74
    0
 42
1e-07
 43
1e-07
 40
0
 40
0
 40
0
 40
0
 40
1
 40
1
 40
1
 40
1
 10
2.552145000000003
 20
3.577893
 30
0
 10
2.519559000000001
 20
3.610479000000002
 30
0
 10
2.434161000000003
 20
3.577961999999999
 30
0
 10
2.362371000000003
 20
3.505631999999999
 30
0
  0
SPLINE
  5
E7
100
AcDbEntity
  8
Calque_1
  6
ByLayer
 62
    7
370
   -1
100
AcDbSpline
210
0
220
0
230
0
 70
    8
 71
    3
 72
    8
 73
    4
 74
    0
 42
1e-07
 43
1e-07
 40
0
 40
0
 40
0
 40
0
 40
1
 40
1
 40
1
 40
1
 10
2.362371000000003
 20
3.505631999999999
 30
0
 10
2.258628000000002
 20
3.401109000000002
 30
0
 10
2.270784000000003
 20
3.388953000000001
 30
0
 10
2.421618000000002
 20
3.446387999999999
 30
0
  0
SPLINE
  5
E8
100
AcDbEntity
  8
Calque_1
  6
ByLayer
 62
    7
370
   -1
100
AcDbSpline
210
0
220
0
230
0
 70
    8
 71
    3
 72
    8
 73
    4
 74
    0
 42
1e-07
 43
1e-07
 40
0
 40
0
 40
0
 40
0
 40
1
 40
1
 40
1
 40
1
 10
2.421618000000002
 20
3.446387999999999
 30
0
 10
2.525991000000005
 20
3.486132000000001
 30
0
 10
2.584727999999998
 20
3.545310000000001
 30
0
 10
2.552145000000003
 20
3.577893
 30
0
  0
LWPOLYLINE
  5
E9
100
AcDbEntity
  8
Calque_1
  6
ByLayer
 62
    7
370
   -1
100
AcDbPolyline
 90
    1
 70
    1
 43
0
 10
6.314109000000002
 20
3.704166000000001
  0
SPLINE
  5
EA
100
AcDbEntity
  8
Calque_1
  6
ByLayer
 62
    7
370
   -1
100
AcDbSpline
210
0
220
0
230
0
 70
    8
 71
    3
 72
    8
 73
    4
 74
    0
 42
1e-07
 43
1e-07
 40
0
 40
0
 40
0
 40
0
 40
1
 40
1
 40
1
 40
1
 10
3.052053000000001
 20
3.668424000000002
 30
0
 10
2.979291000000003
 20
3.697794000000002
 30
0
 10
2.860230000000001
 20
3.697794000000002
 30
0
 10
2.787468000000004
 20
3.668424000000002
 30
0
  0
SPLINE
  5
EB
100
AcDbEntity
  8
Calque_1
  6
ByLayer
 62
    7
370
   -1
100
AcDbSpline
210
0
220
0
230
0
 70
    8
 71
    3
 72
    8
 73
    4
 74
    0
 42
1e-07
 43
1e-07
 40
0
 40
0
 40
0
 40
0
 40
1
 40
1
 40
1
 40
1
 10
2.787468000000004
 20
3.668424000000002
 30
0
 10
2.714708999999999
 20
3.639054000000002
 30
0
 10
2.774238000000004
 20
3.615044999999999
 30
0
 10
2.919761999999999
 20
3.615044999999999
 30
0
  0
SPLINE
  5
EC
100
AcDbEntity
  8
Calque_1
  6
ByLayer
 62
    7
370
   -1
100
AcDbSpline
210
0
220
0
230
0
 70
    8
 71
    3
 72
    8
 73
    4
 74
    0
 42
1e-07
 43
1e-07
 40
0
 40
0
 40
0
 40
0
 40
1
 40
1
 40
1
 40
1
 10
2.919761999999999
 20
3.615044999999999
 30
0
 10
3.065280000000001
 20
3.615044999999999
 30
0
 10
3.124811999999999
 20
3.639075000000002
 30
0
 10
3.052053000000001
 20
3.668424000000002
 30
0
  0
LWPOLYLINE
  5
ED
100
AcDbEntity
  8
Calque_1
  6
ByLayer
 62
    7
370
   -1
100
AcDbPolyline
 90
    1
 70
    1
 43
0
 10
2.552145000000003
 20
3.577893
  0
SPLINE
  5
EE
100
AcDbEntity
  8
Calque_1
  6
ByLayer
 62
    7
370
   -1
100
AcDbSpline
210
0
220
0
230
0
 70
    8
 71
    3
 72
    8
 73
    4
 74
    0
 42
1e-07
 43
1e-07
 40
0
 40
0
 40
0
 40
0
 40
1
 40
1
 40
1
 40
1
 10
7.153095
 20
3.928326000000002
 30
0
 10
7.153095
 20
4.044741000000002
 30
0
 10
7.105470000000004
 20
4.110558000000001
 30
0
 10
7.047260999999999
 20
4.074584999999999
 30
0
  0
SPLINE
  5
EF
100
AcDbEntity
  8
Calque_1
  6
ByLayer
 62
    7
370
   -1
100
AcDbSpline
210
0
220
0
230
0
 70
    8
 71
    3
 72
    8
 73
    4
 74
    0
 42
1e-07
 43
1e-07
 40
0
 40
0
 40
0
 40
0
 40
1
 40
1
 40
1
 40
1
 10
7.047260999999999
 20
4.074584999999999
 30
0
 10
6.989052000000001
 20
4.038609000000001
 30
0
 10
6.941427000000004
 20
3.913926
 30
0
 10
6.941427000000004
 20
3.797508000000001
 30
0
  0
SPLINE
  5
F0
100
AcDbEntity
  8
Calque_1
  6
ByLayer
 62
    7
370
   -1
100
AcDbSpline
210
0
220
0
230
0
 70
    8
 71
    3
 72
    8
 73
    4
 74
    0
 42
1e-07
 43
1e-07
 40
0
 40
0
 40
0
 40
0
 40
1
 40
1
 40
1
 40
1
 10
6.941427000000004
 20
3.797508000000001
 30
0
 10
6.941427000000004
 20
3.681093000000001
 30
0
 10
6.989052000000001
 20
3.615276000000001
 30
0
 10
7.047260999999999
 20
3.651249
 30
0
  0
SPLINE
  5
F1
100
AcDbEntity
  8
Calque_1
  6
ByLayer
 62
    7
370
   -1
100
AcDbSpline
210
0
220
0
230
0
 70
    8
 71
    3
 72
    8
 73
    4
 74
    0
 42
1e-07
 43
1e-07
 40
0
 40
0
 40
0
 40
0
 40
1
 40
1
 40
1
 40
1
 10
7.047260999999999
 20
3.651249
 30
0
 10
7.105470000000004
 20
3.687225000000002
 30
0
 10
7.153095
 20
3.811907999999999
 30
0
 10
7.153095
 20
3.928326000000002
 30
0
  0
LWPOLYLINE
  5
F2
100
AcDbEntity
  8
Calque_1
  6
ByLayer
 62
    7
370
   -1
100
AcDbPolyline
 90
    1
 70
    1
 43
0
 10
3.052053000000001
 20
3.668424000000002
  0
SPLINE
  5
F3
100
AcDbEntity
  8
Calque_1
  6
ByLayer
 62
    7
370
   -1
100
AcDbSpline
210
0
220
0
230
0
 70
    8
 71
    3
 72
    8
 73
    4
 74
    0
 42
1e-07
 43
1e-07
 40
0
 40
0
 40
0
 40
0
 40
1
 40
1
 40
1
 40
1
 10
6.905684999999998
 20
4.577292
 30
0
 10
6.876314999999998
 20
4.650051000000001
 30
0
 10
6.852302999999999
 20
4.590522
 30
0
 10
6.852302999999999
 20
4.445001000000001
 30
0
  0
SPLINE
  5
F4
100
AcDbEntity
  8
Calque_1
  6
ByLayer
 62
    7
370
   -1
100
AcDbSpline
210
0
220
0
230
0
 70
    8
 71
    3
 72
    8
 73
    4
 74
    0
 42
1e-07
 43
1e-07
 40
0
 40
0
 40
0
 40
0
 40
1
 40
1
 40
1
 40
1
 10
6.852302999999999
 20
4.445001000000001
 30
0
 10
6.852302999999999
 20
4.299479999999999
 30
0
 10
6.876333000000002
 20
4.239948000000002
 30
0
 10
6.905684999999998
 20
4.312709999999999
 30
0
  0
SPLINE
  5
F5
100
AcDbEntity
  8
Calque_1
  6
ByLayer
 62
    7
370
   -1
100
AcDbSpline
210
0
220
0
230
0
 70
    8
 71
    3
 72
    8
 73
    4
 74
    0
 42
1e-07
 43
1e-07
 40
0
 40
0
 40
0
 40
0
 40
1
 40
1
 40
1
 40
1
 10
6.905684999999998
 20
4.312709999999999
 30
0
 10
6.935054999999998
 20
4.385469000000001
 30
0
 10
6.935054999999998
 20
4.504532999999999
 30
0
 10
6.905684999999998
 20
4.577292
 30
0
  0
LWPOLYLINE
  5
F6
100
AcDbEntity
  8
Calque_1
  6
ByLayer
 62
    7
370
   -1
100
AcDbPolyline
 90
    1
 70
    1
 43
0
 10
7.153095
 20
3.928326000000002
  0
SPLINE
  5
F7
100
AcDbEntity
  8
Calque_1
  6
ByLayer
 62
    7
370
   -1
100
AcDbSpline
210
0
220
0
230
0
 70
    8
 71
    3
 72
    8
 73
    4
 74
    0
 42
1e-07
 43
1e-07
 40
0
 40
0
 40
0
 40
0
 40
1
 40
1
 40
1
 40
1
 10
5.108724000000002
 20
4.676511000000001
 30
0
 10
5.074938000000003
 20
4.760937000000002
 30
0
 10
5.049861000000014
 20
4.735859999999999
 30
0
 10
5.044781999999998
 20
4.612569000000001
 30
0
  0
SPLINE
  5
F8
100
AcDbEntity
  8
Calque_1
  6
ByLayer
 62
    7
370
   -1
100
AcDbSpline
210
0
220
0
230
0
 70
    8
 71
    3
 72
    8
 73
    4
 74
    0
 42
1e-07
 43
1e-07
 40
0
 40
0
 40
0
 40
0
 40
1
 40
1
 40
1
 40
1
 10
5.044781999999998
 20
4.612569000000001
 30
0
 10
5.040192000000005
 20
4.501004999999999
 30
0
 10
5.065212000000002
 20
4.438497000000002
 30
0
 10
5.100369000000001
 20
4.473663000000002
 30
0
  0
SPLINE
  5
F9
100
AcDbEntity
  8
Calque_1
  6
ByLayer
 62
    7
370
   -1
100
AcDbSpline
210
0
220
0
230
0
 70
    8
 71
    3
 72
    8
 73
    4
 74
    0
 42
1e-07
 43
1e-07
 40
0
 40
0
 40
0
 40
0
 40
1
 40
1
 40
1
 40
1
 10
5.100369000000001
 20
4.473663000000002
 30
0
 10
5.135535000000004
 20
4.508828999999999
 30
0
 10
5.139294
 20
4.600113
 30
0
 10
5.108709000000005
 20
4.676511000000001
 30
0
  0
LWPOLYLINE
  5
FA
100
AcDbEntity
  8
Calque_1
  6
ByLayer
 62
    7
370
   -1
100
AcDbPolyline
 90
    1
 70
    1
 43
0
 10
6.905684999999998
 20
4.577292
  0
SPLINE
  5
FB
100
AcDbEntity
  8
Calque_1
  6
ByLayer
 62
    7
370
   -1
100
AcDbSpline
210
0
220
0
230
0
 70
    8
 71
    3
 72
    8
 73
    4
 74
    0
 42
1e-07
 43
1e-07
 40
0
 40
0
 40
0
 40
0
 40
1
 40
1
 40
1
 40
1
 10
6.056289000000014
 20
4.973514000000002
 30
0
 10
6.222582000000003
 20
4.974114
 30
0
 10
6.293862000000004
 20
5.052230999999999
 30
0
 10
6.325710000000001
 20
5.269235999999999
 30
0
  0
LWPOLYLINE
  5
FC
100
AcDbEntity
  8
Calque_1
  6
ByLayer
 62
    7
370
   -1
100
AcDbPolyline
 90
    1
 70
    1
 43
0
 10
5.108709000000005
 20
4.676511000000001
  0
SPLINE
  5
FD
100
AcDbEntity
  8
Calque_1
  6
ByLayer
 62
    7
370
   -1
100
AcDbSpline
210
0
220
0
230
0
 70
    8
 71
    3
 72
    8
 73
    4
 74
    0
 42
1e-07
 43
1e-07
 40
0
 40
0
 40
0
 40
0
 40
1
 40
1
 40
1
 40
1
 10
5.997846000000003
 20
5.375067000000001
 30
0
 10
5.793699000000004
 20
5.270987999999999
 30
0
 10
5.570400000000014
 20
5.185832999999999
 30
0
 10
5.501622000000005
 20
5.185832999999999
 30
0
  0
SPLINE
  5
FE
100
AcDbEntity
  8
Calque_1
  6
ByLayer
 62
    7
370
   -1
100
AcDbSpline
210
0
220
0
230
0
 70
    8
 71
    3
 72
    8
 73
    4
 74
    0
 42
1e-07
 43
1e-07
 40
0
 40
0
 40
0
 40
0
 40
1
 40
1
 40
1
 40
1
 10
5.501622000000005
 20
5.185832999999999
 30
0
 10
5.383329000000003
 20
5.185832999999999
 30
0
 10
5.248094999999999
 20
4.958750999999999
 30
0
 10
5.248094999999999
 20
4.760121000000002
 30
0
  0
SPLINE
  5
FF
100
AcDbEntity
  8
Calque_1
  6
ByLayer
 62
    7
370
   -1
100
AcDbSpline
210
0
220
0
230
0
 70
    8
 71
    3
 72
    8
 73
    4
 74
    0
 42
1e-07
 43
1e-07
 40
0
 40
0
 40
0
 40
0
 40
1
 40
1
 40
1
 40
1
 10
5.248094999999999
 20
4.760121000000002
 30
0
 10
5.248094999999999
 20
4.710125999999999
 30
0
 10
5.379063000000002
 20
4.737531000000001
 30
0
 10
5.539137000000004
 20
4.821041999999998
 30
0
  0
SPLINE
  5
100
100
AcDbEntity
  8
Calque_1
  6
ByLayer
 62
    7
370
   -1
100
AcDbSpline
210
0
220
0
230
0
 70
    8
 71
    3
 72
    8
 73
    4
 74
    0
 42
1e-07
 43
1e-07
 40
0
 40
0
 40
0
 40
0
 40
1
 40
1
 40
1
 40
1
 10
5.539137000000004
 20
4.821041999999998
 30
0
 10
5.699207999999999
 20
4.904544000000001
 30
0
 10
5.931930000000001
 20
4.973157
 30
0
 10
6.056289000000014
 20
4.973514000000002
 30
0
  0
LWPOLYLINE
  5
101
100
AcDbEntity
  8
Calque_1
  6
ByLayer
 62
    7
370
   -1
100
AcDbPolyline
 90
    3
 70
    0
 43
0
 10
6.325710000000001
 20
5.269235999999999
 10
6.369018000000004
 20
5.564301
 10
5.997846000000003
 20
5.375067000000001
  0
SPLINE
  5
102
100
AcDbEntity
  8
Calque_1
  6
ByLayer
 62
    7
370
   -1
100
AcDbSpline
210
0
220
0
230
0
 70
    8
 71
    3
 72
    8
 73
    4
 74
    0
 42
1e-07
 43
1e-07
 40
0
 40
0
 40
0
 40
0
 40
1
 40
1
 40
1
 40
1
 10
9.255462000000001
 20
5.952669
 30
0
 10
8.984090999999999
 20
6.053055000000001
 30
0
 10
8.846426999999998
 20
5.972619000000002
 30
0
 10
8.846426999999998
 20
5.713677000000001
 30
0
  0
SPLINE
  5
103
100
AcDbEntity
  8
Calque_1
  6
ByLayer
 62
    7
370
   -1
100
AcDbSpline
210
0
220
0
230
0
 70
    8
 71
    3
 72
    8
 73
    4
 74
    0
 42
1e-07
 43
1e-07
 40
0
 40
0
 40
0
 40
0
 40
1
 40
1
 40
1
 40
1
 10
8.846426999999998
 20
5.713677000000001
 30
0
 10
8.846426999999998
 20
5.521608000000001
 30
0
 10
8.859597000000001
 20
5.520728999999999
 30
0
 10
9.159402
 20
5.692796999999999
 30
0
  0
SPLINE
  5
104
100
AcDbEntity
  8
Calque_1
  6
ByLayer
 62
    7
370
   -1
100
AcDbSpline
210
0
220
0
230
0
 70
    8
 71
    3
 72
    8
 73
    4
 74
    0
 42
1e-07
 43
1e-07
 40
0
 40
0
 40
0
 40
0
 40
1
 40
1
 40
1
 40
1
 10
9.159402
 20
5.692796999999999
 30
0
 10
9.454047000000003
 20
5.861898
 30
0
 10
9.459675000000004
 20
5.877120000000001
 30
0
 10
9.255462000000001
 20
5.952663000000001
 30
0
  0
LWPOLYLINE
  5
105
100
AcDbEntity
  8
Calque_1
  6
ByLayer
 62
    7
370
   -1
100
AcDbPolyline
 90
    1
 70
    1
 43
0
 10
6.056289000000014
 20
4.973514000000002
  0
SPLINE
  5
106
100
AcDbEntity
  8
Calque_1
  6
ByLayer
 62
    7
370
   -1
100
AcDbSpline
210
0
220
0
230
0
 70
    8
 71
    3
 72
    8
 73
    4
 74
    0
 42
1e-07
 43
1e-07
 40
0
 40
0
 40
0
 40
0
 40
1
 40
1
 40
1
 40
1
 10
9.058095000000002
 20
6.403161000000001
 30
0
 10
9.058095000000002
 20
6.483737999999999
 30
0
 10
9.156843000000002
 20
6.618831
 30
0
 10
9.277532999999998
 20
6.703365000000002
 30
0
  0
SPLINE
  5
107
100
AcDbEntity
  8
Calque_1
  6
ByLayer
 62
    7
370
   -1
100
AcDbSpline
210
0
220
0
230
0
 70
    8
 71
    3
 72
    8
 73
    4
 74
    0
 42
1e-07
 43
1e-07
 40
0
 40
0
 40
0
 40
0
 40
1
 40
1
 40
1
 40
1
 10
9.277532999999998
 20
6.703365000000002
 30
0
 10
9.421686000000001
 20
6.804333
 30
0
 10
9.456405000000004
 20
6.882141000000001
 30
0
 10
9.378731999999999
 20
6.930143999999999
 30
0
  0
SPLINE
  5
108
100
AcDbEntity
  8
Calque_1
  6
ByLayer
 62
    7
370
   -1
100
AcDbSpline
210
0
220
0
230
0
 70
    8
 71
    3
 72
    8
 73
    4
 74
    0
 42
1e-07
 43
1e-07
 40
0
 40
0
 40
0
 40
0
 40
1
 40
1
 40
1
 40
1
 10
9.378731999999999
 20
6.930143999999999
 30
0
 10
9.313698000000024
 20
6.970338000000002
 30
0
 10
9.196317000000001
 20
6.949974000000001
 30
0
 10
9.117888000000001
 20
6.884874
 30
0
  0
SPLINE
  5
109
100
AcDbEntity
  8
Calque_1
  6
ByLayer
 62
    7
370
   -1
100
AcDbSpline
210
0
220
0
230
0
 70
    8
 71
    3
 72
    8
 73
    4
 74
    0
 42
1e-07
 43
1e-07
 40
0
 40
0
 40
0
 40
0
 40
1
 40
1
 40
1
 40
1
 10
9.117888000000001
 20
6.884874
 30
0
 10
8.964950999999999
 20
6.757947000000001
 30
0
 10
8.826501
 20
6.113526
 30
0
 10
8.971409999999999
 20
6.203085000000002
 30
0
  0
SPLINE
  5
10A
100
AcDbEntity
  8
Calque_1
  6
ByLayer
 62
    7
370
   -1
100
AcDbSpline
210
0
220
0
230
0
 70
    8
 71
    3
 72
    8
 73
    4
 74
    0
 42
1e-07
 43
1e-07
 40
0
 40
0
 40
0
 40
0
 40
1
 40
1
 40
1
 40
1
 10
8.971409999999999
 20
6.203085000000002
 30
0
 10
9.019086000000001
 20
6.232545000000002
 30
0
 10
9.058095000000002
 20
6.322583999999999
 30
0
 10
9.058095000000002
 20
6.403161000000001
 30
0
  0
LWPOLYLINE
  5
10B
100
AcDbEntity
  8
Calque_1
  6
ByLayer
 62
    7
370
   -1
100
AcDbPolyline
 90
    1
 70
    1
 43
0
 10
9.255462000000001
 20
5.952663000000001
  0
SPLINE
  5
10C
100
AcDbEntity
  8
Calque_1
  6
ByLayer
 62
    7
370
   -1
100
AcDbSpline
210
0
220
0
230
0
 70
    8
 71
    3
 72
    8
 73
    4
 74
    0
 42
1e-07
 43
1e-07
 40
0
 40
0
 40
0
 40
0
 40
1
 40
1
 40
1
 40
1
 10
9.473103000000002
 20
7.584029999999998
 30
0
 10
9.544203000000003
 20
7.667379
 30
0
 10
9.532509000000005
 20
7.724198999999999
 30
0
 10
9.436692000000001
 20
7.760967000000001
 30
0
  0
SPLINE
  5
10D
100
AcDbEntity
  8
Calque_1
  6
ByLayer
 62
    7
370
   -1
100
AcDbSpline
210
0
220
0
230
0
 70
    8
 71
    3
 72
    8
 73
    4
 74
    0
 42
1e-07
 43
1e-07
 40
0
 40
0
 40
0
 40
0
 40
1
 40
1
 40
1
 40
1
 10
9.436692000000001
 20
7.760967000000001
 30
0
 10
9.235541999999988
 20
7.838156999999999
 30
0
 10
9.057527999999998
 20
7.623165
 30
0
 10
9.061461000000001
 20
7.307793
 30
0
  0
SPLINE
  5
10E
100
AcDbEntity
  8
Calque_1
  6
ByLayer
 62
    7
370
   -1
100
AcDbSpline
210
0
220
0
230
0
 70
    8
 71
    3
 72
    8
 73
    4
 74
    0
 42
1e-07
 43
1e-07
 40
0
 40
0
 40
0
 40
0
 40
1
 40
1
 40
1
 40
1
 10
9.061461000000001
 20
7.307793
 30
0
 10
9.064731000000002
 20
7.045442999999999
 30
0
 10
9.069051000000002
 20
7.04382
 30
0
 10
9.2166
 20
7.249583999999999
 30
0
  0
SPLINE
  5
10F
100
AcDbEntity
  8
Calque_1
  6
ByLayer
 62
    7
370
   -1
100
AcDbSpline
210
0
220
0
230
0
 70
    8
 71
    3
 72
    8
 73
    4
 74
    0
 42
1e-07
 43
1e-07
 40
0
 40
0
 40
0
 40
0
 40
1
 40
1
 40
1
 40
1
 10
9.2166
 20
7.249583999999999
 30
0
 10
9.300077999999999
 20
7.365998999999999
 30
0
 10
9.415503000000001
 20
7.516500000000001
 30
0
 10
9.473103000000002
 20
7.584029999999998
 30
0
  0
LWPOLYLINE
  5
110
100
AcDbEntity
  8
Calque_1
  6
ByLayer
 62
    7
370
   -1
100
AcDbPolyline
 90
    1
 70
    1
 43
0
 10
9.058095000000002
 20
6.403161000000001
  0
SPLINE
  5
111
100
AcDbEntity
  8
Calque_1
  6
ByLayer
 62
    7
370
   -1
100
AcDbSpline
210
0
220
0
230
0
 70
    8
 71
    3
 72
    8
 73
    4
 74
    0
 42
1e-07
 43
1e-07
 40
0
 40
0
 40
0
 40
0
 40
1
 40
1
 40
1
 40
1
 10
9.616725000000002
 20
8.450621999999999
 30
0
 10
9.527157000000003
 20
8.470901999999999
 30
0
 10
9.413178000000002
 20
8.423292
 30
0
 10
9.363438000000002
 20
8.344788000000001
 30
0
  0
SPLINE
  5
112
100
AcDbEntity
  8
Calque_1
  6
ByLayer
 62
    7
370
   -1
100
AcDbSpline
210
0
220
0
230
0
 70
    8
 71
    3
 72
    8
 73
    4
 74
    0
 42
1e-07
 43
1e-07
 40
0
 40
0
 40
0
 40
0
 40
1
 40
1
 40
1
 40
1
 10
9.363438000000002
 20
8.344788000000001
 30
0
 10
9.19773
 20
8.083304999999999
 30
0
 10
9.266898000000005
 20
8.031314999999999
 30
0
 10
9.52467
 20
8.223603000000001
 30
0
  0
SPLINE
  5
113
100
AcDbEntity
  8
Calque_1
  6
ByLayer
 62
    7
370
   -1
100
AcDbSpline
210
0
220
0
230
0
 70
    8
 71
    3
 72
    8
 73
    4
 74
    0
 42
1e-07
 43
1e-07
 40
0
 40
0
 40
0
 40
0
 40
1
 40
1
 40
1
 40
1
 10
9.52467
 20
8.223603000000001
 30
0
 10
9.722376000000004
 20
8.371082999999999
 30
0
 10
9.743034000000002
 20
8.422025999999999
 30
0
 10
9.616725000000002
 20
8.450621999999999
 30
0
  0
LWPOLYLINE
  5
114
100
AcDbEntity
  8
Calque_1
  6
ByLayer
 62
    7
370
   -1
100
AcDbPolyline
 90
    1
 70
    1
 43
0
 10
9.473103000000002
 20
7.584029999999998
  0
SPLINE
  5
115
100
AcDbEntity
  8
Calque_1
  6
ByLayer
 62
    7
370
   -1
100
AcDbSpline
210
0
220
0
230
0
 70
    8
 71
    3
 72
    8
 73
    4
 74
    0
 42
1e-07
 43
1e-07
 40
0
 40
0
 40
0
 40
0
 40
1
 40
1
 40
1
 40
1
 10
5.565594000000004
 20
8.784192000000001
 30
0
 10
5.565594000000004
 20
8.842400999999999
 30
0
 10
5.482250999999998
 20
8.889294
 30
0
 10
5.380386000000001
 20
8.888403
 30
0
  0
SPLINE
  5
116
100
AcDbEntity
  8
Calque_1
  6
ByLayer
 62
    7
370
   -1
100
AcDbSpline
210
0
220
0
230
0
 70
    8
 71
    3
 72
    8
 73
    4
 74
    0
 42
1e-07
 43
1e-07
 40
0
 40
0
 40
0
 40
0
 40
1
 40
1
 40
1
 40
1
 10
5.380386000000001
 20
8.888403
 30
0
 10
5.222106000000004
 20
8.886903
 30
0
 10
5.218260000000001
 20
8.871873000000001
 30
0
 10
5.353926000000001
 20
8.784192000000001
 30
0
  0
SPLINE
  5
117
100
AcDbEntity
  8
Calque_1
  6
ByLayer
 62
    7
370
   -1
100
AcDbSpline
210
0
220
0
230
0
 70
    8
 71
    3
 72
    8
 73
    4
 74
    0
 42
1e-07
 43
1e-07
 40
0
 40
0
 40
0
 40
0
 40
1
 40
1
 40
1
 40
1
 10
5.353926000000001
 20
8.784192000000001
 30
0
 10
5.553657000000001
 20
8.655117000000001
 30
0
 10
5.565594000000004
 20
8.655117000000001
 30
0
 10
5.565594000000004
 20
8.784192000000001
 30
0
  0
LWPOLYLINE
  5
118
100
AcDbEntity
  8
Calque_1
  6
ByLayer
 62
    7
370
   -1
100
AcDbPolyline
 90
    1
 70
    1
 43
0
 10
9.616725000000002
 20
8.450621999999999
  0
LWPOLYLINE
  5
119
100
AcDbEntity
  8
Calque_1
  6
ByLayer
 62
    7
370
   -1
100
AcDbPolyline
 90
    1
 70
    1
 43
0
 10
5.565594000000004
 20
8.784192000000001
  0
ENDSEC
  0
SECTION
  2
OBJECTS
  0
DICTIONARY
  5
C
330
0
100
AcDbDictionary
281
    1
  3
ACAD_GROUP
350
D
  0
DICTIONARY
  5
D
330
C
100
AcDbDictionary
281
    1
  0
ENDSEC
  0
EOF
